  0
SECTION
  2
HEADER
  9
$ACADVER
  1
AC1009
  9
$INSBASE
 10
0
 20
0
 30
0
  9
$EXTMIN
 10
0
 20
0
  9
$EXTMAX
 10
420
 20
297
  9
$LIMMIN
 10
0
 20
0
  9
$LIMMAX
 10
420
 20
297
  9
$LTSCALE
 40
1
  0
ENDSEC
  0
SECTION
  2
TABLES
  0
TABLE
  2
LTYPE
 70
     9
  0
LTYPE
  2
CONTINUOUS
 70
    64
  3
実線
 72
    65
 73
     0
 40
0.0
  0
LTYPE
  2
DASHED1
 70
    64
  3
--  --  --  --  --  --  --  --  
 72
    65
 73
     2
 40
2.5
 49
1.25
 49
-1.25
  0
LTYPE
  2
DASHED2
 70
    64
  3
----    ----    ----    ----    
 72
    65
 73
     2
 40
5.0
 49
2.5
 49
-2.5
  0
LTYPE
  2
DASHED3
 70
    64
  3
------  ------  ------  ------  
 72
    65
 73
     2
 40
5.0
 49
3.75
 49
-1.25
  0
LTYPE
  2
CENTER1
 70
    64
  3
----- - ----- - ----- - ----- - 
 72
    65
 73
     4
 40
10.0
 49
6.25
 49
-1.25
 49
1.25
 49
-1.25
  0
LTYPE
  2
CENTER2
 70
    64
  3
----------  --  ----------  --  
 72
    65
 73
     4
 40
20.0
 49
12.5
 49
-2.5
 49
2.5
 49
-2.5
  0
LTYPE
  2
PHANTOM1
 70
    64
  3
--- - - --- - - --- - - --- - - 
 72
    65
 73
     6
 40
10.0
 49
3.25
 49
-1.25
 49
1.25
 49
-1.25
 49
1.25
 49
-1.25
  0
LTYPE
  2
PHANTOM2
 70
    64
  3
--------  -  -  --------  -  -  
 72
    65
 73
     6
 40
20.0
 49
10.0
 49
-2.5
 49
1.25
 49
-2.5
 49
1.25
 49
-2.5
  0
LTYPE
  2
DOT
 70
    64
  3
-   -   -   -   -   -   -   -   
 72
    65
 73
     2
 40
2.5
 49
0.625
 49
-1.875
  0
LTYPE
  2
DUMMY
 70
    64
  3
ダミー
 72
    65
 73
     0
 40
0.0
  0
LTYPE
  2
RAND1
 70
    64
  3
ランダム線1
 72
    65
 73
     4
 40
10.0
 49
1.0
 49
-2.0
 49
3.0
 49
-4.0
  0
LTYPE
  2
RAND2
 70
    64
  3
ランダム線2
 72
    65
 73
     4
 40
14.0
 49
2.0
 49
-3.0
 49
4.0
 49
-5.0
  0
LTYPE
  2
RAND3
 70
    64
  3
ランダム線3
 72
    65
 73
     4
 40
18.0
 49
3.0
 49
-4.0
 49
5.0
 49
-6.0
  0
LTYPE
  2
RAND4
 70
    64
  3
ランダム線4
 72
    65
 73
     4
 40
22.0
 49
4.0
 49
-5.0
 49
6.0
 49
-7.0
  0
LTYPE
  2
RAND5
 70
    64
  3
ランダム線5
 72
    65
 73
     4
 40
26.0
 49
5.0
 49
-6.0
 49
7.0
 49
-8.0
  0
LTYPE
  2
LONG1
 70
    64
  3
----------  --  ----------  --  
 72
    65
 73
     4
 40
40.0
 49
32.5
 49
-2.5
 49
2.5
 49
-2.5
  0
LTYPE
  2
LONG2
 70
    64
  3
--------  -  -  --------  -  -  
 72
    65
 73
     6
 40
40.0
 49
30.0
 49
-2.5
 49
1.25
 49
-2.5
 49
1.25
 49
-2.5
  0
LTYPE
  2
LONG3
 70
    64
  3
+++++++++++++++..+++++++++++++++
 72
    65
 73
     2
 40
40.0
 49
37.5
 49
-2.5
  0
LTYPE
  2
LONG4
 70
    64
  3
+++++++++++++++..+++++++++++++++
 72
    65
 73
     2
 40
80.0
 49
75.0
 49
-5.0
  0
LTYPE
  2
LONG5
 70
    64
  3
----------  --  ----------  --  
 72
    65
 73
     4
 40
60.0
 49
37.5
 49
-7.5
 49
7.5
 49
-7.5
  0
LTYPE
  2
dashed
 70
   64
  3
-------   -------------   ------
 72
   65
 73
    2
 40
7.5
 49
6
 49
-1.5
  0
LTYPE
  2
dashed_spaced
 70
   64
  3
----        --------        ----
 72
   65
 73
    2
 40
12
 49
6
 49
-6
  0
LTYPE
  2
long_dashed_dotted
 70
   64
  3
------------- --- --------------
 72
   65
 73
    4
 40
15.25
 49
12
 49
-1.5
 49
0.25
 49
-1.5
  0
LTYPE
  2
long_dashed_double-dotted
 70
   64
  3
----------- --- --- ------------
 72
   65
 73
    6
 40
17
 49
12
 49
-1.5
 49
0.25
 49
-1.5
 49
0.25
 49
-1.5
  0
LTYPE
  2
long_dashed_triplicate-dotted
 70
   64
  3
--------- --- --- --- ----------
 72
   65
 73
    8
 40
18.75
 49
12
 49
-1.5
 49
0.25
 49
-1.5
 49
0.25
 49
-1.5
 49
0.25
 49
-1.5
  0
LTYPE
  2
dotted
 70
   64
  3
   -       -       -       -    
 72
   65
 73
    2
 40
1.75
 49
0.25
 49
-1.5
  0
LTYPE
  2
chain
 70
   64
  3
-------------- -- --------------
 72
   65
 73
    4
 40
18.5
 49
12
 49
-1.5
 49
3.5
 49
-1.5
  0
LTYPE
  2
chain_double_dash
 70
   64
  3
------------ -- -- -------------
 72
   65
 73
    6
 40
23.5
 49
12
 49
-1.5
 49
3.5
 49
-1.5
 49
3.5
 49
-1.5
  0
LTYPE
  2
dashed_dotted
 70
   64
  3
-----------     -     ----------
 72
   65
 73
    4
 40
9.25
 49
6
 49
-1.5
 49
0.25
 49
-1.5
  0
LTYPE
  2
double-dashed_dotted
 70
   64
  3
------   -----------   -   -----
 72
   65
 73
    6
 40
16.75
 49
6
 49
-1.5
 49
6
 49
-1.5
 49
0.25
 49
-1.5
  0
LTYPE
  2
dashed_double-dotted
 70
   64
  3
---------    -    -    ---------
 72
   65
 73
    6
 40
11
 49
6
 49
-1.5
 49
0.25
 49
-1.5
 49
0.25
 49
-1.5
  0
LTYPE
  2
double-dashed_double-dotted
 70
   64
  3
-----   ---------   -   -   ----
 72
   65
 73
    8
 40
18.5
 49
6
 49
-1.5
 49
6
 49
-1.5
 49
0.25
 49
-1.5
 49
0.25
 49
-1.5
  0
LTYPE
  2
dashed_triplicate-dotted
 70
   64
  3
-------    -    -    -    ------
 72
   65
 73
    8
 40
12.75
 49
6
 49
-1.5
 49
0.25
 49
-1.5
 49
0.25
 49
-1.5
 49
0.25
 49
-1.5
  0
LTYPE
  2
double-dashed_triplicate-dotted
 70
   64
  3
-----  ---------  -  -  -  -----
 72
   65
 73
   10
 40
20.25
 49
6
 49
-1.5
 49
6
 49
-1.5
 49
0.25
 49
-1.5
 49
0.25
 49
-1.5
 49
0.25
 49
-1.5
  0
LTYPE
  2
undefined
 70
   64
  3
--------------------------------
 72
   65
 73
    0
 40
0
  0
LTYPE
  2
_
 70
   64
  3
                                
 72
   65
 73
    0
 40
0
  0
LTYPE
  2
__18
 70
   64
  3
                                
 72
   65
 73
    0
 40
0
  0
LTYPE
  2
__19
 70
   64
  3
                                
 72
   65
 73
    0
 40
0
  0
LTYPE
  2
__20
 70
   64
  3
                                
 72
   65
 73
    0
 40
0
  0
LTYPE
  2
__21
 70
   64
  3
                                
 72
   65
 73
    0
 40
0
  0
LTYPE
  2
__22
 70
   64
  3
                                
 72
   65
 73
    0
 40
0
  0
LTYPE
  2
__23
 70
   64
  3
                                
 72
   65
 73
    0
 40
0
  0
LTYPE
  2
__24
 70
   64
  3
                                
 72
   65
 73
    0
 40
0
  0
LTYPE
  2
__25
 70
   64
  3
                                
 72
   65
 73
    0
 40
0
  0
LTYPE
  2
__26
 70
   64
  3
                                
 72
   65
 73
    0
 40
0
  0
LTYPE
  2
__27
 70
   64
  3
                                
 72
   65
 73
    0
 40
0
  0
LTYPE
  2
__28
 70
   64
  3
                                
 72
   65
 73
    0
 40
0
  0
LTYPE
  2
__29
 70
   64
  3
                                
 72
   65
 73
    0
 40
0
  0
LTYPE
  2
__30
 70
   64
  3
                                
 72
   65
 73
    0
 40
0
  0
LTYPE
  2
__31
 70
   64
  3
                                
 72
   65
 73
    0
 40
0
  0
LTYPE
  2
__32
 70
   64
  3
                                
 72
   65
 73
    0
 40
0
  0
ENDTAB
  0
TABLE
  2
STYLE
  5
3
100
AcDbSymbolTable
 70
     1
  0
STYLE
  5
10
100
AcDbSymbolTableRecord
100
AcDbTextStyleTableRecord
  2
STANDARD
 70
     0
 40
0.0
 41
1.0
 50
0.0
 71
     0
 42
0.2
  3
txt
  4
bigfont.shx
  0
STYLE
  5
26
100
AcDbSymbolTableRecord
100
AcDbTextStyleTableRecord
  2
TATEGAKI
 70
    68
 40
0.0
 41
1.0
 50
0.0
 71
     0
 42
1.0
  3
txt
  4
bigfont.shx
  0
ENDTAB
  0
TABLE
  2
LAYER
 70
    5
  0
LAYER
  2
_0-0_
 70
   64
 62
    7
  6
CONTINUOUS
  0
LAYER
  2
_0-1_ADD_LINE
 70
   64
 62
    7
  6
CONTINUOUS
  0
LAYER
  2
_0-8_
 70
   64
 62
    7
  6
CONTINUOUS
  0
LAYER
  2
_0-9_
 70
   64
 62
    7
  6
CONTINUOUS
  0
LAYER
  2
ADD_LINE
 70
   64
 62
    7
  6
CONTINUOUS
  0
ENDTAB
  0
ENDSEC
  0
SECTION
  2
BLOCKS
  0
ENDSEC
  0
SECTION
  2
ENTITIES
  0
LINE
  8
_0-0_
  6
CONTINUOUS
 62
    7
 10
200.3968353636763
 20
164.1010057974685
 11
200.3968353636763
 21
153.1010057974685
  0
LINE
  8
_0-9_
  6
CONTINUOUS
 62
    4
 10
256.72883615930084
 20
62.611533880686906
 11
215.41301615930072
 21
62.611533880686906
  0
LINE
  8
_0-9_
  6
CONTINUOUS
 62
    4
 10
352.65339215930078
 20
56.503977880686861
 11
270.02175215930077
 21
56.503977880686861
  0
LINE
  8
_0-9_
  6
CONTINUOUS
 62
    4
 10
296.24831615930077
 20
63.689337880686878
 11
350.49778415930086
 21
63.689337880686878
  0
LINE
  8
_0-9_
  6
CONTINUOUS
 62
    4
 10
294.0927081593008
 20
48.60008188068683
 11
294.09270815930086
 21
70.874697880686881
  0
LINE
  8
_0-9_
  6
CONTINUOUS
 62
    4
 10
215.41301615930072
 20
79.497129880686913
 11
352.65339215930078
 21
79.497129880686913
  0
LINE
  8
_0-9_
  6
CONTINUOUS
 62
    4
 10
215.41301615930072
 20
70.874697880686881
 11
352.65339215930095
 21
70.874697880686853
  0
LINE
  8
_0-9_
  6
CONTINUOUS
 62
    4
 10
246.31006415930074
 20
79.497129880686913
 11
246.31006415930074
 21
70.874697880686924
  0
LINE
  8
_0-9_
  6
CONTINUOUS
 62
    4
 10
270.02175215930077
 20
79.49712988068687
 11
270.02175215930077
 21
48.600081880686716
  0
LINE
  8
_0-9_
  6
CONTINUOUS
 62
    4
 10
336.12706415930074
 20
79.497129880686913
 11
336.12706415930074
 21
70.874697880686924
  0
LINE
  8
_0-9_
  6
CONTINUOUS
 62
    4
 10
319.60073615930099
 20
70.874697880686881
 11
319.60073615930099
 21
79.497129880686913
  0
LINE
  8
_0-9_
  6
CONTINUOUS
 62
    4
 10
292.6556361593008
 20
63.689337880686878
 11
271.45882415930078
 21
63.689337880686878
  0
LINE
  8
_0-9_
  6
CONTINUOUS
 62
    4
 10
256.72883615930073
 20
48.60008188068683
 11
256.72883615930095
 21
70.874697880686881
  0
LINE
  8
_0-9_
  6
CONTINUOUS
 62
    4
 10
270.02175215930077
 20
58.300317880686876
 11
256.72883615930084
 21
58.300317880686876
  0
LINE
  8
_0-9_
  6
CONTINUOUS
 62
    4
 10
256.72883615930084
 20
58.300317880686876
 11
215.41301615930072
 21
58.300317880686904
  0
LINE
  8
_0-9_
  6
CONTINUOUS
 62
    4
 10
215.41301615930072
 20
79.497129880686913
 11
215.41301615930072
 21
48.60008188068683
  0
LINE
  8
_0-9_
  6
CONTINUOUS
 62
    3
 10
352.65339215930089
 20
48.60008188068683
 11
352.65339215930095
 21
246.91601788068698
  0
LINE
  8
_0-9_
  6
CONTINUOUS
 62
    3
 10
65.238992159300608
 20
48.600081880686915
 11
352.65339215930089
 21
48.60008188068683
  0
LINE
  8
_0-9_
  6
CONTINUOUS
 62
    3
 10
65.238992159300608
 20
246.91601788068698
 11
65.238992159300608
 21
48.600081880686915
  0
LINE
  8
_0-9_
  6
CONTINUOUS
 62
    3
 10
352.65339215930095
 20
246.91601788068698
 11
65.238992159300608
 21
246.91601788068698
  0
LINE
  8
_0-9_
  6
CONTINUOUS
 62
    4
 10
236.07092615930074
 20
70.874697880686881
 11
236.07092615930074
 21
62.611533880686906
  0
TEXT
  8
_0-9_
 62
    7
 10
321.82958043008347
 20
76.999290710327415
 40
2.2108800329446803
 41
1.0422794146408494
 50
0
  1
Quantity
  0
TEXT
  8
_0-9_
 62
    7
 10
216.18534647419199
 20
76.753575344960637
 40
2.2108800329446803
 41
1.0422794146408494
 50
0
  1
Model
  0
TEXT
  8
_0-9_
 62
    7
 10
248.30370248987873
 20
76.753575344960637
 40
2.2108800329446803
 41
1.0422794146408489
 50
0
  1
Material
  0
TEXT
  8
_0-9_
 62
    7
 10
331.21301487031798
 20
72.592738627175009
 40
2.6254199670553224
 41
1.1789474007825755
 50
0
  1
1
  0
TEXT
  8
_0-9_
 62
    7
 10
257.72347674007221
 20
68.375771128966775
 40
2.2108800329446798
 41
1.0738636393269363
 50
0
  1
Scale
  0
TEXT
  8
_0-9_
 62
    7
 10
270.65573897162619
 20
68.287722467689292
 40
2.2108800329446803
 41
1.0029481159751568
 50
0
  1
Machining tolerance
  0
TEXT
  8
_0-9_
 62
    7
 10
296.89475248531579
 20
67.891661886350576
 40
2.4872399341106424
 41
1.0144927804980681
 50
0
  1
Equipment
  0
TEXT
  8
_0-9_
 62
    7
 10
276.45227867027785
 20
65.161560617196358
 40
2.2108800329446807
 41
1.0010593247962958
 50
0
  1
JIS B 0405
  0
TEXT
  8
_0-9_
 62
    7
 10
270.63934870947332
 20
61.092509644633182
 40
2.2108800329446794
 41
1.0738636393269361
 50
0
  1
Grade
  0
TEXT
  8
_0-9_
 62
    7
 10
232.83195345377939
 20
59.277344242233625
 40
2.0726999999999993
 41
1.1030302625713952
 50
0
  1
Author
  0
TEXT
  8
_0-9_
 62
    7
 10
319.5481462999478
 20
58.490751159152893
 40
2.6254199670553238
 41
1.1789474007825773
 50
0
  1
Main
  0
TEXT
  8
_0-9_
 62
    7
 10
258.17983065945685
 20
55.514768719515857
 40
2.2108800329446776
 41
1.0738636393269367
 50
0
  1
Unit
  0
TEXT
  8
_0-9_
 62
    7
 10
223.66572548519105
 20
53.764954959550138
 40
2.0727000000000029
 41
1.1030302625713913
 50
0
  1
Hirotaka Shiojima
  0
TEXT
  8
_0-9_
 62
    7
 10
270.95278440763025
 20
53.73249610349167
 40
2.2108800329446758
 41
1.0422794146408509
 50
0
  1
Projection method
  0
TEXT
  8
_0-9_
 62
    7
 10
262.15177306839178
 20
51.41611970044535
 40
2.4872399341106473
 41
1.060606088702525
 50
0
  1
mm
  0
TEXT
  8
_0-9_
 62
    7
 10
286.39914707983996
 20
49.870905435439255
 40
2.4872399341106366
 41
1.060606088702529
 50
0
  1
Ａ３
  0
TEXT
  8
_0-9_
 62
    7
 10
233.26760086703553
 20
50.569889747698952
 40
2.0727000000000046
 41
1.1030302625713901
 50
0
  1
SmartDIYs Co.,Ltd
  0
TEXT
  8
_0-9_
 62
    7
 10
312.45696490388468
 20
65.056659859211322
 40
2.7636000000000012
 41
1.0069231051665095
 50
0
  1
Smart Laser Alpha
  0
TEXT
  8
_0-9_
 62
    7
 10
256.81500648945354
 20
72.449022655983597
 40
2.625419967055322
 41
1.0251716528544144
 50
0
  1
A5052
  0
TEXT
  8
_0-9_
 62
    7
 10
271.00147440138414
 20
76.753575344960637
 40
2.2108800329446803
 41
1.0422794146408485
 50
0
  1
Treatment
  0
LINE
  8
_0-9_
  6
CONTINUOUS
 62
    4
 10
299.94161721907358
 20
70.874697880686881
 11
299.94161721907346
 21
79.497129880686913
  0
TEXT
  8
_0-9_
 62
    7
 10
274.5015881756288
 20
72.506398053017236
 40
2.625419967055322
 41
1.1789474007825782
 50
0
  1
Black anodized
  0
TEXT
  8
_0-9_
 62
    7
 10
301.97904293795534
 20
76.709839258126905
 40
2.2108800329446803
 41
1.0271739158779376
 50
0
  1
Color
  0
TEXT
  8
_0-9_
 62
    7
 10
309.76329304194491
 20
72.489222833457362
 40
2.6254199670553202
 41
1.1789474007825793
 50
0
  1
---
  0
TEXT
  8
_0-9_
 62
    7
 10
244.71392853499228
 20
64.120353903146821
 40
1.75
 41
1.0000000000000002
 50
0
  1
---
  0
TEXT
  8
_0-9_
 62
    7
 10
237.74833049075963
 20
67.84842046203191
 40
2.2108800329446798
 41
1.0422794146408483
 50
0
  1
Surface
  0
TEXT
  8
_0-9_
 62
    7
 10
216.26289426981666
 20
67.946527476739405
 40
2.2108800329446798
 41
1.0183189683272655
 50
0
  1
Date
  0
TEXT
  8
_0-9_
 62
    7
 10
275.42413281199629
 20
57.914630840026675
 40
2.2108800329446812
 41
1.0183189683272653
 50
0
  1
ｍ（midium）
  0
TEXT
  8
_0-9_
 62
    7
 10
218.5165567727488
 20
72.420892520875441
 40
2.0999999999999996
 41
1.0000000000000002
 50
0
  1
GT2 Timing Pulley
  0
LINE
  8
_0-0_
  6
CONTINUOUS
 62
    7
 10
185.3968353636763
 20
168.15100579746849
 11
185.3968353636763
 21
149.05100579746849
  0
LINE
  8
_0-1_ADD_LINE
  6
DASHED1
 62
    4
 10
186.92090659900595
 20
158.6010057974685
 11
237.14286753089232
 21
158.6010057974685
  0
LINE
  8
_0-1_ADD_LINE
  6
DASHED1
 62
    4
 10
224.59298869959105
 20
165.85586358413843
 11
224.59298869959105
 21
151.68844481458058
  0
CIRCLE
  8
_0-1_ADD_LINE
  6
DASHED1
 62
    7
 10
224.59298869959105
 20
158.6010057974685
 40
9.5500000000000007
  0
CIRCLE
  8
_0-0_
  6
CONTINUOUS
 62
    7
 10
224.59298869959105
 20
158.6010057974685
 40
2.5
  0
LINE
  8
_0-0_
  6
CONTINUOUS
 62
    7
 10
186.3968353636763
 20
168.15100579746849
 11
186.3968353636763
 21
149.05100579746849
  0
LINE
  8
_0-0_
  6
CONTINUOUS
 62
    7
 10
193.3968353636763
 20
168.15100579746849
 11
193.3968353636763
 21
149.05100579746849
  0
LINE
  8
_0-0_
  6
CONTINUOUS
 62
    7
 10
186.3968353636763
 20
168.15100579746849
 11
193.3968353636763
 21
168.15100579746849
  0
LINE
  8
_0-0_
  6
CONTINUOUS
 62
    7
 10
186.3968353636763
 20
149.05100579746849
 11
193.3968353636763
 21
149.05100579746849
  0
LINE
  8
_0-8_
  6
CONTINUOUS
 62
    4
 10
185.3968353636763
 20
187.62322606783499
 11
194.3968353636763
 21
187.62322606783499
  0
POINT
  8
_0-8_
 62
    4
 10
185.3968353636763
 20
187.62322606783499
  0
POINT
  8
_0-8_
 62
    4
 10
194.3968353636763
 20
187.62322606783499
  0
LINE
  8
_0-8_
  6
CONTINUOUS
 62
    4
 10
185.3968353636763
 20
187.62322606783499
 11
185.3968353636763
 21
173.58240820987845
  0
LINE
  8
_0-8_
  6
CONTINUOUS
 62
    4
 10
194.3968353636763
 20
187.62322606783499
 11
194.3968353636763
 21
173.58240820987845
  0
TEXT
  8
_0-8_
 62
    7
 10
189.2718353636763
 20
188.12322606783499
 40
2.5
 41
1
 50
0
  1
9
  0
LINE
  8
_0-8_
  6
CONTINUOUS
 62
    4
 10
185.3968353636763
 20
179.90710093868771
 11
186.3968353636763
 21
179.90710093868771
  0
POINT
  8
_0-8_
 62
    4
 10
185.3968353636763
 20
179.90710093868771
  0
POINT
  8
_0-8_
 62
    4
 10
186.3968353636763
 20
179.90710093868771
  0
LINE
  8
_0-8_
  6
CONTINUOUS
 62
    4
 10
185.3968353636763
 20
179.90710093868771
 11
185.3968353636763
 21
173.58240820987845
  0
LINE
  8
_0-8_
  6
CONTINUOUS
 62
    4
 10
186.3968353636763
 20
179.90710093868771
 11
186.3968353636763
 21
173.58240820987845
  0
TEXT
  8
_0-8_
 62
    7
 10
185.85422268506019
 20
180.27807624900709
 40
2.5
 41
1
 50
0
  1
1
  0
LINE
  8
_0-8_
  6
CONTINUOUS
 62
    4
 10
178.79550910650576
 20
161.1010057974685
 11
178.79550910650576
 21
156.1010057974685
  0
POINT
  8
_0-8_
 62
    4
 10
178.79550910650576
 20
161.1010057974685
  0
POINT
  8
_0-8_
 62
    4
 10
178.79550910650576
 20
156.1010057974685
  0
LINE
  8
_0-8_
  6
CONTINUOUS
 62
    4
 10
178.79550910650576
 20
161.1010057974685
 11
182.69489658125488
 21
161.1010057974685
  0
LINE
  8
_0-8_
  6
CONTINUOUS
 62
    4
 10
178.79550910650576
 20
156.1010057974685
 11
182.69489658125488
 21
156.1010057974685
  0
LINE
  8
_0-8_
  6
CONTINUOUS
 62
    4
 10
230.48745060471589
 20
160.60614890589326
 11
244.90850942397316
 21
175.02720772515056
  0
LINE
  8
_0-8_
  6
CONTINUOUS
 62
    4
 10
230.48745060471589
 20
160.60614890589326
 11
231.98745060471589
 21
163.20422511724658
  0
LINE
  8
_0-8_
  6
CONTINUOUS
 62
    4
 10
230.48745060471589
 20
160.60614890589326
 11
233.0855268160692
 21
162.10614890589326
  0
TEXT
  8
_0-8_
 62
    7
 10
245.48766841269838
 20
175.7221985116208
 40
3
 41
1
 50
0
  1
2×M3 Through
  0
LINE
  8
_0-8_
  6
CONTINUOUS
 62
    4
 10
244.90850942397316
 20
175.02720772515056
 11
266.17124861029868
 21
175.02720772515056
  0
LINE
  8
_0-8_
  6
CONTINUOUS
 62
    4
 10
189.54132932263272
 20
168.61282519339599
 11
174.89172337204391
 21
183.26243114398486
  0
LINE
  8
_0-8_
  6
CONTINUOUS
 62
    4
 10
189.54132932263272
 20
168.61282519339599
 11
188.04132932263272
 21
171.21090140474931
  0
LINE
  8
_0-8_
  6
CONTINUOUS
 62
    4
 10
189.54132932263272
 20
168.61282519339599
 11
186.94325311127946
 21
170.11282519339599
  0
TEXT
  8
_0-8_
 62
    7
 10
163.34381124072493
 20
183.48596633542633
 40
3
 41
1
 50
0
  1
GT2 30T
  0
LINE
  8
_0-8_
  6
CONTINUOUS
 62
    4
 10
161.27902787341162
 20
183.26243114398486
 11
174.89172337204391
 21
183.26243114398486
  0
TEXT
  8
_0-9_
 62
    7
 10
295.50854045063033
 20
53.534465812822333
 40
2.4872399341106455
 41
1.0294117919759813
 50
0
  1
Drawing number
  0
LINE
  8
_0-0_
  6
CONTINUOUS
 62
    7
 10
184.8968353636763
 20
151.1010057974685
 11
185.3968353636763
 21
151.1010057974685
  0
LINE
  8
_0-0_
  6
CONTINUOUS
 62
    7
 10
184.8968353636763
 20
166.1010057974685
 11
185.3968353636763
 21
166.1010057974685
  0
LINE
  8
_0-0_
  6
CONTINUOUS
 62
    7
 10
184.8968353636763
 20
166.1010057974685
 11
184.8968353636763
 21
151.1010057974685
  0
CIRCLE
  8
_0-0_
  6
CONTINUOUS
 62
    7
 10
224.59298869959105
 20
158.6010057974685
 40
12.5
  0
LINE
  8
_0-0_
  6
CONTINUOUS
 62
    7
 10
185.3968353636763
 20
146.1010057974685
 11
186.3968353636763
 21
146.1010057974685
  0
LINE
  8
_0-0_
  6
CONTINUOUS
 62
    7
 10
185.3968353636763
 20
171.1010057974685
 11
186.3968353636763
 21
171.1010057974685
  0
LINE
  8
_0-0_
  6
CONTINUOUS
 62
    7
 10
193.3968353636763
 20
146.1010057974685
 11
194.3968353636763
 21
146.1010057974685
  0
LINE
  8
_0-0_
  6
CONTINUOUS
 62
    7
 10
193.3968353636763
 20
171.1010057974685
 11
194.3968353636763
 21
171.1010057974685
  0
LINE
  8
_0-0_
  6
CONTINUOUS
 62
    7
 10
185.3968353636763
 20
168.15100579746849
 11
185.3968353636763
 21
171.1010057974685
  0
LINE
  8
_0-0_
  6
CONTINUOUS
 62
    7
 10
186.3968353636763
 20
171.1010057974685
 11
186.3968353636763
 21
168.15100579746849
  0
LINE
  8
_0-0_
  6
CONTINUOUS
 62
    7
 10
193.3968353636763
 20
171.1010057974685
 11
193.3968353636763
 21
168.15100579746849
  0
LINE
  8
_0-0_
  6
CONTINUOUS
 62
    7
 10
193.3968353636763
 20
149.05100579746849
 11
193.3968353636763
 21
146.1010057974685
  0
LINE
  8
_0-0_
  6
CONTINUOUS
 62
    7
 10
186.3968353636763
 20
149.05100579746849
 11
186.3968353636763
 21
146.1010057974685
  0
LINE
  8
_0-0_
  6
CONTINUOUS
 62
    7
 10
185.3968353636763
 20
149.05100579746849
 11
185.3968353636763
 21
146.1010057974685
  0
LINE
  8
_0-0_
  6
CONTINUOUS
 62
    7
 10
194.3968353636763
 20
171.1010057974685
 11
194.3968353636763
 21
146.1010057974685
  0
LINE
  8
_0-0_
  6
CONTINUOUS
 62
    4
 10
173.19524964075865
 20
171.1010057974685
 11
173.19524964075865
 21
146.1010057974685
  0
POINT
  8
_0-0_
 62
    4
 10
173.19524964075865
 20
171.1010057974685
  0
POINT
  8
_0-0_
 62
    4
 10
173.19524964075865
 20
146.1010057974685
  0
LINE
  8
_0-0_
  6
CONTINUOUS
 62
    4
 10
173.19524964075865
 20
171.1010057974685
 11
182.69489658125488
 21
171.1010057974685
  0
LINE
  8
_0-0_
  6
CONTINUOUS
 62
    4
 10
173.19524964075865
 20
146.1010057974685
 11
182.69489658125488
 21
146.1010057974685
  0
TEXT
  8
_0-0_
 62
    7
 10
172.69524964075865
 20
157.3510057974685
 40
2.5
 41
1
 50
90
  1
25
  0
LINE
  8
_0-0_
  6
CONTINUOUS
 62
    4
 10
212.09298869959105
 20
182.63742419639249
 11
237.09298869959105
 21
182.63742419639249
  0
POINT
  8
_0-0_
 62
    4
 10
212.09298869959105
 20
182.63742419639249
  0
POINT
  8
_0-0_
 62
    4
 10
237.09298869959105
 20
182.63742419639249
  0
LINE
  8
_0-0_
  6
CONTINUOUS
 62
    4
 10
212.09298869959105
 20
182.63742419639249
 11
212.09298869959105
 21
173.50516335165861
  0
LINE
  8
_0-0_
  6
CONTINUOUS
 62
    4
 10
237.09298869959105
 20
182.63742419639249
 11
237.09298869959105
 21
173.50516335165861
  0
TEXT
  8
_0-0_
 62
    7
 10
223.34298869959105
 20
183.13742419639249
 40
2.5
 41
1
 50
0
  1
25
  0
LINE
  8
_0-0_
  6
CONTINUOUS
 62
    7
 10
194.3968353636763
 20
164.1010057974685
 11
200.3968353636763
 21
164.1010057974685
  0
LINE
  8
_0-0_
  6
CONTINUOUS
 62
    7
 10
194.3968353636763
 20
153.1010057974685
 11
200.3968353636763
 21
153.1010057974685
  0
CIRCLE
  8
_0-1_ADD_LINE
  6
DASHED1
 62
    7
 10
224.59298869959105
 20
158.6010057974685
 40
5.5
  0
LINE
  8
_0-1_ADD_LINE
  6
CONTINUOUS
 62
    4
 10
223.09298869959105
 20
163.89250841959768
 11
223.09298869959105
 21
160.6010057974685
  0
LINE
  8
_0-1_ADD_LINE
  6
DASHED1
 62
    7
 10
223.59298869959105
 20
164.00933271066449
 11
223.59298869959105
 21
160.89229364494642
  0
LINE
  8
_0-1_ADD_LINE
  6
DASHED1
 62
    7
 10
225.59298869959105
 20
164.00933271066449
 11
225.59298869959105
 21
160.89229364494642
  0
LINE
  8
_0-1_ADD_LINE
  6
CONTINUOUS
 62
    4
 10
226.09298869959105
 20
163.89250841959768
 11
226.09298869959105
 21
160.6010057974685
  0
LINE
  8
_0-1_ADD_LINE
  6
CONTINUOUS
 62
    4
 10
229.88449132172022
 20
160.1010057974685
 11
226.59298869959105
 21
160.1010057974685
  0
LINE
  8
_0-1_ADD_LINE
  6
DASHED1
 62
    7
 10
230.00131561278704
 20
159.6010057974685
 11
226.88427654706896
 21
159.6010057974685
  0
LINE
  8
_0-1_ADD_LINE
  6
DASHED1
 62
    7
 10
230.00131561278704
 20
157.6010057974685
 11
226.88427654706896
 21
157.6010057974685
  0
LINE
  8
_0-1_ADD_LINE
  6
CONTINUOUS
 62
    4
 10
229.88449132172022
 20
157.1010057974685
 11
226.59298869959105
 21
157.1010057974685
  0
LINE
  8
_0-1_ADD_LINE
  6
CONTINUOUS
 62
    4
 10
195.8968353636763
 20
164.1010057974685
 11
195.8968353636763
 21
161.1010057974685
  0
LINE
  8
_0-1_ADD_LINE
  6
DASHED1
 62
    7
 10
196.3968353636763
 20
164.1010057974685
 11
196.3968353636763
 21
161.1010057974685
  0
LINE
  8
_0-1_ADD_LINE
  6
DASHED1
 62
    7
 10
198.3968353636763
 20
164.1010057974685
 11
198.3968353636763
 21
161.1010057974685
  0
LINE
  8
_0-1_ADD_LINE
  6
CONTINUOUS
 62
    4
 10
198.8968353636763
 20
164.1010057974685
 11
198.8968353636763
 21
161.1010057974685
  0
LINE
  8
_0-1_ADD_LINE
  6
DASHED1
 62
    4
 10
197.3968353636763
 20
165.99154985589755
 11
197.3968353636763
 21
157.28046019588658
  0
CIRCLE
  8
_0-1_ADD_LINE
  6
DASHED1
 62
    7
 10
197.3968353636763
 20
158.6010057974685
 40
1
  0
CIRCLE
  8
_0-1_ADD_LINE
  6
CONTINUOUS
 62
    4
 10
197.3968353636763
 20
158.6010057974685
 40
1.5
  0
LINE
  8
_0-1_ADD_LINE
  6
DASHED1
 62
    4
 10
189.8968353636763
 20
161.94789554283565
 11
189.8968353636763
 21
155.36536749619847
  0
LINE
  8
_0-8_
  6
CONTINUOUS
 62
    4
 10
205.88232842419725
 20
164.1010057974685
 11
205.88232842419725
 21
153.1010057974685
  0
POINT
  8
_0-8_
 62
    4
 10
205.88232842419725
 20
164.1010057974685
  0
POINT
  8
_0-8_
 62
    4
 10
205.88232842419725
 20
153.1010057974685
  0
LINE
  8
_0-8_
  6
CONTINUOUS
 62
    4
 10
205.88232842419725
 20
164.1010057974685
 11
201.82297014352631
 21
164.1010057974685
  0
LINE
  8
_0-8_
  6
CONTINUOUS
 62
    4
 10
205.88232842419725
 20
153.1010057974685
 11
201.82297014352631
 21
153.1010057974685
  0
TEXT
  8
_0-8_
 62
    7
 10
205.38232842419725
 20
157.3510057974685
 40
2.5
 41
1
 50
90
  1
11
  0
LINE
  8
_0-8_
  6
CONTINUOUS
 62
    4
 10
200.3968353636763
 20
174.71940721596346
 11
194.3968353636763
 21
174.71940721596346
  0
POINT
  8
_0-8_
 62
    4
 10
200.3968353636763
 20
174.71940721596346
  0
POINT
  8
_0-8_
 62
    4
 10
194.3968353636763
 20
174.71940721596346
  0
LINE
  8
_0-8_
  6
CONTINUOUS
 62
    4
 10
200.3968353636763
 20
174.71940721596346
 11
200.3968353636763
 21
165.46744477116872
  0
LINE
  8
_0-8_
  6
CONTINUOUS
 62
    4
 10
194.3968353636763
 20
174.71940721596346
 11
194.3968353636763
 21
165.46744477116872
  0
TEXT
  8
_0-8_
 62
    7
 10
196.7718353636763
 20
175.21940721596346
 40
2.5
 41
1
 50
0
  1
6
  0
LINE
  8
_0-8_
  6
CONTINUOUS
 62
    4
 10
200.3968353636763
 20
169.08149260116667
 11
197.3968353636763
 21
169.08149260116667
  0
POINT
  8
_0-8_
 62
    4
 10
200.3968353636763
 20
169.08149260116667
  0
POINT
  8
_0-8_
 62
    4
 10
197.3968353636763
 20
169.08149260116667
  0
LINE
  8
_0-8_
  6
CONTINUOUS
 62
    4
 10
200.3968353636763
 20
169.08149260116667
 11
200.3968353636763
 21
165.46744477116872
  0
LINE
  8
_0-8_
  6
CONTINUOUS
 62
    4
 10
197.3968353636763
 20
169.08149260116667
 11
197.3968353636763
 21
165.46744477116872
  0
TEXT
  8
_0-8_
 62
    7
 10
198.2718353636763
 20
169.58149260116667
 40
2.5
 41
1
 50
0
  1
3
  0
LINE
  8
_0-8_
  6
CONTINUOUS
 62
    4
 10
219.09298869959105
 20
138.8341249464288
 11
230.09298869959105
 21
138.8341249464288
  0
POINT
  8
_0-8_
 62
    4
 10
219.09298869959105
 20
138.8341249464288
  0
POINT
  8
_0-8_
 62
    4
 10
230.09298869959105
 20
138.8341249464288
  0
TEXT
  8
_0-8_
 62
    7
 10
223.34298869959105
 20
139.3341249464288
 40
2.5
 41
1
 50
0
  1
11
  0
LINE
  8
_0-8_
  6
CONTINUOUS
 62
    4
 10
219.09298869959105
 20
138.8341249464288
 11
219.09298869959105
 21
156.02420823033736
  0
LINE
  8
_0-8_
  6
CONTINUOUS
 62
    4
 10
230.09298869959105
 20
138.8341249464288
 11
230.09298869959105
 21
156.02420823033736
  0
LINE
  8
_0-1_ADD_LINE
  6
DASHED1
 62
    7
 10
184.8968353636763
 20
161.1010057974685
 11
200.3968353636763
 21
161.1010057974685
  0
LINE
  8
_0-1_ADD_LINE
  6
DASHED1
 62
    7
 10
184.8968353636763
 20
156.1010057974685
 11
200.3968353636763
 21
156.1010057974685
  0
LINE
  8
_0-0_
  6
CONTINUOUS
 62
    4
 10
194.3968353636763
 20
138.86854544699156
 11
184.8968353636763
 21
138.86854544699156
  0
POINT
  8
_0-0_
 62
    4
 10
194.3968353636763
 20
138.86854544699156
  0
POINT
  8
_0-0_
 62
    4
 10
184.8968353636763
 20
138.86854544699156
  0
LINE
  8
_0-0_
  6
CONTINUOUS
 62
    4
 10
194.3968353636763
 20
138.86854544699156
 11
194.3968353636763
 21
144.59953526298639
  0
LINE
  8
_0-0_
  6
CONTINUOUS
 62
    4
 10
184.8968353636763
 20
138.86854544699156
 11
184.8968353636763
 21
144.59953526298639
  0
TEXT
  8
_0-0_
 62
    7
 10
187.7718353636763
 20
139.36854544699156
 40
2.5
 41
1
 50
0
  1
9.5
  0
TEXT
  8
_0-9_
 62
    7
 10
221.48462358748006
 20
64.398659134198809
 40
2.2108800329446807
 41
0.9658018369754821
 50
0
  1
04/Aug/2016
  0
TEXT
  8
_0-9_
 62
    7
 10
301.54475966775078
 20
50.047942719104554
 40
2.1000000000000014
 41
0.9999999999999993
 50
0
  1
FLM_GT2 Timing Pulley 30T Bore_5mm_2016.08.04
  0
TEXT
  8
_0-8_
 62
    7
 10
178.31860845913576
 20
156.5118270397254
 40
2.5
 41
1
 50
90
  1
5
  0
TEXT
  8
_0-0_
 62
    7
 10
176.37283523598035
 20
158.78106660780432
 40
2
 41
1
 50
90
  1
+0.02
  0
TEXT
  8
_0-0_
 62
    7
 10
178.37283523598035
 20
159.72400537006843
 40
2
 41
1
 50
90
  1
0
  0
ENDSEC
  0
EOF
