  0
SECTION
  2
HEADER
  9
$ACADVER
  1
AC1009
  9
$INSBASE
 10
0
 20
0
 30
0
  9
$EXTMIN
 10
0
 20
0
  9
$EXTMAX
 10
420
 20
297
  9
$LIMMIN
 10
0
 20
0
  9
$LIMMAX
 10
420
 20
297
  9
$LTSCALE
 40
1
  0
ENDSEC
  0
SECTION
  2
TABLES
  0
TABLE
  2
LTYPE
 70
     9
  0
LTYPE
  2
CONTINUOUS
 70
    64
  3
実線
 72
    65
 73
     0
 40
0.0
  0
LTYPE
  2
DASHED1
 70
    64
  3
--  --  --  --  --  --  --  --  
 72
    65
 73
     2
 40
2.5
 49
1.25
 49
-1.25
  0
LTYPE
  2
DASHED2
 70
    64
  3
----    ----    ----    ----    
 72
    65
 73
     2
 40
5.0
 49
2.5
 49
-2.5
  0
LTYPE
  2
DASHED3
 70
    64
  3
------  ------  ------  ------  
 72
    65
 73
     2
 40
5.0
 49
3.75
 49
-1.25
  0
LTYPE
  2
CENTER1
 70
    64
  3
----- - ----- - ----- - ----- - 
 72
    65
 73
     4
 40
10.0
 49
6.25
 49
-1.25
 49
1.25
 49
-1.25
  0
LTYPE
  2
CENTER2
 70
    64
  3
----------  --  ----------  --  
 72
    65
 73
     4
 40
20.0
 49
12.5
 49
-2.5
 49
2.5
 49
-2.5
  0
LTYPE
  2
PHANTOM1
 70
    64
  3
--- - - --- - - --- - - --- - - 
 72
    65
 73
     6
 40
10.0
 49
3.25
 49
-1.25
 49
1.25
 49
-1.25
 49
1.25
 49
-1.25
  0
LTYPE
  2
PHANTOM2
 70
    64
  3
--------  -  -  --------  -  -  
 72
    65
 73
     6
 40
20.0
 49
10.0
 49
-2.5
 49
1.25
 49
-2.5
 49
1.25
 49
-2.5
  0
LTYPE
  2
DOT
 70
    64
  3
-   -   -   -   -   -   -   -   
 72
    65
 73
     2
 40
2.5
 49
0.625
 49
-1.875
  0
LTYPE
  2
DUMMY
 70
    64
  3
ダミー
 72
    65
 73
     0
 40
0.0
  0
LTYPE
  2
RAND1
 70
    64
  3
ランダム線1
 72
    65
 73
     4
 40
10.0
 49
1.0
 49
-2.0
 49
3.0
 49
-4.0
  0
LTYPE
  2
RAND2
 70
    64
  3
ランダム線2
 72
    65
 73
     4
 40
14.0
 49
2.0
 49
-3.0
 49
4.0
 49
-5.0
  0
LTYPE
  2
RAND3
 70
    64
  3
ランダム線3
 72
    65
 73
     4
 40
18.0
 49
3.0
 49
-4.0
 49
5.0
 49
-6.0
  0
LTYPE
  2
RAND4
 70
    64
  3
ランダム線4
 72
    65
 73
     4
 40
22.0
 49
4.0
 49
-5.0
 49
6.0
 49
-7.0
  0
LTYPE
  2
RAND5
 70
    64
  3
ランダム線5
 72
    65
 73
     4
 40
26.0
 49
5.0
 49
-6.0
 49
7.0
 49
-8.0
  0
LTYPE
  2
LONG1
 70
    64
  3
----------  --  ----------  --  
 72
    65
 73
     4
 40
40.0
 49
32.5
 49
-2.5
 49
2.5
 49
-2.5
  0
LTYPE
  2
LONG2
 70
    64
  3
--------  -  -  --------  -  -  
 72
    65
 73
     6
 40
40.0
 49
30.0
 49
-2.5
 49
1.25
 49
-2.5
 49
1.25
 49
-2.5
  0
LTYPE
  2
LONG3
 70
    64
  3
+++++++++++++++..+++++++++++++++
 72
    65
 73
     2
 40
40.0
 49
37.5
 49
-2.5
  0
LTYPE
  2
LONG4
 70
    64
  3
+++++++++++++++..+++++++++++++++
 72
    65
 73
     2
 40
80.0
 49
75.0
 49
-5.0
  0
LTYPE
  2
LONG5
 70
    64
  3
----------  --  ----------  --  
 72
    65
 73
     4
 40
60.0
 49
37.5
 49
-7.5
 49
7.5
 49
-7.5
  0
LTYPE
  2
dashed
 70
   64
  3
-------   -------------   ------
 72
   65
 73
    2
 40
7.5
 49
6
 49
-1.5
  0
LTYPE
  2
dashed_spaced
 70
   64
  3
----        --------        ----
 72
   65
 73
    2
 40
12
 49
6
 49
-6
  0
LTYPE
  2
long_dashed_dotted
 70
   64
  3
------------- --- --------------
 72
   65
 73
    4
 40
15.25
 49
12
 49
-1.5
 49
0.25
 49
-1.5
  0
LTYPE
  2
long_dashed_double-dotted
 70
   64
  3
----------- --- --- ------------
 72
   65
 73
    6
 40
17
 49
12
 49
-1.5
 49
0.25
 49
-1.5
 49
0.25
 49
-1.5
  0
LTYPE
  2
long_dashed_triplicate-dotted
 70
   64
  3
--------- --- --- --- ----------
 72
   65
 73
    8
 40
18.75
 49
12
 49
-1.5
 49
0.25
 49
-1.5
 49
0.25
 49
-1.5
 49
0.25
 49
-1.5
  0
LTYPE
  2
dotted
 70
   64
  3
   -       -       -       -    
 72
   65
 73
    2
 40
1.75
 49
0.25
 49
-1.5
  0
LTYPE
  2
chain
 70
   64
  3
-------------- -- --------------
 72
   65
 73
    4
 40
18.5
 49
12
 49
-1.5
 49
3.5
 49
-1.5
  0
LTYPE
  2
chain_double_dash
 70
   64
  3
------------ -- -- -------------
 72
   65
 73
    6
 40
23.5
 49
12
 49
-1.5
 49
3.5
 49
-1.5
 49
3.5
 49
-1.5
  0
LTYPE
  2
dashed_dotted
 70
   64
  3
-----------     -     ----------
 72
   65
 73
    4
 40
9.25
 49
6
 49
-1.5
 49
0.25
 49
-1.5
  0
LTYPE
  2
double-dashed_dotted
 70
   64
  3
------   -----------   -   -----
 72
   65
 73
    6
 40
16.75
 49
6
 49
-1.5
 49
6
 49
-1.5
 49
0.25
 49
-1.5
  0
LTYPE
  2
dashed_double-dotted
 70
   64
  3
---------    -    -    ---------
 72
   65
 73
    6
 40
11
 49
6
 49
-1.5
 49
0.25
 49
-1.5
 49
0.25
 49
-1.5
  0
LTYPE
  2
double-dashed_double-dotted
 70
   64
  3
-----   ---------   -   -   ----
 72
   65
 73
    8
 40
18.5
 49
6
 49
-1.5
 49
6
 49
-1.5
 49
0.25
 49
-1.5
 49
0.25
 49
-1.5
  0
LTYPE
  2
dashed_triplicate-dotted
 70
   64
  3
-------    -    -    -    ------
 72
   65
 73
    8
 40
12.75
 49
6
 49
-1.5
 49
0.25
 49
-1.5
 49
0.25
 49
-1.5
 49
0.25
 49
-1.5
  0
LTYPE
  2
double-dashed_triplicate-dotted
 70
   64
  3
-----  ---------  -  -  -  -----
 72
   65
 73
   10
 40
20.25
 49
6
 49
-1.5
 49
6
 49
-1.5
 49
0.25
 49
-1.5
 49
0.25
 49
-1.5
 49
0.25
 49
-1.5
  0
LTYPE
  2
undefined
 70
   64
  3
--------------------------------
 72
   65
 73
    0
 40
0
  0
LTYPE
  2
_
 70
   64
  3
                                
 72
   65
 73
    0
 40
0
  0
LTYPE
  2
__18
 70
   64
  3
                                
 72
   65
 73
    0
 40
0
  0
LTYPE
  2
__19
 70
   64
  3
                                
 72
   65
 73
    0
 40
0
  0
LTYPE
  2
__20
 70
   64
  3
                                
 72
   65
 73
    0
 40
0
  0
LTYPE
  2
__21
 70
   64
  3
                                
 72
   65
 73
    0
 40
0
  0
LTYPE
  2
__22
 70
   64
  3
                                
 72
   65
 73
    0
 40
0
  0
LTYPE
  2
__23
 70
   64
  3
                                
 72
   65
 73
    0
 40
0
  0
LTYPE
  2
__24
 70
   64
  3
                                
 72
   65
 73
    0
 40
0
  0
LTYPE
  2
__25
 70
   64
  3
                                
 72
   65
 73
    0
 40
0
  0
LTYPE
  2
__26
 70
   64
  3
                                
 72
   65
 73
    0
 40
0
  0
LTYPE
  2
__27
 70
   64
  3
                                
 72
   65
 73
    0
 40
0
  0
LTYPE
  2
__28
 70
   64
  3
                                
 72
   65
 73
    0
 40
0
  0
LTYPE
  2
__29
 70
   64
  3
                                
 72
   65
 73
    0
 40
0
  0
LTYPE
  2
__30
 70
   64
  3
                                
 72
   65
 73
    0
 40
0
  0
LTYPE
  2
__31
 70
   64
  3
                                
 72
   65
 73
    0
 40
0
  0
LTYPE
  2
__32
 70
   64
  3
                                
 72
   65
 73
    0
 40
0
  0
ENDTAB
  0
TABLE
  2
STYLE
  5
3
100
AcDbSymbolTable
 70
     1
  0
STYLE
  5
10
100
AcDbSymbolTableRecord
100
AcDbTextStyleTableRecord
  2
STANDARD
 70
     0
 40
0.0
 41
1.0
 50
0.0
 71
     0
 42
0.2
  3
txt
  4
bigfont.shx
  0
STYLE
  5
26
100
AcDbSymbolTableRecord
100
AcDbTextStyleTableRecord
  2
TATEGAKI
 70
    68
 40
0.0
 41
1.0
 50
0.0
 71
     0
 42
1.0
  3
txt
  4
bigfont.shx
  0
ENDTAB
  0
TABLE
  2
LAYER
 70
    3
  0
LAYER
  2
_0-0_
 70
   64
 62
    7
  6
CONTINUOUS
  0
LAYER
  2
_0-1_ADD_LINE
 70
   64
 62
    7
  6
CONTINUOUS
  0
LAYER
  2
ADD_LINE
 70
   64
 62
    7
  6
CONTINUOUS
  0
ENDTAB
  0
ENDSEC
  0
SECTION
  2
BLOCKS
  0
ENDSEC
  0
SECTION
  2
ENTITIES
  0
LINE
  8
_0-0_
  6
CONTINUOUS
 62
    7
 10
223.73061480789923
 20
149.30164506257762
 11
245.73061480789923
 21
149.30164506257762
  0
CIRCLE
  8
_0-0_
  6
CONTINUOUS
 62
    7
 10
234.7306148078992
 20
174.30164506257762
 40
2.6000000000000001
  0
LINE
  8
_0-0_
  6
CONTINUOUS
 62
    7
 10
214.97561480789923
 20
170.80164506257762
 11
214.97561480789923
 21
177.80164506257762
  0
LINE
  8
_0-0_
  6
CONTINUOUS
 62
    7
 10
212.47561480789923
 20
177.80164506257762
 11
212.47561480789923
 21
170.80164506257762
  0
LINE
  8
_0-0_
  6
CONTINUOUS
 62
    7
 10
256.9856148078992
 20
170.80164506257762
 11
256.9856148078992
 21
177.80164506257762
  0
LINE
  8
_0-0_
  6
CONTINUOUS
 62
    7
 10
254.48561480789922
 20
177.80164506257762
 11
254.48561480789922
 21
170.80164506257762
  0
LINE
  8
_0-0_
  6
CONTINUOUS
 62
    7
 10
212.47561480789923
 20
177.80164506257762
 11
209.73061480789923
 21
177.80164506257762
  0
LINE
  8
_0-0_
  6
CONTINUOUS
 62
    7
 10
212.47561480789923
 20
170.80164506257762
 11
209.73061480789923
 21
170.80164506257762
  0
LINE
  8
_0-0_
  6
CONTINUOUS
 62
    7
 10
256.9856148078992
 20
177.80164506257762
 11
259.7306148078992
 21
177.80164506257762
  0
LINE
  8
_0-0_
  6
CONTINUOUS
 62
    7
 10
256.9856148078992
 20
170.80164506257762
 11
259.7306148078992
 21
170.80164506257762
  0
LINE
  8
_0-0_
  6
CONTINUOUS
 62
    7
 10
209.73061480789923
 20
193.30164506257762
 11
209.73061480789923
 21
156.3727128744431
  0
LINE
  8
_0-0_
  6
CONTINUOUS
 62
    7
 10
215.73061480789923
 20
199.30164506257762
 11
215.90061480789922
 21
199.30164506257762
  0
ARC
  8
_0-0_
  6
CONTINUOUS
 62
    7
 10
215.73061480789923
 20
193.30164506257762
 40
6
 50
90
 51
180
  0
LINE
  8
_0-0_
  6
CONTINUOUS
 62
    7
 10
253.73061480789923
 20
199.30164506257762
 11
215.90061480789922
 21
199.30164506257762
  0
LINE
  8
_0-0_
  6
CONTINUOUS
 62
    7
 10
259.7306148078992
 20
193.30164506257762
 11
259.7306148078992
 21
156.3727128744431
  0
ARC
  8
_0-0_
  6
CONTINUOUS
 62
    7
 10
253.73061480789923
 20
193.30164506257762
 40
6
 50
0
 51
90
  0
LINE
  8
_0-1_ADD_LINE
  6
CONTINUOUS
 62
    7
 10
259.7306148078992
 20
155.30164506257762
 11
259.7306148078992
 21
193.1316450625776
  0
ARC
  8
_0-0_
  6
CONTINUOUS
 62
    7
 10
253.73061480789923
 20
155.30164506257762
 40
6
 50
270
 51
0
  0
LINE
  8
_0-1_ADD_LINE
  6
CONTINUOUS
 62
    7
 10
209.73061480789923
 20
155.30164506257762
 11
209.73061480789923
 21
193.1316450625776
  0
LINE
  8
_0-0_
  6
CONTINUOUS
 62
    7
 10
215.73061480789923
 20
149.30164506257762
 11
253.73061480789923
 21
149.30164506257762
  0
ARC
  8
_0-0_
  6
CONTINUOUS
 62
    7
 10
215.73061480789923
 20
155.30164506257762
 40
6
 50
180
 51
270
  0
CIRCLE
  8
_0-0_
  6
CONTINUOUS
 62
    7
 10
234.73061480789923
 20
158.20164506257763
 40
2.6000000000000001
  0
CIRCLE
  8
_0-0_
  6
CONTINUOUS
 62
    7
 10
219.73061480789923
 20
158.20164506257763
 40
2.5099999999999998
  0
CIRCLE
  8
_0-0_
  6
CONTINUOUS
 62
    7
 10
249.73061480789923
 20
158.20164506257763
 40
2.5099999999999998
  0
CIRCLE
  8
_0-0_
  6
CONTINUOUS
 62
    7
 10
234.7306148078992
 20
190.1016450625776
 40
5.75
  0
ARC
  8
_0-0_
  6
CONTINUOUS
 62
    7
 10
213.72561480789923
 20
177.80164506257762
 40
1.25
 50
0
 51
180
  0
ARC
  8
_0-0_
  6
CONTINUOUS
 62
    7
 10
213.72561480789923
 20
170.80164506257762
 40
1.25
 50
180
 51
0
  0
ARC
  8
_0-0_
  6
CONTINUOUS
 62
    7
 10
255.7356148078992
 20
177.80164506257762
 40
1.2499999999999858
 50
0
 51
180
  0
ARC
  8
_0-0_
  6
CONTINUOUS
 62
    7
 10
255.7356148078992
 20
170.80164506257762
 40
1.2499999999999858
 50
180
 51
0
  0
CIRCLE
  8
_0-1_ADD_LINE
  6
DASHED1
 62
    7
 10
234.73061480789923
 20
174.30164506257762
 40
6
  0
CIRCLE
  8
_0-1_ADD_LINE
  6
DASHED1
 62
    7
 10
234.73061480789923
 20
158.20164506257763
 40
6
  0
CIRCLE
  8
_0-0_
  6
CONTINUOUS
 62
    7
 10
234.7306148078992
 20
190.1016450625776
 40
3.6000000000000001
  0
ARC
  8
_0-0_
  6
CONTINUOUS
 62
    7
 10
224.63061480789924
 20
183.80164506257762
 40
0.7500000000000001
 50
0
 51
270
  0
LINE
  8
_0-0_
  6
CONTINUOUS
 62
    7
 10
225.38061480789924
 20
183.80164506257762
 11
244.08061480789922
 21
183.80164506257762
  0
ARC
  8
_0-0_
  6
CONTINUOUS
 62
    7
 10
244.83061480789922
 20
183.80164506257762
 40
0.7500000000000001
 50
270
 51
180
  0
LINE
  8
_0-0_
  6
CONTINUOUS
 62
    7
 10
223.4133447735633
 20
161.20164506257763
 11
224.63061480789924
 21
161.20164506257763
  0
LINE
  8
_0-0_
  6
CONTINUOUS
 62
    7
 10
223.4133447735633
 20
155.20164506257763
 11
224.63061480789924
 21
155.20164506257763
  0
LINE
  8
_0-0_
  6
CONTINUOUS
 62
    7
 10
224.63061480789924
 20
155.20164506257763
 11
224.63061480789924
 21
149.30164506257762
  0
LINE
  8
_0-0_
  6
CONTINUOUS
 62
    7
 10
224.63061480789924
 20
183.05164506257762
 11
224.63061480789924
 21
161.20164506257763
  0
ARC
  8
_0-0_
  6
CONTINUOUS
 62
    7
 10
219.73061480789923
 20
158.20164506257763
 40
4.75
 50
39.166710716120171
 51
320.83328928387982
  0
LINE
  8
_0-0_
  6
CONTINUOUS
 62
    7
 10
244.83061480789922
 20
161.20164506257763
 11
246.04788484223516
 21
161.20164506257763
  0
LINE
  8
_0-0_
  6
CONTINUOUS
 62
    7
 10
244.83061480789922
 20
183.05164506257762
 11
244.83061480789922
 21
161.20164506257763
  0
LINE
  8
_0-0_
  6
CONTINUOUS
 62
    7
 10
244.83061480789922
 20
155.20164506257763
 11
244.83061480789922
 21
149.30164506257762
  0
LINE
  8
_0-0_
  6
CONTINUOUS
 62
    7
 10
244.83061480789922
 20
155.20164506257763
 11
246.04788484223516
 21
155.20164506257763
  0
ARC
  8
_0-0_
  6
CONTINUOUS
 62
    7
 10
249.73061480789923
 20
158.20164506257763
 40
4.75
 50
219.16671071612015
 51
140.83328928387979
  0
ENDSEC
  0
EOF
