  0
SECTION
  2
HEADER
  9
$ACADVER
  1
AC1009
  9
$INSBASE
 10
0
 20
0
 30
0
  9
$EXTMIN
 10
0
 20
0
  9
$EXTMAX
 10
420
 20
297
  9
$LIMMIN
 10
0
 20
0
  9
$LIMMAX
 10
420
 20
297
  9
$LTSCALE
 40
1
  0
ENDSEC
  0
SECTION
  2
TABLES
  0
TABLE
  2
LTYPE
 70
     9
  0
LTYPE
  2
CONTINUOUS
 70
    64
  3
実線
 72
    65
 73
     0
 40
0.0
  0
LTYPE
  2
DASHED1
 70
    64
  3
--  --  --  --  --  --  --  --  
 72
    65
 73
     2
 40
2.5
 49
1.25
 49
-1.25
  0
LTYPE
  2
DASHED2
 70
    64
  3
----    ----    ----    ----    
 72
    65
 73
     2
 40
5.0
 49
2.5
 49
-2.5
  0
LTYPE
  2
DASHED3
 70
    64
  3
------  ------  ------  ------  
 72
    65
 73
     2
 40
5.0
 49
3.75
 49
-1.25
  0
LTYPE
  2
CENTER1
 70
    64
  3
----- - ----- - ----- - ----- - 
 72
    65
 73
     4
 40
10.0
 49
6.25
 49
-1.25
 49
1.25
 49
-1.25
  0
LTYPE
  2
CENTER2
 70
    64
  3
----------  --  ----------  --  
 72
    65
 73
     4
 40
20.0
 49
12.5
 49
-2.5
 49
2.5
 49
-2.5
  0
LTYPE
  2
PHANTOM1
 70
    64
  3
--- - - --- - - --- - - --- - - 
 72
    65
 73
     6
 40
10.0
 49
3.25
 49
-1.25
 49
1.25
 49
-1.25
 49
1.25
 49
-1.25
  0
LTYPE
  2
PHANTOM2
 70
    64
  3
--------  -  -  --------  -  -  
 72
    65
 73
     6
 40
20.0
 49
10.0
 49
-2.5
 49
1.25
 49
-2.5
 49
1.25
 49
-2.5
  0
LTYPE
  2
DOT
 70
    64
  3
-   -   -   -   -   -   -   -   
 72
    65
 73
     2
 40
2.5
 49
0.625
 49
-1.875
  0
LTYPE
  2
DUMMY
 70
    64
  3
ダミー
 72
    65
 73
     0
 40
0.0
  0
LTYPE
  2
RAND1
 70
    64
  3
ランダム線1
 72
    65
 73
     4
 40
10.0
 49
1.0
 49
-2.0
 49
3.0
 49
-4.0
  0
LTYPE
  2
RAND2
 70
    64
  3
ランダム線2
 72
    65
 73
     4
 40
14.0
 49
2.0
 49
-3.0
 49
4.0
 49
-5.0
  0
LTYPE
  2
RAND3
 70
    64
  3
ランダム線3
 72
    65
 73
     4
 40
18.0
 49
3.0
 49
-4.0
 49
5.0
 49
-6.0
  0
LTYPE
  2
RAND4
 70
    64
  3
ランダム線4
 72
    65
 73
     4
 40
22.0
 49
4.0
 49
-5.0
 49
6.0
 49
-7.0
  0
LTYPE
  2
RAND5
 70
    64
  3
ランダム線5
 72
    65
 73
     4
 40
26.0
 49
5.0
 49
-6.0
 49
7.0
 49
-8.0
  0
LTYPE
  2
LONG1
 70
    64
  3
----------  --  ----------  --  
 72
    65
 73
     4
 40
40.0
 49
32.5
 49
-2.5
 49
2.5
 49
-2.5
  0
LTYPE
  2
LONG2
 70
    64
  3
--------  -  -  --------  -  -  
 72
    65
 73
     6
 40
40.0
 49
30.0
 49
-2.5
 49
1.25
 49
-2.5
 49
1.25
 49
-2.5
  0
LTYPE
  2
LONG3
 70
    64
  3
+++++++++++++++..+++++++++++++++
 72
    65
 73
     2
 40
40.0
 49
37.5
 49
-2.5
  0
LTYPE
  2
LONG4
 70
    64
  3
+++++++++++++++..+++++++++++++++
 72
    65
 73
     2
 40
80.0
 49
75.0
 49
-5.0
  0
LTYPE
  2
LONG5
 70
    64
  3
----------  --  ----------  --  
 72
    65
 73
     4
 40
60.0
 49
37.5
 49
-7.5
 49
7.5
 49
-7.5
  0
LTYPE
  2
dashed
 70
   64
  3
-------   -------------   ------
 72
   65
 73
    2
 40
7.5
 49
6
 49
-1.5
  0
LTYPE
  2
dashed_spaced
 70
   64
  3
----        --------        ----
 72
   65
 73
    2
 40
12
 49
6
 49
-6
  0
LTYPE
  2
long_dashed_dotted
 70
   64
  3
------------- --- --------------
 72
   65
 73
    4
 40
15.25
 49
12
 49
-1.5
 49
0.25
 49
-1.5
  0
LTYPE
  2
long_dashed_double-dotted
 70
   64
  3
----------- --- --- ------------
 72
   65
 73
    6
 40
17
 49
12
 49
-1.5
 49
0.25
 49
-1.5
 49
0.25
 49
-1.5
  0
LTYPE
  2
long_dashed_triplicate-dotted
 70
   64
  3
--------- --- --- --- ----------
 72
   65
 73
    8
 40
18.75
 49
12
 49
-1.5
 49
0.25
 49
-1.5
 49
0.25
 49
-1.5
 49
0.25
 49
-1.5
  0
LTYPE
  2
dotted
 70
   64
  3
   -       -       -       -    
 72
   65
 73
    2
 40
1.75
 49
0.25
 49
-1.5
  0
LTYPE
  2
chain
 70
   64
  3
-------------- -- --------------
 72
   65
 73
    4
 40
18.5
 49
12
 49
-1.5
 49
3.5
 49
-1.5
  0
LTYPE
  2
chain_double_dash
 70
   64
  3
------------ -- -- -------------
 72
   65
 73
    6
 40
23.5
 49
12
 49
-1.5
 49
3.5
 49
-1.5
 49
3.5
 49
-1.5
  0
LTYPE
  2
dashed_dotted
 70
   64
  3
-----------     -     ----------
 72
   65
 73
    4
 40
9.25
 49
6
 49
-1.5
 49
0.25
 49
-1.5
  0
LTYPE
  2
double-dashed_dotted
 70
   64
  3
------   -----------   -   -----
 72
   65
 73
    6
 40
16.75
 49
6
 49
-1.5
 49
6
 49
-1.5
 49
0.25
 49
-1.5
  0
LTYPE
  2
dashed_double-dotted
 70
   64
  3
---------    -    -    ---------
 72
   65
 73
    6
 40
11
 49
6
 49
-1.5
 49
0.25
 49
-1.5
 49
0.25
 49
-1.5
  0
LTYPE
  2
double-dashed_double-dotted
 70
   64
  3
-----   ---------   -   -   ----
 72
   65
 73
    8
 40
18.5
 49
6
 49
-1.5
 49
6
 49
-1.5
 49
0.25
 49
-1.5
 49
0.25
 49
-1.5
  0
LTYPE
  2
dashed_triplicate-dotted
 70
   64
  3
-------    -    -    -    ------
 72
   65
 73
    8
 40
12.75
 49
6
 49
-1.5
 49
0.25
 49
-1.5
 49
0.25
 49
-1.5
 49
0.25
 49
-1.5
  0
LTYPE
  2
double-dashed_triplicate-dotted
 70
   64
  3
-----  ---------  -  -  -  -----
 72
   65
 73
   10
 40
20.25
 49
6
 49
-1.5
 49
6
 49
-1.5
 49
0.25
 49
-1.5
 49
0.25
 49
-1.5
 49
0.25
 49
-1.5
  0
LTYPE
  2
undefined
 70
   64
  3
--------------------------------
 72
   65
 73
    0
 40
0
  0
LTYPE
  2
_
 70
   64
  3
                                
 72
   65
 73
    0
 40
0
  0
LTYPE
  2
__18
 70
   64
  3
                                
 72
   65
 73
    0
 40
0
  0
LTYPE
  2
__19
 70
   64
  3
                                
 72
   65
 73
    0
 40
0
  0
LTYPE
  2
__20
 70
   64
  3
                                
 72
   65
 73
    0
 40
0
  0
LTYPE
  2
__21
 70
   64
  3
                                
 72
   65
 73
    0
 40
0
  0
LTYPE
  2
__22
 70
   64
  3
                                
 72
   65
 73
    0
 40
0
  0
LTYPE
  2
__23
 70
   64
  3
                                
 72
   65
 73
    0
 40
0
  0
LTYPE
  2
__24
 70
   64
  3
                                
 72
   65
 73
    0
 40
0
  0
LTYPE
  2
__25
 70
   64
  3
                                
 72
   65
 73
    0
 40
0
  0
LTYPE
  2
__26
 70
   64
  3
                                
 72
   65
 73
    0
 40
0
  0
LTYPE
  2
__27
 70
   64
  3
                                
 72
   65
 73
    0
 40
0
  0
LTYPE
  2
__28
 70
   64
  3
                                
 72
   65
 73
    0
 40
0
  0
LTYPE
  2
__29
 70
   64
  3
                                
 72
   65
 73
    0
 40
0
  0
LTYPE
  2
__30
 70
   64
  3
                                
 72
   65
 73
    0
 40
0
  0
LTYPE
  2
__31
 70
   64
  3
                                
 72
   65
 73
    0
 40
0
  0
LTYPE
  2
__32
 70
   64
  3
                                
 72
   65
 73
    0
 40
0
  0
ENDTAB
  0
TABLE
  2
STYLE
  5
3
100
AcDbSymbolTable
 70
     1
  0
STYLE
  5
10
100
AcDbSymbolTableRecord
100
AcDbTextStyleTableRecord
  2
STANDARD
 70
     0
 40
0.0
 41
1.0
 50
0.0
 71
     0
 42
0.2
  3
txt
  4
bigfont.shx
  0
STYLE
  5
26
100
AcDbSymbolTableRecord
100
AcDbTextStyleTableRecord
  2
TATEGAKI
 70
    68
 40
0.0
 41
1.0
 50
0.0
 71
     0
 42
1.0
  3
txt
  4
bigfont.shx
  0
ENDTAB
  0
TABLE
  2
LAYER
 70
    3
  0
LAYER
  2
_0-0_
 70
   64
 62
    7
  6
CONTINUOUS
  0
LAYER
  2
_0-1_ADD_LINE
 70
   64
 62
    7
  6
CONTINUOUS
  0
LAYER
  2
ADD_LINE
 70
   64
 62
    7
  6
CONTINUOUS
  0
ENDTAB
  0
ENDSEC
  0
SECTION
  2
BLOCKS
  0
ENDSEC
  0
SECTION
  2
ENTITIES
  0
LINE
  8
_0-1_ADD_LINE
  6
DASHED1
 62
    4
 10
201.29340193655622
 20
174.30164506257762
 11
212.82598333701117
 21
174.30164506257762
  0
LINE
  8
_0-1_ADD_LINE
  6
DASHED1
 62
    4
 10
206.94051872339031
 20
180.60593929249998
 11
206.94051872339031
 21
167.76907785270788
  0
LINE
  8
_0-1_ADD_LINE
  6
DASHED1
 62
    4
 10
243.30340193655621
 20
174.30164506257762
 11
254.83598333701116
 21
174.30164506257762
  0
LINE
  8
_0-1_ADD_LINE
  6
DASHED1
 62
    4
 10
248.9505187233903
 20
180.60593929249998
 11
248.9505187233903
 21
167.76907785270788
  0
CIRCLE
  8
_0-0_
  6
CONTINUOUS
 62
    7
 10
227.94551872339025
 20
174.30164506257762
 40
2.6000000000000001
  0
LINE
  8
_0-0_
  6
CONTINUOUS
 62
    7
 10
208.19051872339031
 20
170.80164506257762
 11
208.19051872339031
 21
177.80164506257762
  0
LINE
  8
_0-0_
  6
CONTINUOUS
 62
    7
 10
205.69051872339031
 20
177.80164506257762
 11
205.69051872339031
 21
170.80164506257762
  0
LINE
  8
_0-0_
  6
CONTINUOUS
 62
    7
 10
250.2005187233903
 20
170.80164506257762
 11
250.2005187233903
 21
177.80164506257762
  0
LINE
  8
_0-0_
  6
CONTINUOUS
 62
    7
 10
247.7005187233903
 20
177.80164506257762
 11
247.7005187233903
 21
170.80164506257762
  0
LINE
  8
_0-0_
  6
CONTINUOUS
 62
    7
 10
205.69051872339031
 20
177.80164506257762
 11
202.94551872339031
 21
177.80164506257762
  0
LINE
  8
_0-0_
  6
CONTINUOUS
 62
    7
 10
205.69051872339031
 20
170.80164506257762
 11
202.94551872339031
 21
170.80164506257762
  0
LINE
  8
_0-0_
  6
CONTINUOUS
 62
    7
 10
250.2005187233903
 20
177.80164506257762
 11
252.94551872339031
 21
177.80164506257762
  0
LINE
  8
_0-0_
  6
CONTINUOUS
 62
    7
 10
250.2005187233903
 20
170.80164506257762
 11
252.94551872339031
 21
170.80164506257762
  0
LINE
  8
_0-1_ADD_LINE
  6
DASHED1
 62
    4
 10
227.94551872339031
 20
181.51305310571547
 11
227.94551872339031
 21
147.81251199383129
  0
LINE
  8
_0-0_
  6
CONTINUOUS
 62
    7
 10
202.94551872339031
 20
193.30164506257762
 11
202.94551872339031
 21
156.3727128744431
  0
ARC
  8
_0-0_
  6
CONTINUOUS
 62
    7
 10
208.94551872339031
 20
193.30164506257762
 40
6
 50
90
 51
180
  0
LINE
  8
_0-0_
  6
CONTINUOUS
 62
    7
 10
252.94551872339031
 20
193.30164506257762
 11
252.94551872339031
 21
156.3727128744431
  0
ARC
  8
_0-0_
  6
CONTINUOUS
 62
    7
 10
246.94551872339031
 20
193.30164506257762
 40
6
 50
0
 51
90
  0
LINE
  8
_0-1_ADD_LINE
  6
CONTINUOUS
 62
    7
 10
252.94551872339031
 20
155.30164506257762
 11
252.94551872339031
 21
193.1316450625776
  0
ARC
  8
_0-0_
  6
CONTINUOUS
 62
    7
 10
246.94551872339031
 20
155.30164506257762
 40
6
 50
270
 51
0
  0
LINE
  8
_0-1_ADD_LINE
  6
CONTINUOUS
 62
    7
 10
202.94551872339031
 20
155.30164506257762
 11
202.94551872339031
 21
193.1316450625776
  0
LINE
  8
_0-0_
  6
CONTINUOUS
 62
    7
 10
208.94551872339031
 20
149.30164506257762
 11
246.94551872339031
 21
149.30164506257762
  0
ARC
  8
_0-0_
  6
CONTINUOUS
 62
    7
 10
208.94551872339031
 20
155.30164506257762
 40
6
 50
180
 51
270
  0
LINE
  8
_0-1_ADD_LINE
  6
DASHED1
 62
    4
 10
227.94551872339025
 20
190.1016450625776
 11
227.94551872339025
 21
195.75320765366254
  0
LINE
  8
_0-1_ADD_LINE
  6
DASHED1
 62
    4
 10
227.94551872339025
 20
190.1016450625776
 11
227.94551872339025
 21
185.11475909004287
  0
LINE
  8
_0-1_ADD_LINE
  6
DASHED1
 62
    4
 10
223.92526516067676
 20
174.30164506257762
 11
231.93421434397749
 21
174.30164506257762
  0
LINE
  8
_0-1_ADD_LINE
  6
DASHED1
 62
    4
 10
212.94551872339031
 20
158.20164506257763
 11
207.83020135708898
 21
158.20164506257763
  0
LINE
  8
_0-1_ADD_LINE
  6
DASHED1
 62
    4
 10
212.94551872339031
 20
158.20164506257763
 11
212.94551872339031
 21
147.3625119938313
  0
LINE
  8
_0-1_ADD_LINE
  6
DASHED1
 62
    4
 10
212.94551872339031
 20
158.20164506257763
 11
212.94551872339031
 21
166.54324331420213
  0
CIRCLE
  8
_0-0_
  6
CONTINUOUS
 62
    7
 10
227.94551872339031
 20
158.20164506257763
 40
2.6000000000000001
  0
LINE
  8
_0-1_ADD_LINE
  6
DASHED1
 62
    4
 10
242.94551872339031
 20
158.20164506257763
 11
242.94551872339031
 21
147.3625119938313
  0
LINE
  8
_0-1_ADD_LINE
  6
DASHED1
 62
    4
 10
242.94551872339031
 20
158.20164506257763
 11
242.94551872339031
 21
168.93414844977346
  0
CIRCLE
  8
_0-0_
  6
CONTINUOUS
 62
    7
 10
212.94551872339031
 20
158.20164506257763
 40
2.5099999999999998
  0
CIRCLE
  8
_0-0_
  6
CONTINUOUS
 62
    7
 10
242.94551872339031
 20
158.20164506257763
 40
2.5099999999999998
  0
CIRCLE
  8
_0-0_
  6
CONTINUOUS
 62
    7
 10
227.94551872339025
 20
190.1016450625776
 40
5.75
  0
LINE
  8
_0-1_ADD_LINE
  6
DASHED1
 62
    4
 10
221.95718684584705
 20
190.1016450625776
 11
234.87961297802269
 21
190.1016450625776
  0
LINE
  8
_0-1_ADD_LINE
  6
DASHED1
 62
    4
 10
212.94551872339031
 20
158.20164506257763
 11
250.06532316802105
 21
158.20164506257763
  0
LINE
  8
_0-0_
  6
CONTINUOUS
 62
    7
 10
246.94551872339031
 20
199.30164506257762
 11
237.94551872339031
 21
199.30164506257762
  0
LINE
  8
_0-0_
  6
CONTINUOUS
 62
    7
 10
217.94551872339025
 20
199.30164506257762
 11
209.11551872339027
 21
199.30164506257762
  0
ARC
  8
_0-0_
  6
CONTINUOUS
 62
    7
 10
248.9505187233903
 20
177.80164506257762
 40
1.25
 50
0
 51
180
  0
ARC
  8
_0-0_
  6
CONTINUOUS
 62
    7
 10
248.9505187233903
 20
170.80164506257762
 40
1.25
 50
180
 51
0
  0
ARC
  8
_0-0_
  6
CONTINUOUS
 62
    7
 10
206.94051872339031
 20
177.80164506257762
 40
1.25
 50
0
 51
180
  0
ARC
  8
_0-0_
  6
CONTINUOUS
 62
    7
 10
206.94051872339031
 20
170.80164506257762
 40
1.25
 50
180
 51
0
  0
CIRCLE
  8
_0-1_ADD_LINE
  6
DASHED1
 62
    7
 10
227.94551872339031
 20
204.9516450625776
 40
4.75
  0
CIRCLE
  8
_0-1_ADD_LINE
  6
DASHED1
 62
    7
 10
227.94551872339031
 20
174.30164506257762
 40
6
  0
CIRCLE
  8
_0-1_ADD_LINE
  6
DASHED1
 62
    7
 10
227.94551872339031
 20
158.20164506257763
 40
6
  0
CIRCLE
  8
_0-0_
  6
CONTINUOUS
 62
    7
 10
227.94551872339025
 20
190.1016450625776
 40
3.6000000000000001
  0
ARC
  8
_0-0_
  6
CONTINUOUS
 62
    7
 10
217.84551872339031
 20
183.80164506257762
 40
0.5
 50
0
 51
270
  0
LINE
  8
_0-0_
  6
CONTINUOUS
 62
    7
 10
218.34551872339031
 20
183.80164506257762
 11
237.5455187233903
 21
183.80164506257762
  0
ARC
  8
_0-0_
  6
CONTINUOUS
 62
    7
 10
238.0455187233903
 20
183.80164506257762
 40
0.5
 50
270
 51
180
  0
LINE
  8
_0-0_
  6
CONTINUOUS
 62
    7
 10
217.94551872339025
 20
209.9516450625776
 11
217.94551872339025
 21
199.30164506257756
  0
ARC
  8
_0-0_
  6
CONTINUOUS
 62
    7
 10
222.94551872339031
 20
209.9516450625776
 40
5
 50
90
 51
180
  0
LINE
  8
_0-0_
  6
CONTINUOUS
 62
    7
 10
232.94551872339025
 20
214.9516450625776
 11
222.94551872339031
 21
214.9516450625776
  0
LINE
  8
_0-0_
  6
CONTINUOUS
 62
    7
 10
237.94551872339031
 20
209.9516450625776
 11
237.94551872339031
 21
199.30164506257756
  0
ARC
  8
_0-0_
  6
CONTINUOUS
 62
    7
 10
232.94551872339025
 20
209.9516450625776
 40
5
 50
0
 51
90
  0
CIRCLE
  8
_0-0_
  6
CONTINUOUS
 62
    7
 10
227.94551872339031
 20
204.9516450625776
 40
2.5499999999999998
  0
CIRCLE
  8
_0-1_ADD_LINE
  6
DASHED1
 62
    7
 10
121.51992912667474
 20
190.1016450625776
 40
5.75
  0
ARC
  8
_0-0_
  6
CONTINUOUS
 62
    7
 10
212.94551872339031
 20
158.20164506257763
 40
4.75
 50
39.166710716120171
 51
320.83328928387982
  0
LINE
  8
_0-0_
  6
CONTINUOUS
 62
    7
 10
216.62824868905437
 20
155.20164506257763
 11
217.84551872339031
 21
155.20164506257763
  0
LINE
  8
_0-0_
  6
CONTINUOUS
 62
    7
 10
216.62824868905437
 20
161.20164506257763
 11
217.84551872339031
 21
161.20164506257763
  0
LINE
  8
_0-0_
  6
CONTINUOUS
 62
    7
 10
217.84551872339031
 20
161.20164506257763
 11
217.84551872339031
 21
183.30164506257762
  0
LINE
  8
_0-0_
  6
CONTINUOUS
 62
    7
 10
217.84551872339031
 20
149.30164506257762
 11
217.84551872339031
 21
155.20164506257763
  0
LINE
  8
_0-0_
  6
CONTINUOUS
 62
    7
 10
238.0455187233903
 20
161.20164506257763
 11
238.0455187233903
 21
183.30164506257762
  0
LINE
  8
_0-0_
  6
CONTINUOUS
 62
    7
 10
238.0455187233903
 20
149.30164506257762
 11
238.0455187233903
 21
155.20164506257763
  0
ARC
  8
_0-0_
  6
CONTINUOUS
 62
    7
 10
242.94551872339031
 20
158.20164506257763
 40
4.75
 50
219.16671071612015
 51
140.83328928387985
  0
LINE
  8
_0-0_
  6
CONTINUOUS
 62
    7
 10
238.0455187233903
 20
161.20164506257763
 11
239.26278875772624
 21
161.20164506257763
  0
LINE
  8
_0-0_
  6
CONTINUOUS
 62
    7
 10
238.0455187233903
 20
155.20164506257763
 11
239.26278875772624
 21
155.20164506257763
  0
ARC
  8
_0-1_ADD_LINE
  6
DASHED1
 62
    7
 10
111.41992912667477
 20
183.80164506257762
 40
0.7500000000000001
 50
0
 51
270
  0
LINE
  8
_0-1_ADD_LINE
  6
DASHED1
 62
    7
 10
112.16992912667477
 20
183.80164506257762
 11
130.86992912667478
 21
183.80164506257762
  0
ARC
  8
_0-1_ADD_LINE
  6
DASHED1
 62
    7
 10
131.61992912667478
 20
183.80164506257762
 40
0.7500000000000001
 50
270
 51
180
  0
LINE
  8
_0-1_ADD_LINE
  6
DASHED1
 62
    7
 10
111.41992912667477
 20
149.30164506257762
 11
111.41992912667477
 21
155.20164506257763
  0
LINE
  8
_0-1_ADD_LINE
  6
DASHED1
 62
    7
 10
111.41992912667477
 20
161.20164506257763
 11
111.41992912667477
 21
183.05164506257762
  0
LINE
  8
_0-1_ADD_LINE
  6
DASHED1
 62
    7
 10
110.20265909233882
 20
155.20164506257763
 11
111.41992912667477
 21
155.20164506257763
  0
ARC
  8
_0-1_ADD_LINE
  6
DASHED1
 62
    7
 10
106.51992912667477
 20
158.20164506257763
 40
4.75
 50
39.166710716120264
 51
320.83328928387971
  0
LINE
  8
_0-1_ADD_LINE
  6
DASHED1
 62
    7
 10
110.20265909233882
 20
161.20164506257763
 11
111.41992912667477
 21
161.20164506257763
  0
LINE
  8
_0-1_ADD_LINE
  6
DASHED1
 62
    7
 10
131.61992912667478
 20
161.20164506257763
 11
131.61992912667478
 21
183.05164506257762
  0
LINE
  8
_0-1_ADD_LINE
  6
DASHED1
 62
    7
 10
131.61992912667478
 20
161.20164506257763
 11
132.83719916101069
 21
161.20164506257763
  0
LINE
  8
_0-1_ADD_LINE
  6
DASHED1
 62
    7
 10
131.61992912667478
 20
149.30164506257762
 11
131.61992912667478
 21
155.20164506257763
  0
ARC
  8
_0-1_ADD_LINE
  6
DASHED1
 62
    7
 10
136.51992912667475
 20
158.20164506257763
 40
4.75
 50
219.16671071612026
 51
140.83328928387968
  0
LINE
  8
_0-1_ADD_LINE
  6
DASHED1
 62
    7
 10
131.61992912667478
 20
155.20164506257763
 11
132.83719916101069
 21
155.20164506257763
  0
ENDSEC
  0
EOF
