  0
SECTION
  2
HEADER
  9
$ACADVER
  1
AC1009
  9
$INSBASE
 10
0
 20
0
 30
0
  9
$EXTMIN
 10
0
 20
0
  9
$EXTMAX
 10
420
 20
297
  9
$LIMMIN
 10
0
 20
0
  9
$LIMMAX
 10
420
 20
297
  9
$LTSCALE
 40
1
  0
ENDSEC
  0
SECTION
  2
TABLES
  0
TABLE
  2
LTYPE
 70
     9
  0
LTYPE
  2
CONTINUOUS
 70
    64
  3
実線
 72
    65
 73
     0
 40
0.0
  0
LTYPE
  2
DASHED1
 70
    64
  3
--  --  --  --  --  --  --  --  
 72
    65
 73
     2
 40
2.5
 49
1.25
 49
-1.25
  0
LTYPE
  2
DASHED2
 70
    64
  3
----    ----    ----    ----    
 72
    65
 73
     2
 40
5.0
 49
2.5
 49
-2.5
  0
LTYPE
  2
DASHED3
 70
    64
  3
------  ------  ------  ------  
 72
    65
 73
     2
 40
5.0
 49
3.75
 49
-1.25
  0
LTYPE
  2
CENTER1
 70
    64
  3
----- - ----- - ----- - ----- - 
 72
    65
 73
     4
 40
10.0
 49
6.25
 49
-1.25
 49
1.25
 49
-1.25
  0
LTYPE
  2
CENTER2
 70
    64
  3
----------  --  ----------  --  
 72
    65
 73
     4
 40
20.0
 49
12.5
 49
-2.5
 49
2.5
 49
-2.5
  0
LTYPE
  2
PHANTOM1
 70
    64
  3
--- - - --- - - --- - - --- - - 
 72
    65
 73
     6
 40
10.0
 49
3.25
 49
-1.25
 49
1.25
 49
-1.25
 49
1.25
 49
-1.25
  0
LTYPE
  2
PHANTOM2
 70
    64
  3
--------  -  -  --------  -  -  
 72
    65
 73
     6
 40
20.0
 49
10.0
 49
-2.5
 49
1.25
 49
-2.5
 49
1.25
 49
-2.5
  0
LTYPE
  2
DOT
 70
    64
  3
-   -   -   -   -   -   -   -   
 72
    65
 73
     2
 40
2.5
 49
0.625
 49
-1.875
  0
LTYPE
  2
DUMMY
 70
    64
  3
ダミー
 72
    65
 73
     0
 40
0.0
  0
LTYPE
  2
RAND1
 70
    64
  3
ランダム線1
 72
    65
 73
     4
 40
10.0
 49
1.0
 49
-2.0
 49
3.0
 49
-4.0
  0
LTYPE
  2
RAND2
 70
    64
  3
ランダム線2
 72
    65
 73
     4
 40
14.0
 49
2.0
 49
-3.0
 49
4.0
 49
-5.0
  0
LTYPE
  2
RAND3
 70
    64
  3
ランダム線3
 72
    65
 73
     4
 40
18.0
 49
3.0
 49
-4.0
 49
5.0
 49
-6.0
  0
LTYPE
  2
RAND4
 70
    64
  3
ランダム線4
 72
    65
 73
     4
 40
22.0
 49
4.0
 49
-5.0
 49
6.0
 49
-7.0
  0
LTYPE
  2
RAND5
 70
    64
  3
ランダム線5
 72
    65
 73
     4
 40
26.0
 49
5.0
 49
-6.0
 49
7.0
 49
-8.0
  0
LTYPE
  2
LONG1
 70
    64
  3
----------  --  ----------  --  
 72
    65
 73
     4
 40
40.0
 49
32.5
 49
-2.5
 49
2.5
 49
-2.5
  0
LTYPE
  2
LONG2
 70
    64
  3
--------  -  -  --------  -  -  
 72
    65
 73
     6
 40
40.0
 49
30.0
 49
-2.5
 49
1.25
 49
-2.5
 49
1.25
 49
-2.5
  0
LTYPE
  2
LONG3
 70
    64
  3
+++++++++++++++..+++++++++++++++
 72
    65
 73
     2
 40
40.0
 49
37.5
 49
-2.5
  0
LTYPE
  2
LONG4
 70
    64
  3
+++++++++++++++..+++++++++++++++
 72
    65
 73
     2
 40
80.0
 49
75.0
 49
-5.0
  0
LTYPE
  2
LONG5
 70
    64
  3
----------  --  ----------  --  
 72
    65
 73
     4
 40
60.0
 49
37.5
 49
-7.5
 49
7.5
 49
-7.5
  0
LTYPE
  2
dashed
 70
   64
  3
-------   -------------   ------
 72
   65
 73
    2
 40
7.5
 49
6
 49
-1.5
  0
LTYPE
  2
dashed_spaced
 70
   64
  3
----        --------        ----
 72
   65
 73
    2
 40
12
 49
6
 49
-6
  0
LTYPE
  2
long_dashed_dotted
 70
   64
  3
------------- --- --------------
 72
   65
 73
    4
 40
15.25
 49
12
 49
-1.5
 49
0.25
 49
-1.5
  0
LTYPE
  2
long_dashed_double-dotted
 70
   64
  3
----------- --- --- ------------
 72
   65
 73
    6
 40
17
 49
12
 49
-1.5
 49
0.25
 49
-1.5
 49
0.25
 49
-1.5
  0
LTYPE
  2
long_dashed_triplicate-dotted
 70
   64
  3
--------- --- --- --- ----------
 72
   65
 73
    8
 40
18.75
 49
12
 49
-1.5
 49
0.25
 49
-1.5
 49
0.25
 49
-1.5
 49
0.25
 49
-1.5
  0
LTYPE
  2
dotted
 70
   64
  3
   -       -       -       -    
 72
   65
 73
    2
 40
1.75
 49
0.25
 49
-1.5
  0
LTYPE
  2
chain
 70
   64
  3
-------------- -- --------------
 72
   65
 73
    4
 40
18.5
 49
12
 49
-1.5
 49
3.5
 49
-1.5
  0
LTYPE
  2
chain_double_dash
 70
   64
  3
------------ -- -- -------------
 72
   65
 73
    6
 40
23.5
 49
12
 49
-1.5
 49
3.5
 49
-1.5
 49
3.5
 49
-1.5
  0
LTYPE
  2
dashed_dotted
 70
   64
  3
-----------     -     ----------
 72
   65
 73
    4
 40
9.25
 49
6
 49
-1.5
 49
0.25
 49
-1.5
  0
LTYPE
  2
double-dashed_dotted
 70
   64
  3
------   -----------   -   -----
 72
   65
 73
    6
 40
16.75
 49
6
 49
-1.5
 49
6
 49
-1.5
 49
0.25
 49
-1.5
  0
LTYPE
  2
dashed_double-dotted
 70
   64
  3
---------    -    -    ---------
 72
   65
 73
    6
 40
11
 49
6
 49
-1.5
 49
0.25
 49
-1.5
 49
0.25
 49
-1.5
  0
LTYPE
  2
double-dashed_double-dotted
 70
   64
  3
-----   ---------   -   -   ----
 72
   65
 73
    8
 40
18.5
 49
6
 49
-1.5
 49
6
 49
-1.5
 49
0.25
 49
-1.5
 49
0.25
 49
-1.5
  0
LTYPE
  2
dashed_triplicate-dotted
 70
   64
  3
-------    -    -    -    ------
 72
   65
 73
    8
 40
12.75
 49
6
 49
-1.5
 49
0.25
 49
-1.5
 49
0.25
 49
-1.5
 49
0.25
 49
-1.5
  0
LTYPE
  2
double-dashed_triplicate-dotted
 70
   64
  3
-----  ---------  -  -  -  -----
 72
   65
 73
   10
 40
20.25
 49
6
 49
-1.5
 49
6
 49
-1.5
 49
0.25
 49
-1.5
 49
0.25
 49
-1.5
 49
0.25
 49
-1.5
  0
LTYPE
  2
undefined
 70
   64
  3
--------------------------------
 72
   65
 73
    0
 40
0
  0
LTYPE
  2
_
 70
   64
  3
                                
 72
   65
 73
    0
 40
0
  0
LTYPE
  2
__18
 70
   64
  3
                                
 72
   65
 73
    0
 40
0
  0
LTYPE
  2
__19
 70
   64
  3
                                
 72
   65
 73
    0
 40
0
  0
LTYPE
  2
__20
 70
   64
  3
                                
 72
   65
 73
    0
 40
0
  0
LTYPE
  2
__21
 70
   64
  3
                                
 72
   65
 73
    0
 40
0
  0
LTYPE
  2
__22
 70
   64
  3
                                
 72
   65
 73
    0
 40
0
  0
LTYPE
  2
__23
 70
   64
  3
                                
 72
   65
 73
    0
 40
0
  0
LTYPE
  2
__24
 70
   64
  3
                                
 72
   65
 73
    0
 40
0
  0
LTYPE
  2
__25
 70
   64
  3
                                
 72
   65
 73
    0
 40
0
  0
LTYPE
  2
__26
 70
   64
  3
                                
 72
   65
 73
    0
 40
0
  0
LTYPE
  2
__27
 70
   64
  3
                                
 72
   65
 73
    0
 40
0
  0
LTYPE
  2
__28
 70
   64
  3
                                
 72
   65
 73
    0
 40
0
  0
LTYPE
  2
__29
 70
   64
  3
                                
 72
   65
 73
    0
 40
0
  0
LTYPE
  2
__30
 70
   64
  3
                                
 72
   65
 73
    0
 40
0
  0
LTYPE
  2
__31
 70
   64
  3
                                
 72
   65
 73
    0
 40
0
  0
LTYPE
  2
__32
 70
   64
  3
                                
 72
   65
 73
    0
 40
0
  0
ENDTAB
  0
TABLE
  2
STYLE
  5
3
100
AcDbSymbolTable
 70
     1
  0
STYLE
  5
10
100
AcDbSymbolTableRecord
100
AcDbTextStyleTableRecord
  2
STANDARD
 70
     0
 40
0.0
 41
1.0
 50
0.0
 71
     0
 42
0.2
  3
txt
  4
bigfont.shx
  0
STYLE
  5
26
100
AcDbSymbolTableRecord
100
AcDbTextStyleTableRecord
  2
TATEGAKI
 70
    68
 40
0.0
 41
1.0
 50
0.0
 71
     0
 42
1.0
  3
txt
  4
bigfont.shx
  0
ENDTAB
  0
TABLE
  2
LAYER
 70
    2
  0
LAYER
  2
_0-0_
 70
   64
 62
    7
  6
CONTINUOUS
  0
LAYER
  2
ADD_LINE
 70
   64
 62
    7
  6
CONTINUOUS
  0
ENDTAB
  0
ENDSEC
  0
SECTION
  2
BLOCKS
  0
ENDSEC
  0
SECTION
  2
ENTITIES
  0
ARC
  8
_0-0_
  6
CONTINUOUS
 62
    7
 10
161.40322664783218
 20
229.03285021026721
 40
1.55
 50
314.99999999999994
 51
135.00000000000017
  0
CIRCLE
  8
_0-0_
  6
CONTINUOUS
 62
    7
 10
146.40322664783218
 20
213.53285021026721
 40
12.5
  0
LINE
  8
_0-0_
  6
CONTINUOUS
 62
    7
 10
129.30721113699303
 20
199.12886572110637
 11
131.80721113699303
 21
201.62886572110637
  0
LINE
  8
_0-0_
  6
CONTINUOUS
 62
    7
 10
131.49924215867134
 20
196.93683469942806
 11
133.99924215867134
 21
199.43683469942806
  0
ARC
  8
_0-0_
  6
CONTINUOUS
 62
    7
 10
132.90322664783218
 20
200.53285021026721
 40
1.55
 50
315.00000000000011
 51
134.99999999999989
  0
ARC
  8
_0-0_
  6
CONTINUOUS
 62
    7
 10
130.40322664783218
 20
198.03285021026721
 40
1.55
 50
134.99999999999994
 51
315.00000000000017
  0
LINE
  8
_0-0_
  6
CONTINUOUS
 62
    7
 10
131.80721113699303
 20
225.43683469942806
 11
129.30721113699303
 21
227.93683469942806
  0
LINE
  8
_0-0_
  6
CONTINUOUS
 62
    7
 10
133.99924215867134
 20
227.62886572110637
 11
131.49924215867134
 21
230.12886572110637
  0
ARC
  8
_0-0_
  6
CONTINUOUS
 62
    7
 10
130.40322664783218
 20
229.03285021026721
 40
1.55
 50
45.000000000000121
 51
224.99999999999994
  0
ARC
  8
_0-0_
  6
CONTINUOUS
 62
    7
 10
132.90322664783218
 20
226.53285021026721
 40
1.55
 50
224.99999999999994
 51
45.000000000000178
  0
LINE
  8
_0-0_
  6
CONTINUOUS
 62
    7
 10
160.30721113699303
 20
196.93683469942806
 11
157.80721113699303
 21
199.43683469942806
  0
LINE
  8
_0-0_
  6
CONTINUOUS
 62
    7
 10
162.49924215867131
 20
199.12886572110637
 11
159.99924215867131
 21
201.62886572110637
  0
ARC
  8
_0-0_
  6
CONTINUOUS
 62
    7
 10
158.90322664783218
 20
200.53285021026721
 40
1.55
 50
45.000000000000121
 51
224.99999999999994
  0
ARC
  8
_0-0_
  6
CONTINUOUS
 62
    7
 10
161.40322664783218
 20
198.03285021026721
 40
1.55
 50
224.99999999999994
 51
45.000000000000178
  0
LINE
  8
_0-0_
  6
CONTINUOUS
 62
    7
 10
162.49924215867131
 20
227.93683469942806
 11
159.99924215867131
 21
225.43683469942806
  0
LINE
  8
_0-0_
  6
CONTINUOUS
 62
    7
 10
160.30721113699303
 20
230.12886572110637
 11
157.80721113699303
 21
227.62886572110637
  0
ARC
  8
_0-0_
  6
CONTINUOUS
 62
    7
 10
158.90322664783218
 20
226.53285021026721
 40
1.55
 50
135.00000000000011
 51
314.99999999999994
  0
CIRCLE
  8
_0-0_
  6
CONTINUOUS
 62
    7
 10
178.45322664783217
 20
223.53285021026721
 40
2.5499999999999998
  0
CIRCLE
  8
_0-0_
  6
CONTINUOUS
 62
    7
 10
178.45322664783217
 20
213.53285021026721
 40
2.5499999999999998
  0
CIRCLE
  8
_0-0_
  6
CONTINUOUS
 62
    7
 10
178.45322664783217
 20
203.53285021026721
 40
2.5499999999999998
  0
LINE
  8
_0-0_
  6
CONTINUOUS
 62
    7
 10
124.65322664783218
 20
233.28285021026721
 11
124.65322664783218
 21
193.78285021026718
  0
LINE
  8
_0-0_
  6
CONTINUOUS
 62
    7
 10
116.08540399106059
 20
170.24295092689556
 11
124.65322664783218
 21
193.78285021026718
  0
ARC
  8
_0-0_
  6
CONTINUOUS
 62
    7
 10
120.78386709499013
 20
168.53285021026721
 40
5
 50
159.99999999999997
 51
270
  0
LINE
  8
_0-0_
  6
CONTINUOUS
 62
    7
 10
139.84055247416055
 20
166.82274949363887
 11
149.65322664783218
 21
193.78285021026721
  0
ARC
  8
_0-0_
  6
CONTINUOUS
 62
    7
 10
135.14208937023102
 20
168.53285021026721
 40
5
 50
270
 51
340
  0
LINE
  8
_0-0_
  6
CONTINUOUS
 62
    7
 10
116.08540399106062
 20
256.82274949363887
 11
124.65322664783218
 21
233.28285021026721
  0
ARC
  8
_0-0_
  6
CONTINUOUS
 62
    7
 10
120.78386709499016
 20
258.53285021026721
 40
5
 50
90
 51
199.99999999999997
  0
LINE
  8
_0-0_
  6
CONTINUOUS
 62
    7
 10
135.14208937023102
 20
263.53285021026721
 11
120.78386709499016
 21
263.53285021026721
  0
LINE
  8
_0-0_
  6
CONTINUOUS
 62
    7
 10
139.84055247416057
 20
260.24295092689556
 11
149.65322664783221
 21
233.28285021026721
  0
ARC
  8
_0-0_
  6
CONTINUOUS
 62
    7
 10
135.14208937023102
 20
258.53285021026721
 40
5
 50
19.999999999999979
 51
90.000000000000014
  0
LINE
  8
_0-0_
  6
CONTINUOUS
 62
    7
 10
120.78386709499013
 20
163.53285021026721
 11
135.14208937023102
 21
163.53285021026721
  0
CIRCLE
  8
_0-0_
  6
CONTINUOUS
 62
    7
 10
130.88386709499014
 20
173.53285021026721
 40
2
  0
CIRCLE
  8
_0-0_
  6
CONTINUOUS
 62
    4
 10
130.88386709499014
 20
173.53285021026721
 40
2.5
  0
CIRCLE
  8
_0-0_
  6
CONTINUOUS
 62
    7
 10
126.13386709499012
 20
176.53285021026721
 40
0.7500000000000001
  0
CIRCLE
  8
_0-0_
  6
CONTINUOUS
 62
    7
 10
135.63386709499014
 20
176.53285021026721
 40
0.7500000000000001
  0
CIRCLE
  8
_0-0_
  6
CONTINUOUS
 62
    4
 10
126.13386709499012
 20
176.53285021026721
 40
1
  0
CIRCLE
  8
_0-0_
  6
CONTINUOUS
 62
    4
 10
135.63386709499014
 20
176.53285021026721
 40
1
  0
CIRCLE
  8
_0-0_
  6
CONTINUOUS
 62
    7
 10
195.45322664783217
 20
223.53285021026721
 40
2.5499999999999998
  0
CIRCLE
  8
_0-0_
  6
CONTINUOUS
 62
    7
 10
195.45322664783217
 20
213.53285021026721
 40
2.5499999999999998
  0
CIRCLE
  8
_0-0_
  6
CONTINUOUS
 62
    7
 10
195.45322664783217
 20
203.53285021026721
 40
2.5499999999999998
  0
CIRCLE
  8
_0-0_
  6
CONTINUOUS
 62
    7
 10
208.45322664783217
 20
224.78285021026721
 40
0.7500000000000001
  0
CIRCLE
  8
_0-0_
  6
CONTINUOUS
 62
    7
 10
208.45322664783217
 20
215.28285021026721
 40
0.7500000000000001
  0
CIRCLE
  8
_0-0_
  6
CONTINUOUS
 62
    4
 10
208.45322664783217
 20
224.78285021026721
 40
1
  0
CIRCLE
  8
_0-0_
  6
CONTINUOUS
 62
    4
 10
208.45322664783217
 20
215.28285021026721
 40
1
  0
LINE
  8
_0-0_
  6
CONTINUOUS
 62
    7
 10
212.45322664783217
 20
233.28285021026721
 11
149.65322664783221
 21
233.28285021026721
  0
ARC
  8
_0-0_
  6
CONTINUOUS
 62
    7
 10
212.45322664783217
 20
230.28285021026721
 40
3
 50
0
 51
90
  0
LINE
  8
_0-0_
  6
CONTINUOUS
 62
    7
 10
215.45322664783217
 20
196.78285021026721
 11
215.45322664783217
 21
230.28285021026721
  0
LINE
  8
_0-0_
  6
CONTINUOUS
 62
    7
 10
212.45322664783217
 20
193.78285021026721
 11
149.65322664783218
 21
193.78285021026721
  0
ARC
  8
_0-0_
  6
CONTINUOUS
 62
    7
 10
212.45322664783217
 20
196.78285021026721
 40
3
 50
270
 51
0
  0
LINE
  8
_0-0_
  6
CONTINUOUS
 62
    1
 10
171.65322664783218
 20
223.53285021026721
 11
171.65322664783218
 21
203.53285021026721
  0
ENDSEC
  0
EOF
