  0
SECTION
  2
HEADER
  9
$ACADVER
  1
AC1009
  9
$INSBASE
 10
0
 20
0
 30
0
  9
$EXTMIN
 10
0
 20
0
  9
$EXTMAX
 10
840
 20
594
  9
$LIMMIN
 10
0
 20
0
  9
$LIMMAX
 10
840
 20
594
  9
$LTSCALE
 40
2
  0
ENDSEC
  0
SECTION
  2
TABLES
  0
TABLE
  2
LTYPE
 70
     9
  0
LTYPE
  2
CONTINUOUS
 70
    64
  3
実線
 72
    65
 73
     0
 40
0.0
  0
LTYPE
  2
DASHED1
 70
    64
  3
--  --  --  --  --  --  --  --  
 72
    65
 73
     2
 40
2.5
 49
1.25
 49
-1.25
  0
LTYPE
  2
DASHED2
 70
    64
  3
----    ----    ----    ----    
 72
    65
 73
     2
 40
5.0
 49
2.5
 49
-2.5
  0
LTYPE
  2
DASHED3
 70
    64
  3
------  ------  ------  ------  
 72
    65
 73
     2
 40
5.0
 49
3.75
 49
-1.25
  0
LTYPE
  2
CENTER1
 70
    64
  3
----- - ----- - ----- - ----- - 
 72
    65
 73
     4
 40
10.0
 49
6.25
 49
-1.25
 49
1.25
 49
-1.25
  0
LTYPE
  2
CENTER2
 70
    64
  3
----------  --  ----------  --  
 72
    65
 73
     4
 40
20.0
 49
12.5
 49
-2.5
 49
2.5
 49
-2.5
  0
LTYPE
  2
PHANTOM1
 70
    64
  3
--- - - --- - - --- - - --- - - 
 72
    65
 73
     6
 40
10.0
 49
3.25
 49
-1.25
 49
1.25
 49
-1.25
 49
1.25
 49
-1.25
  0
LTYPE
  2
PHANTOM2
 70
    64
  3
--------  -  -  --------  -  -  
 72
    65
 73
     6
 40
20.0
 49
10.0
 49
-2.5
 49
1.25
 49
-2.5
 49
1.25
 49
-2.5
  0
LTYPE
  2
DOT
 70
    64
  3
-   -   -   -   -   -   -   -   
 72
    65
 73
     2
 40
2.5
 49
0.625
 49
-1.875
  0
LTYPE
  2
DUMMY
 70
    64
  3
ダミー
 72
    65
 73
     0
 40
0.0
  0
LTYPE
  2
RAND1
 70
    64
  3
ランダム線1
 72
    65
 73
     4
 40
10.0
 49
1.0
 49
-2.0
 49
3.0
 49
-4.0
  0
LTYPE
  2
RAND2
 70
    64
  3
ランダム線2
 72
    65
 73
     4
 40
14.0
 49
2.0
 49
-3.0
 49
4.0
 49
-5.0
  0
LTYPE
  2
RAND3
 70
    64
  3
ランダム線3
 72
    65
 73
     4
 40
18.0
 49
3.0
 49
-4.0
 49
5.0
 49
-6.0
  0
LTYPE
  2
RAND4
 70
    64
  3
ランダム線4
 72
    65
 73
     4
 40
22.0
 49
4.0
 49
-5.0
 49
6.0
 49
-7.0
  0
LTYPE
  2
RAND5
 70
    64
  3
ランダム線5
 72
    65
 73
     4
 40
26.0
 49
5.0
 49
-6.0
 49
7.0
 49
-8.0
  0
LTYPE
  2
LONG1
 70
    64
  3
----------  --  ----------  --  
 72
    65
 73
     4
 40
40.0
 49
32.5
 49
-2.5
 49
2.5
 49
-2.5
  0
LTYPE
  2
LONG2
 70
    64
  3
--------  -  -  --------  -  -  
 72
    65
 73
     6
 40
40.0
 49
30.0
 49
-2.5
 49
1.25
 49
-2.5
 49
1.25
 49
-2.5
  0
LTYPE
  2
LONG3
 70
    64
  3
+++++++++++++++..+++++++++++++++
 72
    65
 73
     2
 40
40.0
 49
37.5
 49
-2.5
  0
LTYPE
  2
LONG4
 70
    64
  3
+++++++++++++++..+++++++++++++++
 72
    65
 73
     2
 40
80.0
 49
75.0
 49
-5.0
  0
LTYPE
  2
LONG5
 70
    64
  3
----------  --  ----------  --  
 72
    65
 73
     4
 40
60.0
 49
37.5
 49
-7.5
 49
7.5
 49
-7.5
  0
LTYPE
  2
dashed
 70
   64
  3
-------   -------------   ------
 72
   65
 73
    2
 40
7.5
 49
6
 49
-1.5
  0
LTYPE
  2
dashed_spaced
 70
   64
  3
----        --------        ----
 72
   65
 73
    2
 40
12
 49
6
 49
-6
  0
LTYPE
  2
long_dashed_dotted
 70
   64
  3
------------- --- --------------
 72
   65
 73
    4
 40
15.25
 49
12
 49
-1.5
 49
0.25
 49
-1.5
  0
LTYPE
  2
long_dashed_double-dotted
 70
   64
  3
----------- --- --- ------------
 72
   65
 73
    6
 40
17
 49
12
 49
-1.5
 49
0.25
 49
-1.5
 49
0.25
 49
-1.5
  0
LTYPE
  2
long_dashed_triplicate-dotted
 70
   64
  3
--------- --- --- --- ----------
 72
   65
 73
    8
 40
18.75
 49
12
 49
-1.5
 49
0.25
 49
-1.5
 49
0.25
 49
-1.5
 49
0.25
 49
-1.5
  0
LTYPE
  2
dotted
 70
   64
  3
   -       -       -       -    
 72
   65
 73
    2
 40
1.75
 49
0.25
 49
-1.5
  0
LTYPE
  2
chain
 70
   64
  3
-------------- -- --------------
 72
   65
 73
    4
 40
18.5
 49
12
 49
-1.5
 49
3.5
 49
-1.5
  0
LTYPE
  2
chain_double_dash
 70
   64
  3
------------ -- -- -------------
 72
   65
 73
    6
 40
23.5
 49
12
 49
-1.5
 49
3.5
 49
-1.5
 49
3.5
 49
-1.5
  0
LTYPE
  2
dashed_dotted
 70
   64
  3
-----------     -     ----------
 72
   65
 73
    4
 40
9.25
 49
6
 49
-1.5
 49
0.25
 49
-1.5
  0
LTYPE
  2
double-dashed_dotted
 70
   64
  3
------   -----------   -   -----
 72
   65
 73
    6
 40
16.75
 49
6
 49
-1.5
 49
6
 49
-1.5
 49
0.25
 49
-1.5
  0
LTYPE
  2
dashed_double-dotted
 70
   64
  3
---------    -    -    ---------
 72
   65
 73
    6
 40
11
 49
6
 49
-1.5
 49
0.25
 49
-1.5
 49
0.25
 49
-1.5
  0
LTYPE
  2
double-dashed_double-dotted
 70
   64
  3
-----   ---------   -   -   ----
 72
   65
 73
    8
 40
18.5
 49
6
 49
-1.5
 49
6
 49
-1.5
 49
0.25
 49
-1.5
 49
0.25
 49
-1.5
  0
LTYPE
  2
dashed_triplicate-dotted
 70
   64
  3
-------    -    -    -    ------
 72
   65
 73
    8
 40
12.75
 49
6
 49
-1.5
 49
0.25
 49
-1.5
 49
0.25
 49
-1.5
 49
0.25
 49
-1.5
  0
LTYPE
  2
double-dashed_triplicate-dotted
 70
   64
  3
-----  ---------  -  -  -  -----
 72
   65
 73
   10
 40
20.25
 49
6
 49
-1.5
 49
6
 49
-1.5
 49
0.25
 49
-1.5
 49
0.25
 49
-1.5
 49
0.25
 49
-1.5
  0
LTYPE
  2
undefined
 70
   64
  3
--------------------------------
 72
   65
 73
    0
 40
0
  0
LTYPE
  2
_
 70
   64
  3
                                
 72
   65
 73
    0
 40
0
  0
LTYPE
  2
__18
 70
   64
  3
                                
 72
   65
 73
    0
 40
0
  0
LTYPE
  2
__19
 70
   64
  3
                                
 72
   65
 73
    0
 40
0
  0
LTYPE
  2
__20
 70
   64
  3
                                
 72
   65
 73
    0
 40
0
  0
LTYPE
  2
__21
 70
   64
  3
                                
 72
   65
 73
    0
 40
0
  0
LTYPE
  2
__22
 70
   64
  3
                                
 72
   65
 73
    0
 40
0
  0
LTYPE
  2
__23
 70
   64
  3
                                
 72
   65
 73
    0
 40
0
  0
LTYPE
  2
__24
 70
   64
  3
                                
 72
   65
 73
    0
 40
0
  0
LTYPE
  2
__25
 70
   64
  3
                                
 72
   65
 73
    0
 40
0
  0
LTYPE
  2
__26
 70
   64
  3
                                
 72
   65
 73
    0
 40
0
  0
LTYPE
  2
__27
 70
   64
  3
                                
 72
   65
 73
    0
 40
0
  0
LTYPE
  2
__28
 70
   64
  3
                                
 72
   65
 73
    0
 40
0
  0
LTYPE
  2
__29
 70
   64
  3
                                
 72
   65
 73
    0
 40
0
  0
LTYPE
  2
__30
 70
   64
  3
                                
 72
   65
 73
    0
 40
0
  0
LTYPE
  2
__31
 70
   64
  3
                                
 72
   65
 73
    0
 40
0
  0
LTYPE
  2
__32
 70
   64
  3
                                
 72
   65
 73
    0
 40
0
  0
ENDTAB
  0
TABLE
  2
STYLE
  5
3
100
AcDbSymbolTable
 70
     1
  0
STYLE
  5
10
100
AcDbSymbolTableRecord
100
AcDbTextStyleTableRecord
  2
STANDARD
 70
     0
 40
0.0
 41
1.0
 50
0.0
 71
     0
 42
0.2
  3
txt
  4
bigfont.shx
  0
STYLE
  5
26
100
AcDbSymbolTableRecord
100
AcDbTextStyleTableRecord
  2
TATEGAKI
 70
    68
 40
0.0
 41
1.0
 50
0.0
 71
     0
 42
1.0
  3
txt
  4
bigfont.shx
  0
ENDTAB
  0
TABLE
  2
LAYER
 70
    5
  0
LAYER
  2
_0-0_
 70
   64
 62
    7
  6
CONTINUOUS
  0
LAYER
  2
_0-1_ADD_LINE
 70
   64
 62
    7
  6
CONTINUOUS
  0
LAYER
  2
_0-8_
 70
   64
 62
    7
  6
CONTINUOUS
  0
LAYER
  2
_0-9_
 70
   64
 62
    7
  6
CONTINUOUS
  0
LAYER
  2
ADD_LINE
 70
   64
 62
    7
  6
CONTINUOUS
  0
ENDTAB
  0
ENDSEC
  0
SECTION
  2
BLOCKS
  0
ENDSEC
  0
SECTION
  2
ENTITIES
  0
LINE
  8
_0-0_
  6
CONTINUOUS
 62
    7
 10
252.58906707210895
 20
275.69141577155852
 11
252.58906707210895
 21
364.69141577155852
  0
LINE
  8
_0-0_
  6
CONTINUOUS
 62
    7
 10
296.58906707210895
 20
364.69141577155852
 11
252.58906707210895
 21
364.69141577155852
  0
LINE
  8
_0-0_
  6
CONTINUOUS
 62
    7
 10
492.58906707210895
 20
364.69141577155852
 11
448.58906707210895
 21
364.69141577155852
  0
LINE
  8
_0-0_
  6
CONTINUOUS
 62
    7
 10
492.58906707210895
 20
275.69141577155852
 11
492.58906707210895
 21
364.69141577155852
  0
LINE
  8
_0-0_
  6
CONTINUOUS
 62
    7
 10
350.58906707210895
 20
364.69141577155852
 11
350.58906707210895
 21
274.69141577155852
  0
LINE
  8
_0-0_
  6
CONTINUOUS
 62
    7
 10
350.58906707210895
 20
364.69141577155852
 11
362.58906707210895
 21
364.69141577155852
  0
LINE
  8
_0-0_
  6
CONTINUOUS
 62
    7
 10
382.58906707210895
 20
364.69141577155852
 11
394.58906707210895
 21
364.69141577155852
  0
LINE
  8
_0-0_
  6
CONTINUOUS
 62
    7
 10
394.58906707210895
 20
274.69141577155852
 11
394.58906707210895
 21
364.69141577155852
  0
LINE
  8
_0-0_
  6
CONTINUOUS
 62
    7
 10
350.58906707210895
 20
274.69141577155852
 11
394.58906707210895
 21
274.69141577155852
  0
LINE
  8
_0-1_ADD_LINE
  6
DASHED1
 62
    4
 10
372.58906707210895
 20
365.27495941805915
 11
372.58906707210895
 21
282.28211054154048
  0
LINE
  8
_0-1_ADD_LINE
  6
DASHED1
 62
    4
 10
356.58906707210895
 20
365.71650902636645
 11
356.58906707210895
 21
360.6181642474823
  0
LINE
  8
_0-1_ADD_LINE
  6
DASHED1
 62
    4
 10
388.58906707210895
 20
365.71650902636645
 11
388.58906707210895
 21
360.6181642474823
  0
LINE
  8
_0-1_ADD_LINE
  6
DASHED1
 62
    4
 10
274.58906707210895
 20
365.27495941805915
 11
274.58906707210895
 21
282.28211054154048
  0
LINE
  8
_0-1_ADD_LINE
  6
long_dashed_dotted
 62
    4
 10
372.58906707210895
 20
427.16933391703867
 11
372.58906707210895
 21
415.97304316883719
  0
LINE
  8
_0-1_ADD_LINE
  6
long_dashed_dotted
 62
    4
 10
367.49615484625144
 20
421.69141577155852
 11
377.36815314036448
 21
421.69141577155852
  0
LINE
  8
_0-1_ADD_LINE
  6
DASHED1
 62
    4
 10
354.93134119728381
 20
405.69141577155847
 11
360.72532437231632
 21
405.69141577155847
  0
LINE
  8
_0-1_ADD_LINE
  6
DASHED1
 62
    4
 10
354.93134119728381
 20
437.69141577155847
 11
360.72532437231632
 21
437.69141577155847
  0
LINE
  8
_0-1_ADD_LINE
  6
DASHED1
 62
    4
 10
384.28752261744842
 20
405.69141577155847
 11
390.17807217873144
 21
405.69141577155847
  0
LINE
  8
_0-1_ADD_LINE
  6
DASHED1
 62
    4
 10
384.28752261744842
 20
437.69141577155847
 11
390.17807217873144
 21
437.69141577155847
  0
LINE
  8
_0-1_ADD_LINE
  6
DASHED1
 62
    4
 10
356.58906707210895
 20
440.19364383212212
 11
356.58906707210895
 21
434.97905897459287
  0
LINE
  8
_0-1_ADD_LINE
  6
DASHED1
 62
    4
 10
388.58906707210895
 20
440.19364383212212
 11
388.58906707210895
 21
434.97905897459287
  0
LINE
  8
_0-1_ADD_LINE
  6
DASHED1
 62
    4
 10
356.58906707210895
 20
408.51986914194458
 11
356.58906707210895
 21
403.49841705691642
  0
LINE
  8
_0-1_ADD_LINE
  6
DASHED1
 62
    4
 10
388.58906707210895
 20
408.51986914194458
 11
388.58906707210895
 21
403.49841705691642
  0
CIRCLE
  8
_0-0_
  6
CONTINUOUS
 62
    7
 10
356.58906707210895
 20
437.69141577155847
 40
1
  0
CIRCLE
  8
_0-0_
  6
CONTINUOUS
 62
    7
 10
388.58906707210895
 20
437.69141577155847
 40
1
  0
CIRCLE
  8
_0-0_
  6
CONTINUOUS
 62
    7
 10
356.58906707210895
 20
405.69141577155847
 40
1
  0
CIRCLE
  8
_0-0_
  6
CONTINUOUS
 62
    7
 10
388.58906707210895
 20
405.69141577155847
 40
1
  0
CIRCLE
  8
_0-0_
  6
CONTINUOUS
 62
    4
 10
356.58906707210895
 20
437.69141577155847
 40
1.5
  0
CIRCLE
  8
_0-0_
  6
CONTINUOUS
 62
    4
 10
388.58906707210895
 20
437.69141577155847
 40
1.5
  0
CIRCLE
  8
_0-0_
  6
CONTINUOUS
 62
    4
 10
388.58906707210895
 20
405.69141577155847
 40
1.5
  0
CIRCLE
  8
_0-0_
  6
CONTINUOUS
 62
    4
 10
356.58906707210895
 20
405.69141577155847
 40
1.5
  0
LINE
  8
_0-1_ADD_LINE
  6
DASHED1
 62
    4
 10
552.58906707210895
 20
365.71650902636645
 11
552.58906707210895
 21
360.6181642474823
  0
LINE
  8
_0-1_ADD_LINE
  6
DASHED1
 62
    4
 10
584.58906707210895
 20
365.71650902636645
 11
584.58906707210895
 21
360.6181642474823
  0
LINE
  8
_0-0_
  6
CONTINUOUS
 62
    7
 10
362.58906707210895
 20
362.69141577155852
 11
382.58906707210895
 21
362.69141577155852
  0
LINE
  8
_0-1_ADD_LINE
  6
DASHED1
 62
    4
 10
330.79652087657871
 20
318.69141577155852
 11
411.73509131555977
 21
318.69141577155852
  0
LINE
  8
_0-0_
  6
CONTINUOUS
 62
    7
 10
362.58906707210895
 20
364.69141577155852
 11
362.58906707210895
 21
362.69141577155852
  0
LINE
  8
_0-0_
  6
DASHED1
 62
    7
 10
355.58906707210895
 20
364.69141577155852
 11
355.58906707210895
 21
362.69141577155852
  0
LINE
  8
_0-0_
  6
DASHED1
 62
    7
 10
357.58906707210895
 20
364.69141577155852
 11
357.58906707210895
 21
362.69141577155852
  0
LINE
  8
_0-0_
  6
DASHED1
 62
    7
 10
387.58906707210895
 20
364.69141577155852
 11
387.58906707210895
 21
362.69141577155852
  0
LINE
  8
_0-0_
  6
DASHED1
 62
    7
 10
389.58906707210895
 20
364.69141577155852
 11
389.58906707210895
 21
362.69141577155852
  0
LINE
  8
_0-0_
  6
DASHED1
 62
    4
 10
355.08906707210895
 20
364.69141577155852
 11
355.08906707210895
 21
362.69141577155852
  0
LINE
  8
_0-0_
  6
DASHED1
 62
    4
 10
358.08906707210895
 20
364.69141577155852
 11
358.08906707210895
 21
362.69141577155852
  0
LINE
  8
_0-0_
  6
DASHED1
 62
    4
 10
387.08906707210895
 20
364.69141577155852
 11
387.08906707210895
 21
362.69141577155852
  0
LINE
  8
_0-0_
  6
DASHED1
 62
    4
 10
390.08906707210895
 20
364.69141577155852
 11
390.08906707210895
 21
362.69141577155852
  0
LINE
  8
_0-0_
  6
CONTINUOUS
 62
    7
 10
382.58906707210895
 20
364.69141577155852
 11
382.58906707210895
 21
362.69141577155852
  0
LINE
  8
_0-0_
  6
DASHED1
 62
    7
 10
551.58906707210895
 20
364.69141577155852
 11
551.58906707210895
 21
362.69141577155852
  0
LINE
  8
_0-0_
  6
DASHED1
 62
    7
 10
553.58906707210895
 20
364.69141577155852
 11
553.58906707210895
 21
362.69141577155852
  0
LINE
  8
_0-0_
  6
DASHED1
 62
    7
 10
583.58906707210895
 20
364.69141577155852
 11
583.58906707210895
 21
362.69141577155852
  0
LINE
  8
_0-0_
  6
DASHED1
 62
    7
 10
585.58906707210895
 20
364.69141577155852
 11
585.58906707210895
 21
362.69141577155852
  0
LINE
  8
_0-0_
  6
DASHED1
 62
    4
 10
551.08906707210895
 20
364.69141577155852
 11
551.08906707210895
 21
362.69141577155852
  0
LINE
  8
_0-0_
  6
DASHED1
 62
    4
 10
554.08906707210895
 20
364.69141577155852
 11
554.08906707210895
 21
362.69141577155852
  0
LINE
  8
_0-0_
  6
DASHED1
 62
    4
 10
583.08906707210895
 20
364.69141577155852
 11
583.08906707210895
 21
362.69141577155852
  0
LINE
  8
_0-0_
  6
DASHED1
 62
    4
 10
586.08906707210895
 20
364.69141577155852
 11
586.08906707210895
 21
362.69141577155852
  0
LINE
  8
_0-0_
  6
DASHED1
 62
    7
 10
352.58906707210895
 20
362.69141577155852
 11
352.58906707210895
 21
274.69141577155852
  0
LINE
  8
_0-0_
  6
DASHED1
 62
    7
 10
392.58906707210895
 20
362.69141577155852
 11
392.58906707210895
 21
274.69141577155852
  0
LINE
  8
_0-0_
  6
CONTINUOUS
 62
    7
 10
382.58906707210895
 20
362.69141577155852
 11
394.58906707210895
 21
362.69141577155852
  0
LINE
  8
_0-0_
  6
CONTINUOUS
 62
    7
 10
350.58906707210895
 20
399.69141577155858
 11
394.58906707210895
 21
399.69141577155858
  0
LINE
  8
_0-0_
  6
DASHED1
 62
    7
 10
352.58906707210895
 20
401.69141577155858
 11
359.58906707210895
 21
401.69141577155858
  0
LINE
  8
_0-0_
  6
DASHED1
 62
    7
 10
385.58906707210895
 20
401.69141577155858
 11
392.58906707210895
 21
401.69141577155858
  0
LINE
  8
_0-0_
  6
CONTINUOUS
 62
    7
 10
359.58906707210895
 20
401.69141577155858
 11
385.58906707210895
 21
401.69141577155858
  0
LINE
  8
_0-0_
  6
CONTINUOUS
 62
    7
 10
546.58906707210895
 20
364.69141577155852
 11
546.58906707210895
 21
274.69141577155852
  0
LINE
  8
_0-0_
  6
CONTINUOUS
 62
    7
 10
548.58906707210895
 20
362.69141577155852
 11
548.58906707210895
 21
274.69141577155852
  0
LINE
  8
_0-0_
  6
CONTINUOUS
 62
    7
 10
588.58906707210895
 20
362.69141577155852
 11
588.58906707210895
 21
274.69141577155852
  0
LINE
  8
_0-0_
  6
CONTINUOUS
 62
    7
 10
590.58906707210895
 20
274.69141577155852
 11
590.58906707210895
 21
364.69141577155852
  0
LINE
  8
_0-0_
  6
CONTINUOUS
 62
    7
 10
555.58906707210895
 20
362.69141577155852
 11
555.58906707210895
 21
364.69141577155852
  0
LINE
  8
_0-0_
  6
CONTINUOUS
 62
    7
 10
581.58906707210895
 20
362.69141577155852
 11
581.58906707210895
 21
364.69141577155852
  0
LINE
  8
_0-0_
  6
CONTINUOUS
 62
    7
 10
546.58906707210895
 20
364.69141577155852
 11
555.58906707210895
 21
364.69141577155852
  0
LINE
  8
_0-0_
  6
CONTINUOUS
 62
    7
 10
581.58906707210895
 20
364.69141577155852
 11
590.58906707210895
 21
364.69141577155852
  0
LINE
  8
_0-0_
  6
CONTINUOUS
 62
    7
 10
546.58906707210895
 20
362.69141577155852
 11
590.58906707210895
 21
362.69141577155852
  0
LINE
  8
_0-0_
  6
CONTINUOUS
 62
    7
 10
546.58906707210895
 20
274.69141577155852
 11
590.58906707210895
 21
274.69141577155852
  0
LINE
  8
_0-0_
  6
CONTINUOUS
 62
    7
 10
350.58906707210895
 20
443.69141577155847
 11
350.58906707210895
 21
399.69141577155858
  0
LINE
  8
_0-0_
  6
CONTINUOUS
 62
    7
 10
394.58906707210895
 20
399.69141577155858
 11
394.58906707210895
 21
443.69141577155847
  0
LINE
  8
_0-0_
  6
DASHED1
 62
    7
 10
352.58906707210895
 20
443.69141577155847
 11
352.58906707210895
 21
401.69141577155858
  0
LINE
  8
_0-0_
  6
DASHED1
 62
    7
 10
392.58906707210895
 20
443.69141577155847
 11
392.58906707210895
 21
401.69141577155858
  0
LINE
  8
_0-0_
  6
DASHED1
 62
    7
 10
492.58906707210895
 20
362.69141577155852
 11
450.58906707210895
 21
362.69141577155852
  0
LINE
  8
_0-0_
  6
DASHED1
 62
    7
 10
450.58906707210895
 20
362.69141577155852
 11
450.58906707210895
 21
274.69141577155852
  0
LINE
  8
_0-0_
  6
DASHED1
 62
    7
 10
252.58906707210895
 20
362.69141577155852
 11
294.58906707210895
 21
362.69141577155852
  0
LINE
  8
_0-0_
  6
DASHED1
 62
    7
 10
294.58906707210895
 20
362.69141577155852
 11
294.58906707210895
 21
274.69141577155852
  0
LINE
  8
_0-0_
  6
DASHED1
 62
    7
 10
394.58906707210895
 20
321.8414157715585
 11
393.18906707210897
 21
320.44141577155852
  0
LINE
  8
_0-0_
  6
DASHED1
 62
    7
 10
392.58906707210895
 20
320.44141577155852
 11
393.18906707210897
 21
320.44141577155852
  0
LINE
  8
_0-0_
  6
DASHED1
 62
    7
 10
394.58906707210895
 20
315.54141577155855
 11
393.18906707210897
 21
316.94141577155852
  0
LINE
  8
_0-0_
  6
DASHED1
 62
    7
 10
392.58906707210895
 20
316.94141577155852
 11
393.18906707210897
 21
316.94141577155852
  0
LINE
  8
_0-0_
  6
DASHED1
 62
    7
 10
350.58906707210895
 20
315.54141577155855
 11
351.98906707210892
 21
316.94141577155852
  0
LINE
  8
_0-0_
  6
DASHED1
 62
    7
 10
352.58906707210895
 20
316.94141577155852
 11
351.98906707210892
 21
316.94141577155852
  0
LINE
  8
_0-0_
  6
DASHED1
 62
    7
 10
350.58906707210895
 20
321.8414157715585
 11
351.98906707210892
 21
320.44141577155852
  0
LINE
  8
_0-0_
  6
DASHED1
 62
    7
 10
352.58906707210895
 20
320.44141577155852
 11
351.98906707210892
 21
320.44141577155852
  0
CIRCLE
  8
_0-0_
  6
CONTINUOUS
 62
    7
 10
486.58906707210895
 20
318.69141577155852
 40
1.7500000000000002
  0
CIRCLE
  8
_0-0_
  6
CONTINUOUS
 62
    7
 10
486.58906707210895
 20
318.69141577155852
 40
3.1499999999999999
  0
CIRCLE
  8
_0-0_
  6
CONTINUOUS
 62
    7
 10
258.58906707210895
 20
318.69141577155852
 40
1.7500000000000002
  0
CIRCLE
  8
_0-0_
  6
CONTINUOUS
 62
    7
 10
258.58906707210895
 20
318.69141577155852
 40
3.1499999999999999
  0
LINE
  8
_0-8_
  6
CONTINUOUS
 62
    4
 10
350.58906707210895
 20
380.03595271744973
 11
394.58906707210895
 21
380.03595271744973
  0
POINT
  8
_0-8_
 62
    4
 10
350.58906707210895
 20
380.03595271744973
  0
POINT
  8
_0-8_
 62
    4
 10
394.58906707210895
 20
380.03595271744973
  0
LINE
  8
_0-8_
  6
CONTINUOUS
 62
    4
 10
350.58906707210895
 20
380.03595271744973
 11
350.58906707210895
 21
370.38413207310765
  0
LINE
  8
_0-8_
  6
CONTINUOUS
 62
    4
 10
394.58906707210895
 20
380.03595271744973
 11
394.58906707210895
 21
370.38413207310765
  0
TEXT
  8
_0-8_
 62
    7
 10
370.08906707210895
 20
381.03595271744973
 40
5
 41
1
 50
0
  1
44
  0
LINE
  8
_0-8_
  6
CONTINUOUS
 62
    4
 10
335.79876226979599
 20
364.69141577155852
 11
335.79876226979599
 21
274.69141577155852
  0
POINT
  8
_0-8_
 62
    4
 10
335.79876226979599
 20
364.69141577155852
  0
POINT
  8
_0-8_
 62
    4
 10
335.79876226979599
 20
274.69141577155852
  0
LINE
  8
_0-8_
  6
CONTINUOUS
 62
    4
 10
335.79876226979599
 20
364.69141577155852
 11
348.04915001069173
 21
364.69141577155852
  0
LINE
  8
_0-8_
  6
CONTINUOUS
 62
    4
 10
335.79876226979599
 20
274.69141577155852
 11
348.04915001069173
 21
274.69141577155852
  0
TEXT
  8
_0-8_
 62
    7
 10
334.79876226979599
 20
317.19141577155852
 40
5
 41
1
 50
90
  1
90
  0
LINE
  8
_0-8_
  6
CONTINUOUS
 62
    4
 10
350.58906707210895
 20
453.47666053658929
 11
359.58906707210895
 21
453.47666053658929
  0
POINT
  8
_0-8_
 62
    4
 10
350.58906707210895
 20
453.47666053658929
  0
POINT
  8
_0-8_
 62
    4
 10
359.58906707210895
 20
453.47666053658929
  0
LINE
  8
_0-8_
  6
CONTINUOUS
 62
    4
 10
350.58906707210895
 20
453.47666053658929
 11
350.58906707210895
 21
446.09905863720888
  0
LINE
  8
_0-8_
  6
CONTINUOUS
 62
    4
 10
359.58906707210895
 20
453.47666053658929
 11
359.58906707210895
 21
446.09905863720888
  0
TEXT
  8
_0-8_
 62
    7
 10
353.83906707210895
 20
454.47666053658929
 40
5
 41
1
 50
0
  1
9
  0
LINE
  8
_0-8_
  6
CONTINUOUS
 62
    4
 10
356.58906707210895
 20
390.94252893911943
 11
388.58906707210895
 21
390.94252893911943
  0
POINT
  8
_0-8_
 62
    4
 10
356.58906707210895
 20
390.94252893911943
  0
POINT
  8
_0-8_
 62
    4
 10
388.58906707210895
 20
390.94252893911943
  0
LINE
  8
_0-8_
  6
CONTINUOUS
 62
    4
 10
356.58906707210895
 20
390.94252893911943
 11
356.58906707210895
 21
403.20204651680064
  0
LINE
  8
_0-8_
  6
CONTINUOUS
 62
    4
 10
388.58906707210895
 20
390.94252893911943
 11
388.58906707210895
 21
403.20204651680064
  0
TEXT
  8
_0-8_
 62
    7
 10
370.08906707210895
 20
391.94252893911943
 40
5
 41
1
 50
0
  1
32
  0
LINE
  8
_0-8_
  6
CONTINUOUS
 62
    4
 10
404.31178572816981
 20
437.69141577155847
 11
404.31178572816981
 21
405.69141577155847
  0
POINT
  8
_0-8_
 62
    4
 10
404.31178572816981
 20
437.69141577155847
  0
POINT
  8
_0-8_
 62
    4
 10
404.31178572816981
 20
405.69141577155847
  0
LINE
  8
_0-8_
  6
CONTINUOUS
 62
    4
 10
404.31178572816981
 20
437.69141577155847
 11
396.23577794120098
 21
437.69141577155847
  0
LINE
  8
_0-8_
  6
CONTINUOUS
 62
    4
 10
404.31178572816981
 20
405.69141577155847
 11
396.23577794120098
 21
405.69141577155847
  0
TEXT
  8
_0-8_
 62
    7
 10
403.31178572816981
 20
419.19141577155847
 40
5
 41
1
 50
90
  1
32
  0
LINE
  8
_0-8_
  6
CONTINUOUS
 62
    4
 10
350.58906707210895
 20
466.89961400597394
 11
394.58906707210895
 21
466.89961400597394
  0
POINT
  8
_0-8_
 62
    4
 10
350.58906707210895
 20
466.89961400597394
  0
POINT
  8
_0-8_
 62
    4
 10
394.58906707210895
 20
466.89961400597394
  0
LINE
  8
_0-8_
  6
CONTINUOUS
 62
    4
 10
350.58906707210895
 20
466.89961400597394
 11
350.58906707210895
 21
446.09905863720888
  0
LINE
  8
_0-8_
  6
CONTINUOUS
 62
    4
 10
394.58906707210895
 20
466.89961400597394
 11
394.58906707210895
 21
446.09905863720888
  0
TEXT
  8
_0-8_
 62
    7
 10
370.08906707210895
 20
467.89961400597394
 40
5
 41
1
 50
0
  1
44
  0
LINE
  8
_0-8_
  6
CONTINUOUS
 62
    4
 10
326.89419289687618
 20
443.69141577155847
 11
326.89419289687618
 21
399.69141577155858
  0
POINT
  8
_0-8_
 62
    4
 10
326.89419289687618
 20
443.69141577155847
  0
POINT
  8
_0-8_
 62
    4
 10
326.89419289687618
 20
399.69141577155858
  0
LINE
  8
_0-8_
  6
CONTINUOUS
 62
    4
 10
326.89419289687618
 20
443.69141577155847
 11
347.42139802546501
 21
443.69141577155847
  0
LINE
  8
_0-8_
  6
CONTINUOUS
 62
    4
 10
326.89419289687618
 20
399.69141577155858
 11
347.42139802546501
 21
399.69141577155858
  0
TEXT
  8
_0-8_
 62
    7
 10
325.89419289687618
 20
419.19141577155852
 40
5
 41
1
 50
90
  1
44
  0
LINE
  8
_0-8_
  6
CONTINUOUS
 62
    4
 10
448.58906707210895
 20
378.30983468147463
 11
450.58906707210895
 21
378.30983468147463
  0
POINT
  8
_0-8_
 62
    4
 10
448.58906707210895
 20
378.30983468147463
  0
POINT
  8
_0-8_
 62
    4
 10
450.58906707210895
 20
378.30983468147463
  0
LINE
  8
_0-8_
  6
CONTINUOUS
 62
    4
 10
448.58906707210895
 20
378.30983468147463
 11
448.58906707210895
 21
366.96721167861051
  0
LINE
  8
_0-8_
  6
CONTINUOUS
 62
    4
 10
450.58906707210895
 20
378.30983468147463
 11
450.58906707210895
 21
366.96721167861051
  0
TEXT
  8
_0-8_
 62
    7
 10
448.33906707210895
 20
379.30983468147463
 40
5
 41
1
 50
0
  1
2
  0
LINE
  8
_0-1_ADD_LINE
  6
DASHED1
 62
    4
 10
486.58906707210895
 20
318.69141577155852
 11
491.59391459910887
 21
318.69141577155852
  0
LINE
  8
_0-1_ADD_LINE
  6
DASHED1
 62
    4
 10
486.58906707210895
 20
318.69141577155852
 11
486.58906707210895
 21
314.20507086191401
  0
LINE
  8
_0-1_ADD_LINE
  6
DASHED1
 62
    4
 10
486.58906707210895
 20
318.69141577155852
 11
486.58906707210895
 21
323.36292267804112
  0
LINE
  8
_0-1_ADD_LINE
  6
DASHED1
 62
    4
 10
486.58906707210895
 20
318.69141577155852
 11
482.26736416802709
 21
318.69141577155852
  0
LINE
  8
_0-1_ADD_LINE
  6
DASHED1
 62
    4
 10
258.58906707210895
 20
318.69141577155847
 11
258.58906707210895
 21
323.36292267804106
  0
LINE
  8
_0-1_ADD_LINE
  6
DASHED1
 62
    4
 10
258.58906707210895
 20
318.69141577155847
 11
263.59391459910887
 21
318.69141577155847
  0
LINE
  8
_0-1_ADD_LINE
  6
DASHED1
 62
    4
 10
258.58906707210895
 20
318.69141577155847
 11
254.26736416802709
 21
318.69141577155847
  0
LINE
  8
_0-1_ADD_LINE
  6
DASHED1
 62
    4
 10
258.58906707210895
 20
318.69141577155847
 11
258.58906707210895
 21
314.20507086191395
  0
LINE
  8
_0-8_
  6
CONTINUOUS
 62
    4
 10
489.43943029895513
 20
360.208951133749
 11
509.74633950087002
 21
380.51586033566383
  0
LINE
  8
_0-8_
  6
CONTINUOUS
 62
    4
 10
489.43943029895513
 20
360.208951133749
 11
492.43943029895513
 21
365.40510355645563
  0
LINE
  8
_0-8_
  6
CONTINUOUS
 62
    4
 10
489.43943029895513
 20
360.208951133749
 11
494.63558272166176
 21
363.208951133749
  0
LINE
  8
_0-8_
  6
CONTINUOUS
 62
    4
 10
409.78773143222992
 20
459.28719706983804
 11
430.02816078524774
 21
459.28719706983804
  0
LINE
  8
_0-8_
  6
CONTINUOUS
 62
    4
 10
389.48082223031508
 20
438.98028786792315
 11
409.78773143222992
 21
459.28719706983804
  0
LINE
  8
_0-8_
  6
CONTINUOUS
 62
    4
 10
389.48082223031508
 20
438.98028786792315
 11
394.67697465302172
 21
441.98028786792315
  0
LINE
  8
_0-8_
  6
CONTINUOUS
 62
    4
 10
389.48082223031508
 20
438.98028786792315
 11
392.48082223031508
 21
444.17644029062978
  0
TEXT
  8
_0-8_
 62
    7
 10
413.07353092088624
 20
460.08906532107073
 40
5.8799999999999955
 41
1.0000000000000011
 50
0
  1
4×M3
  0
LINE
  8
_0-8_
  6
CONTINUOUS
 62
    4
 10
252.58906707210895
 20
380.03595271744973
 11
296.58906707210895
 21
380.03595271744973
  0
POINT
  8
_0-8_
 62
    4
 10
252.58906707210895
 20
380.03595271744973
  0
POINT
  8
_0-8_
 62
    4
 10
296.58906707210895
 20
380.03595271744973
  0
LINE
  8
_0-8_
  6
CONTINUOUS
 62
    4
 10
252.58906707210895
 20
380.03595271744973
 11
252.58906707210895
 21
370.38413207310765
  0
LINE
  8
_0-8_
  6
CONTINUOUS
 62
    4
 10
296.58906707210895
 20
380.03595271744973
 11
296.58906707210895
 21
370.38413207310765
  0
TEXT
  8
_0-8_
 62
    7
 10
272.08906707210895
 20
381.03595271744973
 40
5
 41
1
 50
0
  1
44
  0
LINE
  8
_0-0_
  6
CONTINUOUS
 62
    7
 10
350.58906707210895
 20
362.69141577155852
 11
362.58906707210895
 21
362.69141577155852
  0
CIRCLE
  8
_0-0_
  6
CONTINUOUS
 62
    7
 10
258.58906707210895
 20
355.69141577155847
 40
1.7500000000000002
  0
CIRCLE
  8
_0-0_
  6
CONTINUOUS
 62
    7
 10
258.58906707210895
 20
355.69141577155847
 40
3.1499999999999999
  0
LINE
  8
_0-1_ADD_LINE
  6
DASHED1
 62
    4
 10
258.58906707210895
 20
355.69141577155847
 11
263.34630706554032
 21
355.69141577155847
  0
LINE
  8
_0-1_ADD_LINE
  6
DASHED1
 62
    4
 10
258.58906707210895
 20
355.69141577155847
 11
254.26736416802709
 21
355.69141577155847
  0
LINE
  8
_0-1_ADD_LINE
  6
DASHED1
 62
    4
 10
258.58906707210895
 20
355.69141577155847
 11
258.58906707210895
 21
360.36292267804106
  0
LINE
  8
_0-1_ADD_LINE
  6
DASHED1
 62
    4
 10
258.58906707210895
 20
355.69141577155847
 11
258.58906707210895
 21
351.08284394347731
  0
LINE
  8
_0-0_
  6
DASHED1
 62
    7
 10
350.58906707210895
 20
358.84141577155845
 11
351.98906707210892
 21
357.44141577155847
  0
LINE
  8
_0-0_
  6
DASHED1
 62
    7
 10
352.58906707210895
 20
357.44141577155847
 11
351.98906707210892
 21
357.44141577155847
  0
LINE
  8
_0-0_
  6
DASHED1
 62
    7
 10
352.58906707210895
 20
353.94141577155847
 11
351.98906707210892
 21
353.94141577155847
  0
LINE
  8
_0-0_
  6
DASHED1
 62
    7
 10
350.58906707210895
 20
352.54141577155849
 11
351.98906707210892
 21
353.94141577155847
  0
LINE
  8
_0-0_
  6
DASHED1
 62
    7
 10
392.58906707210895
 20
357.44141577155847
 11
393.18906707210897
 21
357.44141577155847
  0
LINE
  8
_0-0_
  6
DASHED1
 62
    7
 10
394.58906707210895
 20
358.84141577155845
 11
393.18906707210897
 21
357.44141577155847
  0
LINE
  8
_0-0_
  6
DASHED1
 62
    7
 10
392.58906707210895
 20
353.94141577155847
 11
393.18906707210897
 21
353.94141577155847
  0
LINE
  8
_0-0_
  6
DASHED1
 62
    7
 10
394.58906707210895
 20
352.54141577155849
 11
393.18906707210897
 21
353.94141577155847
  0
CIRCLE
  8
_0-0_
  6
CONTINUOUS
 62
    7
 10
486.58906707210895
 20
355.69141577155852
 40
3.1499999999999999
  0
CIRCLE
  8
_0-0_
  6
CONTINUOUS
 62
    7
 10
486.58906707210895
 20
355.69141577155852
 40
1.7500000000000002
  0
LINE
  8
_0-1_ADD_LINE
  6
DASHED1
 62
    4
 10
486.58906707210895
 20
355.69141577155852
 11
486.58906707210895
 21
360.36292267804112
  0
LINE
  8
_0-1_ADD_LINE
  6
DASHED1
 62
    4
 10
486.58906707210895
 20
355.69141577155852
 11
491.34630706554032
 21
355.69141577155852
  0
LINE
  8
_0-1_ADD_LINE
  6
DASHED1
 62
    4
 10
486.58906707210895
 20
355.69141577155852
 11
482.26736416802709
 21
355.69141577155852
  0
CIRCLE
  8
_0-0_
  6
CONTINUOUS
 62
    7
 10
258.58906707210895
 20
281.69141577155847
 40
1.7500000000000002
  0
CIRCLE
  8
_0-0_
  6
CONTINUOUS
 62
    7
 10
258.58906707210895
 20
281.69141577155847
 40
3.1499999999999999
  0
LINE
  8
_0-1_ADD_LINE
  6
DASHED1
 62
    4
 10
258.58906707210895
 20
281.69141577155847
 11
258.58906707210895
 21
286.36292267804106
  0
LINE
  8
_0-1_ADD_LINE
  6
DASHED1
 62
    4
 10
258.58906707210895
 20
281.69141577155847
 11
254.26736416802709
 21
281.69141577155847
  0
LINE
  8
_0-1_ADD_LINE
  6
DASHED1
 62
    4
 10
258.58906707210895
 20
281.69141577155847
 11
258.58906707210895
 21
277.20507086191395
  0
LINE
  8
_0-1_ADD_LINE
  6
DASHED1
 62
    4
 10
258.58906707210895
 20
281.69141577155847
 11
263.34630706554032
 21
281.69141577155847
  0
LINE
  8
_0-0_
  6
DASHED1
 62
    7
 10
350.58906707210895
 20
284.8414157715585
 11
351.98906707210892
 21
283.44141577155852
  0
LINE
  8
_0-0_
  6
DASHED1
 62
    7
 10
352.58906707210895
 20
283.44141577155852
 11
351.98906707210892
 21
283.44141577155852
  0
LINE
  8
_0-0_
  6
DASHED1
 62
    7
 10
352.58906707210895
 20
279.94141577155852
 11
351.98906707210892
 21
279.94141577155852
  0
LINE
  8
_0-0_
  6
DASHED1
 62
    7
 10
350.58906707210895
 20
278.54141577155855
 11
351.98906707210892
 21
279.94141577155852
  0
LINE
  8
_0-0_
  6
DASHED1
 62
    7
 10
392.58906707210895
 20
283.44141577155852
 11
393.18906707210897
 21
283.44141577155852
  0
LINE
  8
_0-0_
  6
DASHED1
 62
    7
 10
394.58906707210895
 20
284.8414157715585
 11
393.18906707210897
 21
283.44141577155852
  0
LINE
  8
_0-0_
  6
DASHED1
 62
    7
 10
394.58906707210895
 20
278.54141577155855
 11
393.18906707210897
 21
279.94141577155852
  0
LINE
  8
_0-0_
  6
DASHED1
 62
    7
 10
392.58906707210895
 20
279.94141577155852
 11
393.18906707210897
 21
279.94141577155852
  0
LINE
  8
_0-1_ADD_LINE
  6
DASHED1
 62
    4
 10
486.58906707210895
 20
281.69141577155852
 11
486.58906707210895
 21
286.36292267804112
  0
LINE
  8
_0-1_ADD_LINE
  6
DASHED1
 62
    4
 10
486.58906707210895
 20
281.69141577155852
 11
491.34630706554032
 21
281.69141577155852
  0
LINE
  8
_0-1_ADD_LINE
  6
DASHED1
 62
    4
 10
486.58906707210895
 20
281.69141577155852
 11
486.58906707210895
 21
277.20507086191401
  0
LINE
  8
_0-1_ADD_LINE
  6
DASHED1
 62
    4
 10
486.58906707210895
 20
281.69141577155852
 11
482.26736416802709
 21
281.69141577155852
  0
CIRCLE
  8
_0-0_
  6
CONTINUOUS
 62
    7
 10
486.58906707210895
 20
281.69141577155852
 40
1.7500000000000002
  0
CIRCLE
  8
_0-0_
  6
CONTINUOUS
 62
    7
 10
486.58906707210895
 20
281.69141577155852
 40
3.1499999999999999
  0
LINE
  8
_0-0_
  6
DASHED1
 62
    7
 10
546.58906707210895
 20
358.84141577155845
 11
547.98906707210892
 21
357.44141577155847
  0
LINE
  8
_0-0_
  6
DASHED1
 62
    7
 10
548.58906707210895
 20
357.44141577155847
 11
547.98906707210892
 21
357.44141577155847
  0
LINE
  8
_0-0_
  6
DASHED1
 62
    7
 10
548.58906707210895
 20
353.94141577155847
 11
547.98906707210892
 21
353.94141577155847
  0
LINE
  8
_0-0_
  6
DASHED1
 62
    7
 10
546.58906707210895
 20
352.54141577155849
 11
547.98906707210892
 21
353.94141577155847
  0
LINE
  8
_0-0_
  6
DASHED1
 62
    7
 10
546.58906707210895
 20
321.8414157715585
 11
547.98906707210892
 21
320.44141577155852
  0
LINE
  8
_0-0_
  6
DASHED1
 62
    7
 10
548.58906707210895
 20
320.44141577155852
 11
547.98906707210892
 21
320.44141577155852
  0
LINE
  8
_0-0_
  6
DASHED1
 62
    7
 10
548.58906707210895
 20
316.94141577155852
 11
547.98906707210892
 21
316.94141577155852
  0
LINE
  8
_0-0_
  6
DASHED1
 62
    7
 10
546.58906707210895
 20
315.54141577155855
 11
547.98906707210892
 21
316.94141577155852
  0
LINE
  8
_0-0_
  6
DASHED1
 62
    7
 10
546.58906707210895
 20
284.8414157715585
 11
547.98906707210892
 21
283.44141577155852
  0
LINE
  8
_0-0_
  6
DASHED1
 62
    7
 10
548.58906707210895
 20
283.44141577155852
 11
547.98906707210892
 21
283.44141577155852
  0
LINE
  8
_0-0_
  6
DASHED1
 62
    7
 10
548.58906707210895
 20
279.94141577155852
 11
547.98906707210892
 21
279.94141577155852
  0
LINE
  8
_0-0_
  6
DASHED1
 62
    7
 10
546.58906707210895
 20
278.54141577155855
 11
547.98906707210892
 21
279.94141577155852
  0
LINE
  8
_0-0_
  6
DASHED1
 62
    7
 10
590.58906707210895
 20
352.54141577155849
 11
589.18906707210897
 21
353.94141577155847
  0
LINE
  8
_0-0_
  6
DASHED1
 62
    7
 10
588.58906707210895
 20
353.94141577155847
 11
589.18906707210897
 21
353.94141577155847
  0
LINE
  8
_0-0_
  6
DASHED1
 62
    7
 10
588.58906707210895
 20
357.44141577155847
 11
589.18906707210897
 21
357.44141577155847
  0
LINE
  8
_0-0_
  6
DASHED1
 62
    7
 10
590.58906707210895
 20
358.84141577155845
 11
589.18906707210897
 21
357.44141577155847
  0
LINE
  8
_0-0_
  6
DASHED1
 62
    7
 10
590.58906707210895
 20
315.54141577155855
 11
589.18906707210897
 21
316.94141577155852
  0
LINE
  8
_0-0_
  6
DASHED1
 62
    7
 10
588.58906707210895
 20
316.94141577155852
 11
589.18906707210897
 21
316.94141577155852
  0
LINE
  8
_0-0_
  6
DASHED1
 62
    7
 10
588.58906707210895
 20
320.44141577155852
 11
589.18906707210897
 21
320.44141577155852
  0
LINE
  8
_0-0_
  6
DASHED1
 62
    7
 10
590.58906707210895
 20
321.8414157715585
 11
589.18906707210897
 21
320.44141577155852
  0
LINE
  8
_0-0_
  6
DASHED1
 62
    7
 10
590.58906707210895
 20
278.54141577155855
 11
589.18906707210897
 21
279.94141577155852
  0
LINE
  8
_0-0_
  6
DASHED1
 62
    7
 10
588.58906707210895
 20
279.94141577155852
 11
589.18906707210897
 21
279.94141577155852
  0
LINE
  8
_0-0_
  6
DASHED1
 62
    7
 10
588.58906707210895
 20
283.44141577155852
 11
589.18906707210897
 21
283.44141577155852
  0
LINE
  8
_0-0_
  6
DASHED1
 62
    7
 10
590.58906707210895
 20
284.8414157715585
 11
589.18906707210897
 21
283.44141577155852
  0
LINE
  8
_0-1_ADD_LINE
  6
DASHED1
 62
    4
 10
544.46578364486572
 20
355.69141577155847
 11
550.55855528864299
 21
355.69141577155847
  0
LINE
  8
_0-1_ADD_LINE
  6
DASHED1
 62
    4
 10
544.46578364486572
 20
318.69141577155852
 11
550.55855528864299
 21
318.69141577155852
  0
LINE
  8
_0-1_ADD_LINE
  6
DASHED1
 62
    4
 10
586.50292133416201
 20
355.69141577155847
 11
592.23729464595226
 21
355.69141577155847
  0
LINE
  8
_0-1_ADD_LINE
  6
DASHED1
 62
    4
 10
586.50292133416201
 20
318.69141577155852
 11
592.23729464595226
 21
318.69141577155852
  0
LINE
  8
_0-1_ADD_LINE
  6
DASHED1
 62
    4
 10
550.55855528864299
 20
281.69141577155852
 11
544.46578364486572
 21
281.69141577155852
  0
LINE
  8
_0-1_ADD_LINE
  6
DASHED1
 62
    4
 10
586.50292133416201
 20
281.69141577155852
 11
592.23729464595226
 21
281.69141577155852
  0
LINE
  8
_0-9_
  6
CONTINUOUS
 62
    4
 10
486.00015667945365
 20
223.91406314787
 11
428.15800867945336
 21
223.91406314787
  0
LINE
  8
_0-9_
  6
CONTINUOUS
 62
    4
 10
620.29453507945357
 20
215.36348474786993
 11
504.61023907945355
 21
215.36348474786993
  0
LINE
  8
_0-9_
  6
CONTINUOUS
 62
    4
 10
541.32742867945353
 20
225.42298874786997
 11
617.27668387945369
 21
225.42298874786997
  0
LINE
  8
_0-9_
  6
CONTINUOUS
 62
    4
 10
538.30957747945354
 20
204.29803034786991
 11
538.30957747945365
 21
235.48249274786997
  0
LINE
  8
_0-9_
  6
CONTINUOUS
 62
    4
 10
428.15800867945336
 20
247.55389754787001
 11
620.29453507945357
 21
247.55389754787001
  0
LINE
  8
_0-9_
  6
CONTINUOUS
 62
    4
 10
428.15800867945336
 20
235.48249274786997
 11
620.29453507945379
 21
235.48249274786994
  0
LINE
  8
_0-9_
  6
CONTINUOUS
 62
    4
 10
471.41387587945349
 20
247.55389754787001
 11
471.41387587945349
 21
235.48249274787003
  0
LINE
  8
_0-9_
  6
CONTINUOUS
 62
    4
 10
504.61023907945355
 20
247.55389754786995
 11
504.61023907945355
 21
204.2980303478698
  0
LINE
  8
_0-9_
  6
CONTINUOUS
 62
    4
 10
597.15767587945345
 20
247.55389754787001
 11
597.15767587945345
 21
235.48249274787003
  0
LINE
  8
_0-9_
  6
CONTINUOUS
 62
    4
 10
574.02081667945379
 20
235.48249274786997
 11
574.02081667945379
 21
247.55389754787001
  0
LINE
  8
_0-9_
  6
CONTINUOUS
 62
    4
 10
536.2976766794535
 20
225.42298874786997
 11
506.62213987945347
 21
225.42298874786997
  0
LINE
  8
_0-9_
  6
CONTINUOUS
 62
    4
 10
486.00015667945343
 20
204.29803034786991
 11
486.00015667945377
 21
235.48249274786997
  0
LINE
  8
_0-9_
  6
CONTINUOUS
 62
    4
 10
504.61023907945355
 20
217.87836074786995
 11
486.00015667945365
 21
217.87836074786995
  0
LINE
  8
_0-9_
  6
CONTINUOUS
 62
    4
 10
486.00015667945365
 20
217.87836074786995
 11
428.15800867945336
 21
217.87836074787
  0
LINE
  8
_0-9_
  6
CONTINUOUS
 62
    4
 10
428.15800867945336
 20
247.55389754787001
 11
428.15800867945336
 21
204.29803034786991
  0
LINE
  8
_0-9_
  6
CONTINUOUS
 62
    4
 10
457.07908267945345
 20
235.48249274786997
 11
457.07908267945345
 21
223.91406314787
  0
TEXT
  8
_0-9_
 62
    7
 10
577.14119865854934
 20
244.05692270936669
 40
3.0952320461225895
 41
1.0422794146408345
 50
0
  1
Quantity
  0
TEXT
  8
_0-9_
 62
    7
 10
429.23927112030111
 20
243.71292119785321
 40
3.0952320461225611
 41
1.0422794146408467
 50
0
  1
Model
  0
TEXT
  8
_0-9_
 62
    7
 10
474.20496954226269
 20
243.71292119785321
 40
3.0952320461225611
 41
1.0422794146408436
 50
0
  1
Material
  0
TEXT
  8
_0-9_
 62
    7
 10
590.27800687487763
 20
237.88774979295337
 40
3.6755879538774252
 41
1.1789474007825669
 50
0
  1
1
  0
TEXT
  8
_0-9_
 62
    7
 10
487.39265349253355
 20
231.98399529546182
 40
3.0952320461225327
 41
1.0738636393269401
 50
0
  1
Scale
  0
TEXT
  8
_0-9_
 62
    7
 10
505.49782061670908
 20
231.86072716967337
 40
3.0952320461225327
 41
1.0029481159751623
 50
0
  1
Machining tolerance
  0
TEXT
  8
_0-9_
 62
    7
 10
542.23243953587451
 20
231.30624235579913
 40
3.4821359077549232
 41
1.0144927804980592
 50
0
  1
Equipment
  0
TEXT
  8
_0-9_
 62
    7
 10
513.61297619482139
 20
227.4841005789832
 40
3.0952320461225895
 41
1.0010593247962836
 50
0
  1
JIS B 0405
  0
TEXT
  8
_0-9_
 62
    7
 10
505.47487424969506
 20
221.78742921739482
 40
3.0952320461225327
 41
1.0738636393269385
 50
0
  1
Grade
  0
TEXT
  8
_0-9_
 62
    7
 10
452.54452089172349
 20
219.24619765403543
 40
2.9017799999999738
 41
1.1030302625714057
 50
0
  1
Author
  0
TEXT
  8
_0-9_
 62
    7
 10
573.9471908763594
 20
218.14496733772242
 40
3.6755879538774252
 41
1.1789474007825875
 50
0
  1
Main
  0
TEXT
  8
_0-9_
 62
    7
 10
488.03154897967204
 20
213.97859192223058
 40
3.0952320461225327
 41
1.0738636393269418
 50
0
  1
Unit
  0
TEXT
  8
_0-9_
 62
    7
 10
439.71180173569985
 20
211.52885265827857
 40
2.9017800000000022
 41
1.1030302625713915
 50
0
  1
Hirotaka Shiojima
  0
TEXT
  8
_0-9_
 62
    7
 10
505.9136842271148
 20
211.48341025979667
 40
3.0952320461225611
 41
1.0422794146408458
 50
0
  1
Projection method
  0
TEXT
  8
_0-9_
 62
    7
 10
493.59226835218089
 20
208.24048329553185
 40
3.4821359077548948
 41
1.0606060887025235
 50
0
  1
mm
  0
TEXT
  8
_0-9_
 62
    7
 10
527.53859196820838
 20
206.07718332452336
 40
3.4821359077548664
 41
1.0606060887025317
 50
0
  1
Ａ３
  0
TEXT
  8
_0-9_
 62
    7
 10
453.1544272702821
 20
207.05576136168688
 40
2.9017800000000307
 41
1.1030302625713815
 50
0
  1
SmartDIYs Co.,Ltd
  0
TEXT
  8
_0-9_
 62
    7
 10
505.98185021837025
 20
243.71292119785321
 40
3.0952320461225611
 41
1.0422794146408438
 50
0
  1
Treatment
  0
LINE
  8
_0-9_
  6
CONTINUOUS
 62
    4
 10
546.49805016313542
 20
235.48249274786997
 11
546.4980501631353
 21
247.55389754787001
  0
TEXT
  8
_0-9_
 62
    7
 10
549.35044616956986
 20
243.65169067628597
 40
3.0952320461225895
 41
1.0271739158779218
 50
0
  1
Color
  0
TEXT
  8
_0-9_
 62
    7
 10
560.24839631515522
 20
237.74282768174865
 40
3.6755879538774252
 41
1.1789474007825813
 50
0
  1
---
  0
TEXT
  8
_0-9_
 62
    7
 10
469.17928600542166
 20
226.02641117931387
 40
2.4499999999999886
 41
0.9999999999999992
 50
0
  1
---
  0
TEXT
  8
_0-9_
 62
    7
 10
459.42744874349592
 20
231.24570436175301
 40
3.0952320461225327
 41
1.0422794146408545
 50
0
  1
Surface
  0
TEXT
  8
_0-9_
 62
    7
 10
429.34783803417571
 20
231.38305418234347
 40
3.0952320461225895
 41
1.018318968327256
 50
0
  1
Date
  0
TEXT
  8
_0-9_
 62
    7
 10
512.17357199322726
 20
217.33839889094568
 40
3.0952320461225327
 41
1.0183189683272709
 50
0
  1
ｍ（midium）
  0
TEXT
  8
_0-9_
 62
    7
 10
540.29174268731492
 20
211.20616785285961
 40
3.4821359077549232
 41
1.0294117919759751
 50
0
  1
Drawing number
  0
TEXT
  8
_0-9_
 62
    7
 10
432.50296553828071
 20
237.64716524413393
 40
2.9399999999999977
 41
1.0000000000000007
 50
0
  1
laser cover front
  0
TEXT
  8
_0-9_
 62
    7
 10
564.01953692187101
 20
227.33723951780419
 40
3.869039999999984
 41
1.0069231051665133
 50
0
  1
FABOOL Laser Mini
  0
TEXT
  8
_0-9_
 62
    7
 10
510.88200950231271
 20
237.76687298913242
 40
3.6755879538774821
 41
1.1789474007825671
 50
0
  1
Black anodized
  0
TEXT
  8
_0-9_
 62
    7
 10
486.12079514166737
 20
237.68654743328537
 40
3.6755879538774252
 41
1.0251716528544192
 50
0
  1
A5052
  0
LINE
  8
_0-9_
  6
CONTINUOUS
 62
    3
 10
620.29453507945357
 20
204.29803034786991
 11
620.29453507945379
 21
481.9403407478701
  0
LINE
  8
_0-9_
  6
CONTINUOUS
 62
    3
 10
620.29453507945379
 20
481.9403407478701
 11
217.91437507945324
 21
481.9403407478701
  0
LINE
  8
_0-9_
  6
CONTINUOUS
 62
    3
 10
217.91437507945324
 20
481.9403407478701
 11
217.91437507945324
 21
204.29803034787003
  0
LINE
  8
_0-9_
  6
CONTINUOUS
 62
    3
 10
217.91437507945324
 20
204.29803034787003
 11
620.29453507945357
 21
204.29803034786991
  0
LINE
  8
_0-1_ADD_LINE
  6
long_dashed_dotted
 62
    4
 10
372.58906707210895
 20
232.35422952917276
 11
372.58906707210895
 21
243.5505202773742
  0
LINE
  8
_0-1_ADD_LINE
  6
long_dashed_dotted
 62
    4
 10
377.68197929796645
 20
237.83214767465296
 11
367.80998100385341
 21
237.83214767465296
  0
LINE
  8
_0-1_ADD_LINE
  6
DASHED1
 62
    4
 10
390.24679294693397
 20
253.83214767465296
 11
384.45280977190157
 21
253.83214767465296
  0
LINE
  8
_0-1_ADD_LINE
  6
DASHED1
 62
    4
 10
390.24679294693397
 20
221.83214767465296
 11
384.45280977190157
 21
221.83214767465296
  0
LINE
  8
_0-1_ADD_LINE
  6
DASHED1
 62
    4
 10
360.89061152676948
 20
253.83214767465296
 11
355.00006196548645
 21
253.83214767465296
  0
LINE
  8
_0-1_ADD_LINE
  6
DASHED1
 62
    4
 10
360.89061152676948
 20
221.83214767465296
 11
355.00006196548645
 21
221.83214767465296
  0
LINE
  8
_0-1_ADD_LINE
  6
DASHED1
 62
    4
 10
388.58906707210895
 20
219.32991961408928
 11
388.58906707210895
 21
224.54450447161855
  0
LINE
  8
_0-1_ADD_LINE
  6
DASHED1
 62
    4
 10
356.58906707210895
 20
219.32991961408936
 11
356.58906707210895
 21
224.54450447161855
  0
LINE
  8
_0-1_ADD_LINE
  6
DASHED1
 62
    4
 10
388.58906707210895
 20
251.0036943042669
 11
388.58906707210895
 21
256.02514638929506
  0
LINE
  8
_0-1_ADD_LINE
  6
DASHED1
 62
    4
 10
356.58906707210895
 20
251.0036943042669
 11
356.58906707210895
 21
256.02514638929506
  0
CIRCLE
  8
_0-0_
  6
CONTINUOUS
 62
    7
 10
388.58906707210895
 20
221.83214767465296
 40
1
  0
CIRCLE
  8
_0-0_
  6
CONTINUOUS
 62
    7
 10
356.58906707210895
 20
221.83214767465296
 40
1
  0
CIRCLE
  8
_0-0_
  6
CONTINUOUS
 62
    7
 10
388.58906707210895
 20
253.83214767465296
 40
1
  0
CIRCLE
  8
_0-0_
  6
CONTINUOUS
 62
    7
 10
356.58906707210895
 20
253.83214767465296
 40
1
  0
CIRCLE
  8
_0-0_
  6
CONTINUOUS
 62
    4
 10
388.58906707210895
 20
221.83214767465296
 40
1.5
  0
CIRCLE
  8
_0-0_
  6
CONTINUOUS
 62
    4
 10
356.58906707210895
 20
221.83214767465296
 40
1.5
  0
CIRCLE
  8
_0-0_
  6
CONTINUOUS
 62
    4
 10
356.58906707210895
 20
253.83214767465296
 40
1.5
  0
CIRCLE
  8
_0-0_
  6
CONTINUOUS
 62
    4
 10
388.58906707210895
 20
253.83214767465296
 40
1.5
  0
LINE
  8
_0-0_
  6
CONTINUOUS
 62
    7
 10
352.58906707210895
 20
257.83214767465296
 11
392.58906707210895
 21
257.83214767465296
  0
LINE
  8
_0-0_
  6
CONTINUOUS
 62
    7
 10
394.58906707210895
 20
259.83214767465296
 11
350.58906707210895
 21
259.83214767465296
  0
LINE
  8
_0-0_
  6
DASHED1
 62
    7
 10
359.58906707210895
 20
257.83214767465296
 11
359.58906707210895
 21
259.83214767465296
  0
LINE
  8
_0-0_
  6
DASHED1
 62
    7
 10
385.58906707210895
 20
257.83214767465296
 11
385.58906707210895
 21
259.83214767465296
  0
LINE
  8
_0-0_
  6
CONTINUOUS
 62
    7
 10
350.58906707210895
 20
259.83214767465296
 11
350.58906707210895
 21
215.83214767465296
  0
LINE
  8
_0-0_
  6
CONTINUOUS
 62
    7
 10
394.58906707210895
 20
215.83214767465296
 11
394.58906707210895
 21
259.83214767465296
  0
LINE
  8
_0-0_
  6
CONTINUOUS
 62
    7
 10
352.58906707210895
 20
257.83214767465296
 11
352.58906707210895
 21
215.83214767465296
  0
LINE
  8
_0-0_
  6
CONTINUOUS
 62
    7
 10
392.58906707210895
 20
257.83214767465296
 11
392.58906707210895
 21
215.83214767465296
  0
LINE
  8
_0-1_ADD_LINE
  6
DASHED1
 62
    4
 10
486.58906707210895
 20
355.69141577155852
 11
486.58906707210895
 21
351.54716171651393
  0
LINE
  8
_0-8_
  6
CONTINUOUS
 62
    4
 10
234.43141322440184
 20
274.69141577155852
 11
234.43141322440184
 21
281.69141577155847
  0
POINT
  8
_0-8_
 62
    4
 10
234.43141322440184
 20
274.69141577155852
  0
POINT
  8
_0-8_
 62
    4
 10
234.43141322440184
 20
281.69141577155847
  0
LINE
  8
_0-8_
  6
CONTINUOUS
 62
    4
 10
234.43141322440184
 20
274.69141577155852
 11
247.50179592943039
 21
274.69141577155852
  0
LINE
  8
_0-8_
  6
CONTINUOUS
 62
    4
 10
234.43141322440184
 20
281.69141577155847
 11
247.50179592943039
 21
281.69141577155847
  0
TEXT
  8
_0-8_
 62
    7
 10
233.43141322440184
 20
276.94141577155847
 40
5
 41
1
 50
90
  1
7
  0
LINE
  8
_0-8_
  6
CONTINUOUS
 62
    4
 10
234.43141322440184
 20
281.69141577155847
 11
234.43141322440184
 21
318.69141577155847
  0
POINT
  8
_0-8_
 62
    4
 10
234.43141322440184
 20
318.69141577155847
  0
LINE
  8
_0-8_
  6
CONTINUOUS
 62
    4
 10
234.43141322440184
 20
318.69141577155847
 11
247.50179592943039
 21
318.69141577155847
  0
TEXT
  8
_0-8_
 62
    7
 10
233.43141322440184
 20
297.69141577155847
 40
5
 41
1
 50
90
  1
37
  0
LINE
  8
_0-8_
  6
CONTINUOUS
 62
    4
 10
234.43141322440184
 20
318.69141577155847
 11
234.43141322440184
 21
355.69141577155847
  0
POINT
  8
_0-8_
 62
    4
 10
234.43141322440184
 20
355.69141577155847
  0
LINE
  8
_0-8_
  6
CONTINUOUS
 62
    4
 10
234.43141322440184
 20
355.69141577155847
 11
247.50179592943039
 21
355.69141577155847
  0
TEXT
  8
_0-8_
 62
    7
 10
233.43141322440184
 20
334.69141577155847
 40
5
 41
1
 50
90
  1
37
  0
LINE
  8
_0-8_
  6
CONTINUOUS
 62
    4
 10
475.68030644573582
 20
358.8414157715585
 11
475.68030644573582
 21
352.54141577155855
  0
POINT
  8
_0-8_
 62
    4
 10
475.68030644573582
 20
358.8414157715585
  0
POINT
  8
_0-8_
 62
    4
 10
475.68030644573582
 20
352.54141577155855
  0
LINE
  8
_0-8_
  6
CONTINUOUS
 62
    4
 10
475.68030644573582
 20
358.8414157715585
 11
483.24321462515138
 21
358.8414157715585
  0
LINE
  8
_0-8_
  6
CONTINUOUS
 62
    4
 10
475.68030644573582
 20
352.54141577155855
 11
483.24321462515138
 21
352.54141577155855
  0
TEXT
  8
_0-8_
 62
    7
 10
474.68030644573582
 20
351.94141577155852
 40
5
 41
1
 50
90
  1
6.3
  0
LINE
  8
_0-8_
  6
CONTINUOUS
 62
    4
 10
484.83906707210895
 20
343.85497305539894
 11
488.33906707210895
 21
343.85497305539894
  0
POINT
  8
_0-8_
 62
    4
 10
484.83906707210895
 20
343.85497305539894
  0
POINT
  8
_0-8_
 62
    4
 10
488.33906707210895
 20
343.85497305539894
  0
LINE
  8
_0-8_
  6
CONTINUOUS
 62
    4
 10
484.83906707210895
 20
343.85497305539894
 11
484.83906707210895
 21
350.77147882631743
  0
LINE
  8
_0-8_
  6
CONTINUOUS
 62
    4
 10
488.33906707210895
 20
343.85497305539894
 11
488.33906707210895
 21
350.77147882631743
  0
TEXT
  8
_0-8_
 62
    7
 10
482.83906707210895
 20
337.32630872957867
 40
5
 41
1
 50
0
  1
3.5
  0
LINE
  8
_0-8_
  6
CONTINUOUS
 62
    4
 10
252.58906707210895
 20
262.37564359648422
 11
258.58906707210895
 21
262.37564359648422
  0
POINT
  8
_0-8_
 62
    4
 10
252.58906707210895
 20
262.37564359648422
  0
POINT
  8
_0-8_
 62
    4
 10
258.58906707210895
 20
262.37564359648422
  0
LINE
  8
_0-8_
  6
CONTINUOUS
 62
    4
 10
252.58906707210895
 20
262.37564359648422
 11
252.58906707210895
 21
272.05268371633775
  0
LINE
  8
_0-8_
  6
CONTINUOUS
 62
    4
 10
258.58906707210895
 20
262.37564359648422
 11
258.58906707210895
 21
272.05268371633775
  0
TEXT
  8
_0-8_
 62
    7
 10
254.33906707210895
 20
263.37564359648422
 40
5
 41
1
 50
0
  1
6
  0
TEXT
  8
_0-8_
 62
    7
 10
248.1418877145214
 20
228.81661907466508
 40
8
 41
1
 50
0
  1
No indication: ≦R2
  0
TEXT
  8
_0-8_
 62
    7
 10
248.45662142161891
 20
239.20283140888256
 40
8
 41
1
 50
0
  1
Remarks
  0
TEXT
  8
_0-8_
 62
    7
 10
510.58328369791207
 20
381.35280453270587
 40
5.8799999999999955
 41
1.0000000000000011
 50
0
  1
6×M3 Countersinking
  0
LINE
  8
_0-8_
  6
CONTINUOUS
 62
    4
 10
509.74633950087002
 20
380.51586033566383
 11
572.99813175337363
 21
380.51586033566383
  0
LINE
  8
_0-8_
  6
CONTINUOUS
 62
    4
 10
504.7612257693944
 20
364.69141577155852
 11
504.7612257693944
 21
362.69141577155852
  0
POINT
  8
_0-8_
 62
    4
 10
504.7612257693944
 20
364.69141577155852
  0
POINT
  8
_0-8_
 62
    4
 10
504.7612257693944
 20
362.69141577155852
  0
LINE
  8
_0-8_
  6
CONTINUOUS
 62
    4
 10
504.7612257693944
 20
364.69141577155852
 11
498.80243496583546
 21
364.69141577155852
  0
LINE
  8
_0-8_
  6
CONTINUOUS
 62
    4
 10
504.7612257693944
 20
362.69141577155852
 11
498.80243496583546
 21
362.69141577155852
  0
TEXT
  8
_0-8_
 62
    7
 10
510.13068561435966
 20
362.44141577155852
 40
5
 41
1
 50
90
  1
2
  0
ARC
  8
_0-0_
  6
CONTINUOUS
 62
    7
 10
253.58906707210895
 20
275.69141577155852
 40
1
 50
180
 51
270
  0
LINE
  8
_0-0_
  6
CONTINUOUS
 62
    7
 10
295.58906707210895
 20
274.69141577155852
 11
253.58906707210895
 21
274.69141577155852
  0
LINE
  8
_0-0_
  6
CONTINUOUS
 62
    7
 10
296.58906707210895
 20
275.69141577155852
 11
296.58906707210895
 21
364.69141577155852
  0
ARC
  8
_0-0_
  6
CONTINUOUS
 62
    7
 10
295.58906707210895
 20
275.69141577155852
 40
1
 50
270
 51
0
  0
LINE
  8
_0-0_
  6
CONTINUOUS
 62
    7
 10
448.58906707210895
 20
275.69141577155852
 11
448.58906707210895
 21
364.69141577155852
  0
ARC
  8
_0-0_
  6
CONTINUOUS
 62
    7
 10
449.58906707210895
 20
275.69141577155852
 40
1
 50
180
 51
270
  0
LINE
  8
_0-0_
  6
CONTINUOUS
 62
    7
 10
491.58906707210895
 20
274.69141577155852
 11
449.58906707210895
 21
274.69141577155852
  0
ARC
  8
_0-0_
  6
CONTINUOUS
 62
    7
 10
491.58906707210895
 20
275.69141577155852
 40
1
 50
270
 51
0
  0
LINE
  8
_0-0_
  6
CONTINUOUS
 62
    7
 10
358.58906707210895
 20
443.69141577155847
 11
350.58906707210895
 21
443.69141577155847
  0
ARC
  8
_0-0_
  6
CONTINUOUS
 62
    7
 10
358.58906707210895
 20
442.69141577155847
 40
1
 50
0
 51
90
  0
LINE
  8
_0-0_
  6
CONTINUOUS
 62
    7
 10
386.58906707210895
 20
443.69141577155847
 11
394.58906707210895
 21
443.69141577155847
  0
ARC
  8
_0-0_
  6
CONTINUOUS
 62
    7
 10
386.58906707210895
 20
442.69141577155847
 40
1
 50
90
 51
180
  0
LINE
  8
_0-0_
  6
CONTINUOUS
 62
    7
 10
358.58906707210895
 20
215.83214767465296
 11
350.58906707210895
 21
215.83214767465296
  0
ARC
  8
_0-0_
  6
CONTINUOUS
 62
    7
 10
358.58906707210895
 20
216.83214767465296
 40
1
 50
270
 51
0
  0
LINE
  8
_0-0_
  6
CONTINUOUS
 62
    7
 10
386.58906707210895
 20
215.83214767465296
 11
394.58906707210895
 21
215.83214767465296
  0
ARC
  8
_0-0_
  6
CONTINUOUS
 62
    7
 10
386.58906707210895
 20
216.83214767465296
 40
1
 50
180
 51
270
  0
LINE
  8
_0-0_
  6
CONTINUOUS
 62
    7
 10
356.58906707210895
 20
247.83214767465296
 11
356.58906707210895
 21
227.83214767465296
  0
LINE
  8
_0-0_
  6
CONTINUOUS
 62
    7
 10
388.58906707210895
 20
247.83214767465296
 11
388.58906707210895
 21
227.83214767465296
  0
LINE
  8
_0-0_
  6
CONTINUOUS
 62
    7
 10
356.58906707210895
 20
247.83214767465296
 11
359.58906707210895
 21
247.83214767465296
  0
LINE
  8
_0-0_
  6
CONTINUOUS
 62
    7
 10
356.58906707210895
 20
227.83214767465296
 11
359.58906707210895
 21
227.83214767465296
  0
LINE
  8
_0-0_
  6
CONTINUOUS
 62
    7
 10
359.58906707210895
 20
216.83214767465296
 11
359.58906707210895
 21
227.83214767465296
  0
LINE
  8
_0-0_
  6
CONTINUOUS
 62
    7
 10
359.58906707210895
 20
247.83214767465296
 11
359.58906707210895
 21
257.83214767465296
  0
LINE
  8
_0-0_
  6
CONTINUOUS
 62
    7
 10
385.58906707210895
 20
247.83214767465296
 11
388.58906707210895
 21
247.83214767465296
  0
LINE
  8
_0-0_
  6
CONTINUOUS
 62
    7
 10
385.58906707210895
 20
227.83214767465296
 11
388.58906707210895
 21
227.83214767465296
  0
LINE
  8
_0-0_
  6
CONTINUOUS
 62
    7
 10
385.58906707210895
 20
216.83214767465296
 11
385.58906707210895
 21
227.83214767465296
  0
LINE
  8
_0-0_
  6
CONTINUOUS
 62
    7
 10
385.58906707210895
 20
247.83214767465296
 11
385.58906707210895
 21
257.83214767465296
  0
LINE
  8
_0-0_
  6
CONTINUOUS
 62
    7
 10
359.58906707210895
 20
442.69141577155847
 11
359.58906707210895
 21
431.69141577155852
  0
LINE
  8
_0-0_
  6
CONTINUOUS
 62
    7
 10
359.58906707210895
 20
411.69141577155852
 11
359.58906707210895
 21
399.69141577155858
  0
LINE
  8
_0-0_
  6
CONTINUOUS
 62
    7
 10
385.58906707210895
 20
442.69141577155847
 11
385.58906707210895
 21
431.69141577155852
  0
LINE
  8
_0-0_
  6
CONTINUOUS
 62
    7
 10
385.58906707210895
 20
411.69141577155852
 11
385.58906707210895
 21
399.69141577155858
  0
LINE
  8
_0-8_
  6
CONTINUOUS
 62
    4
 10
362.98329726137467
 20
431.69141577155852
 11
362.98329726137467
 21
411.69141577155852
  0
POINT
  8
_0-8_
 62
    4
 10
362.98329726137467
 20
431.69141577155852
  0
POINT
  8
_0-8_
 62
    4
 10
362.98329726137467
 20
411.69141577155852
  0
LINE
  8
_0-8_
  6
CONTINUOUS
 62
    4
 10
362.98329726137467
 20
431.69141577155852
 11
360.67245529202575
 21
431.69141577155852
  0
LINE
  8
_0-8_
  6
CONTINUOUS
 62
    4
 10
362.98329726137467
 20
411.69141577155852
 11
360.67245529202575
 21
411.69141577155852
  0
TEXT
  8
_0-8_
 62
    7
 10
361.98329726137467
 20
419.19141577155852
 40
5
 41
1
 50
90
  1
20
  0
TEXT
  8
_0-8_
 62
    7
 10
317.82584035794946
 20
254.87784569374514
 40
5.8799999999999955
 41
1.0000000000000011
 50
0
  1
R1
  0
LINE
  8
_0-8_
  6
CONTINUOUS
 62
    4
 10
314.54004086929314
 20
254.07597744251245
 11
325.78422135732507
 21
254.07597744251245
  0
LINE
  8
_0-8_
  6
CONTINUOUS
 62
    4
 10
297.37373365858804
 20
274.57213457455259
 11
314.54004086929314
 21
254.07597744251245
  0
LINE
  8
_0-8_
  6
CONTINUOUS
 62
    4
 10
297.37373365858804
 20
274.57213457455259
 11
302.28548734917786
 21
271.12616944371081
  0
LINE
  8
_0-8_
  6
CONTINUOUS
 62
    4
 10
297.37373365858804
 20
274.57213457455259
 11
299.90445456634995
 21
269.1319643853933
  0
TEXT
  8
_0-9_
 62
    7
 10
436.65825907890445
 20
226.41603850278668
 40
3.0952320461225611
 41
0.9658018369754799
 50
0
  1
16/Jun/2016
  0
LINE
  8
_0-0_
  6
CONTINUOUS
 62
    7
 10
387.58906707210895
 20
431.69141577155852
 11
387.58906707210895
 21
411.69141577155852
  0
LINE
  8
_0-0_
  6
CONTINUOUS
 62
    7
 10
357.58906707210895
 20
431.69141577155852
 11
357.58906707210895
 21
411.69141577155852
  0
LINE
  8
_0-0_
  6
CONTINUOUS
 62
    7
 10
357.58906707210895
 20
431.69141577155852
 11
359.58906707210895
 21
431.69141577155852
  0
LINE
  8
_0-0_
  6
CONTINUOUS
 62
    7
 10
357.58906707210895
 20
411.69141577155852
 11
359.58906707210895
 21
411.69141577155852
  0
LINE
  8
_0-0_
  6
CONTINUOUS
 62
    7
 10
385.58906707210895
 20
411.69141577155852
 11
387.58906707210895
 21
411.69141577155852
  0
LINE
  8
_0-0_
  6
CONTINUOUS
 62
    7
 10
385.58906707210895
 20
431.69141577155852
 11
387.58906707210895
 21
431.69141577155852
  0
LINE
  8
_0-8_
  6
CONTINUOUS
 62
    4
 10
387.58906707210895
 20
421.43111949671584
 11
385.58906707210895
 21
421.43111949671584
  0
POINT
  8
_0-8_
 62
    4
 10
387.58906707210895
 20
421.43111949671584
  0
POINT
  8
_0-8_
 62
    4
 10
385.58906707210895
 20
421.43111949671584
  0
LINE
  8
_0-8_
  6
CONTINUOUS
 62
    4
 10
387.58906707210895
 20
421.43111949671584
 11
387.58906707210895
 21
420.15970686539515
  0
LINE
  8
_0-8_
  6
CONTINUOUS
 62
    4
 10
385.58906707210895
 20
421.43111949671584
 11
385.58906707210895
 21
420.15970686539515
  0
TEXT
  8
_0-8_
 62
    7
 10
385.33906707210895
 20
422.43111949671584
 40
5
 41
1
 50
0
  1
2
  0
TEXT
  8
_0-9_
 62
    7
 10
548.7424495912835
 20
206.32503552165471
 40
2.9399999999999977
 41
1.0000000000000011
 50
0
  1
FLM_laser cover front_2016.06.16
  0
ENDSEC
  0
EOF
