  0
SECTION
  2
HEADER
  9
$ACADVER
  1
AC1009
  9
$INSBASE
 10
0
 20
0
 30
0
  9
$EXTMIN
 10
0
 20
0
  9
$EXTMAX
 10
840
 20
594
  9
$LIMMIN
 10
0
 20
0
  9
$LIMMAX
 10
840
 20
594
  9
$LTSCALE
 40
2
  0
ENDSEC
  0
SECTION
  2
TABLES
  0
TABLE
  2
LTYPE
 70
     9
  0
LTYPE
  2
CONTINUOUS
 70
    64
  3
実線
 72
    65
 73
     0
 40
0.0
  0
LTYPE
  2
DASHED1
 70
    64
  3
--  --  --  --  --  --  --  --  
 72
    65
 73
     2
 40
2.5
 49
1.25
 49
-1.25
  0
LTYPE
  2
DASHED2
 70
    64
  3
----    ----    ----    ----    
 72
    65
 73
     2
 40
5.0
 49
2.5
 49
-2.5
  0
LTYPE
  2
DASHED3
 70
    64
  3
------  ------  ------  ------  
 72
    65
 73
     2
 40
5.0
 49
3.75
 49
-1.25
  0
LTYPE
  2
CENTER1
 70
    64
  3
----- - ----- - ----- - ----- - 
 72
    65
 73
     4
 40
10.0
 49
6.25
 49
-1.25
 49
1.25
 49
-1.25
  0
LTYPE
  2
CENTER2
 70
    64
  3
----------  --  ----------  --  
 72
    65
 73
     4
 40
20.0
 49
12.5
 49
-2.5
 49
2.5
 49
-2.5
  0
LTYPE
  2
PHANTOM1
 70
    64
  3
--- - - --- - - --- - - --- - - 
 72
    65
 73
     6
 40
10.0
 49
3.25
 49
-1.25
 49
1.25
 49
-1.25
 49
1.25
 49
-1.25
  0
LTYPE
  2
PHANTOM2
 70
    64
  3
--------  -  -  --------  -  -  
 72
    65
 73
     6
 40
20.0
 49
10.0
 49
-2.5
 49
1.25
 49
-2.5
 49
1.25
 49
-2.5
  0
LTYPE
  2
DOT
 70
    64
  3
-   -   -   -   -   -   -   -   
 72
    65
 73
     2
 40
2.5
 49
0.625
 49
-1.875
  0
LTYPE
  2
DUMMY
 70
    64
  3
ダミー
 72
    65
 73
     0
 40
0.0
  0
LTYPE
  2
RAND1
 70
    64
  3
ランダム線1
 72
    65
 73
     4
 40
10.0
 49
1.0
 49
-2.0
 49
3.0
 49
-4.0
  0
LTYPE
  2
RAND2
 70
    64
  3
ランダム線2
 72
    65
 73
     4
 40
14.0
 49
2.0
 49
-3.0
 49
4.0
 49
-5.0
  0
LTYPE
  2
RAND3
 70
    64
  3
ランダム線3
 72
    65
 73
     4
 40
18.0
 49
3.0
 49
-4.0
 49
5.0
 49
-6.0
  0
LTYPE
  2
RAND4
 70
    64
  3
ランダム線4
 72
    65
 73
     4
 40
22.0
 49
4.0
 49
-5.0
 49
6.0
 49
-7.0
  0
LTYPE
  2
RAND5
 70
    64
  3
ランダム線5
 72
    65
 73
     4
 40
26.0
 49
5.0
 49
-6.0
 49
7.0
 49
-8.0
  0
LTYPE
  2
LONG1
 70
    64
  3
----------  --  ----------  --  
 72
    65
 73
     4
 40
40.0
 49
32.5
 49
-2.5
 49
2.5
 49
-2.5
  0
LTYPE
  2
LONG2
 70
    64
  3
--------  -  -  --------  -  -  
 72
    65
 73
     6
 40
40.0
 49
30.0
 49
-2.5
 49
1.25
 49
-2.5
 49
1.25
 49
-2.5
  0
LTYPE
  2
LONG3
 70
    64
  3
+++++++++++++++..+++++++++++++++
 72
    65
 73
     2
 40
40.0
 49
37.5
 49
-2.5
  0
LTYPE
  2
LONG4
 70
    64
  3
+++++++++++++++..+++++++++++++++
 72
    65
 73
     2
 40
80.0
 49
75.0
 49
-5.0
  0
LTYPE
  2
LONG5
 70
    64
  3
----------  --  ----------  --  
 72
    65
 73
     4
 40
60.0
 49
37.5
 49
-7.5
 49
7.5
 49
-7.5
  0
LTYPE
  2
dashed
 70
   64
  3
-------   -------------   ------
 72
   65
 73
    2
 40
7.5
 49
6
 49
-1.5
  0
LTYPE
  2
dashed_spaced
 70
   64
  3
----        --------        ----
 72
   65
 73
    2
 40
12
 49
6
 49
-6
  0
LTYPE
  2
long_dashed_dotted
 70
   64
  3
------------- --- --------------
 72
   65
 73
    4
 40
15.25
 49
12
 49
-1.5
 49
0.25
 49
-1.5
  0
LTYPE
  2
long_dashed_double-dotted
 70
   64
  3
----------- --- --- ------------
 72
   65
 73
    6
 40
17
 49
12
 49
-1.5
 49
0.25
 49
-1.5
 49
0.25
 49
-1.5
  0
LTYPE
  2
long_dashed_triplicate-dotted
 70
   64
  3
--------- --- --- --- ----------
 72
   65
 73
    8
 40
18.75
 49
12
 49
-1.5
 49
0.25
 49
-1.5
 49
0.25
 49
-1.5
 49
0.25
 49
-1.5
  0
LTYPE
  2
dotted
 70
   64
  3
   -       -       -       -    
 72
   65
 73
    2
 40
1.75
 49
0.25
 49
-1.5
  0
LTYPE
  2
chain
 70
   64
  3
-------------- -- --------------
 72
   65
 73
    4
 40
18.5
 49
12
 49
-1.5
 49
3.5
 49
-1.5
  0
LTYPE
  2
chain_double_dash
 70
   64
  3
------------ -- -- -------------
 72
   65
 73
    6
 40
23.5
 49
12
 49
-1.5
 49
3.5
 49
-1.5
 49
3.5
 49
-1.5
  0
LTYPE
  2
dashed_dotted
 70
   64
  3
-----------     -     ----------
 72
   65
 73
    4
 40
9.25
 49
6
 49
-1.5
 49
0.25
 49
-1.5
  0
LTYPE
  2
double-dashed_dotted
 70
   64
  3
------   -----------   -   -----
 72
   65
 73
    6
 40
16.75
 49
6
 49
-1.5
 49
6
 49
-1.5
 49
0.25
 49
-1.5
  0
LTYPE
  2
dashed_double-dotted
 70
   64
  3
---------    -    -    ---------
 72
   65
 73
    6
 40
11
 49
6
 49
-1.5
 49
0.25
 49
-1.5
 49
0.25
 49
-1.5
  0
LTYPE
  2
double-dashed_double-dotted
 70
   64
  3
-----   ---------   -   -   ----
 72
   65
 73
    8
 40
18.5
 49
6
 49
-1.5
 49
6
 49
-1.5
 49
0.25
 49
-1.5
 49
0.25
 49
-1.5
  0
LTYPE
  2
dashed_triplicate-dotted
 70
   64
  3
-------    -    -    -    ------
 72
   65
 73
    8
 40
12.75
 49
6
 49
-1.5
 49
0.25
 49
-1.5
 49
0.25
 49
-1.5
 49
0.25
 49
-1.5
  0
LTYPE
  2
double-dashed_triplicate-dotted
 70
   64
  3
-----  ---------  -  -  -  -----
 72
   65
 73
   10
 40
20.25
 49
6
 49
-1.5
 49
6
 49
-1.5
 49
0.25
 49
-1.5
 49
0.25
 49
-1.5
 49
0.25
 49
-1.5
  0
LTYPE
  2
undefined
 70
   64
  3
--------------------------------
 72
   65
 73
    0
 40
0
  0
LTYPE
  2
_
 70
   64
  3
                                
 72
   65
 73
    0
 40
0
  0
LTYPE
  2
__18
 70
   64
  3
                                
 72
   65
 73
    0
 40
0
  0
LTYPE
  2
__19
 70
   64
  3
                                
 72
   65
 73
    0
 40
0
  0
LTYPE
  2
__20
 70
   64
  3
                                
 72
   65
 73
    0
 40
0
  0
LTYPE
  2
__21
 70
   64
  3
                                
 72
   65
 73
    0
 40
0
  0
LTYPE
  2
__22
 70
   64
  3
                                
 72
   65
 73
    0
 40
0
  0
LTYPE
  2
__23
 70
   64
  3
                                
 72
   65
 73
    0
 40
0
  0
LTYPE
  2
__24
 70
   64
  3
                                
 72
   65
 73
    0
 40
0
  0
LTYPE
  2
__25
 70
   64
  3
                                
 72
   65
 73
    0
 40
0
  0
LTYPE
  2
__26
 70
   64
  3
                                
 72
   65
 73
    0
 40
0
  0
LTYPE
  2
__27
 70
   64
  3
                                
 72
   65
 73
    0
 40
0
  0
LTYPE
  2
__28
 70
   64
  3
                                
 72
   65
 73
    0
 40
0
  0
LTYPE
  2
__29
 70
   64
  3
                                
 72
   65
 73
    0
 40
0
  0
LTYPE
  2
__30
 70
   64
  3
                                
 72
   65
 73
    0
 40
0
  0
LTYPE
  2
__31
 70
   64
  3
                                
 72
   65
 73
    0
 40
0
  0
LTYPE
  2
__32
 70
   64
  3
                                
 72
   65
 73
    0
 40
0
  0
ENDTAB
  0
TABLE
  2
STYLE
  5
3
100
AcDbSymbolTable
 70
     1
  0
STYLE
  5
10
100
AcDbSymbolTableRecord
100
AcDbTextStyleTableRecord
  2
STANDARD
 70
     0
 40
0.0
 41
1.0
 50
0.0
 71
     0
 42
0.2
  3
txt
  4
bigfont.shx
  0
STYLE
  5
26
100
AcDbSymbolTableRecord
100
AcDbTextStyleTableRecord
  2
TATEGAKI
 70
    68
 40
0.0
 41
1.0
 50
0.0
 71
     0
 42
1.0
  3
txt
  4
bigfont.shx
  0
ENDTAB
  0
TABLE
  2
LAYER
 70
    6
  0
LAYER
  2
_2-0_
 70
   64
 62
    7
  6
CONTINUOUS
  0
LAYER
  2
_2-1_
 70
   64
 62
    7
  6
CONTINUOUS
  0
LAYER
  2
_2-8_
 70
   64
 62
    7
  6
CONTINUOUS
  0
LAYER
  2
_2-9_
 70
   64
 62
    7
  6
CONTINUOUS
  0
LAYER
  2
_2-a_
 70
   64
 62
    7
  6
CONTINUOUS
  0
LAYER
  2
ADD_LINE
 70
   64
 62
    7
  6
CONTINUOUS
  0
ENDTAB
  0
ENDSEC
  0
SECTION
  2
BLOCKS
  0
ENDSEC
  0
SECTION
  2
ENTITIES
  0
LINE
  8
_2-9_
  6
CONTINUOUS
 62
    4
 10
484.43150537213603
 20
202.54460154429648
 11
426.58935737213574
 21
202.54460154429654
  0
LINE
  8
_2-9_
  6
CONTINUOUS
 62
    4
 10
455.51043137213583
 20
220.1487335442965
 11
455.51043137213583
 21
208.58030394429653
  0
LINE
  8
_2-9_
  6
CONTINUOUS
 62
    4
 10
426.58935737213574
 20
232.22013834429654
 11
426.58935737213574
 21
188.96427114429645
  0
LINE
  8
_2-9_
  6
CONTINUOUS
 62
    3
 10
216.34572377213561
 20
188.96427114429653
 11
618.72588377213594
 21
188.96427114429642
  0
LINE
  8
_2-9_
  6
CONTINUOUS
 62
    4
 10
536.74092617213591
 20
188.96427114429645
 11
536.74092617213603
 21
220.1487335442965
  0
LINE
  8
_2-9_
  6
CONTINUOUS
 62
    4
 10
618.72588377213594
 20
200.02972554429647
 11
503.04158777213593
 21
200.02972554429647
  0
LINE
  8
_2-9_
  6
CONTINUOUS
 62
    4
 10
539.75877737213591
 20
210.0892295442965
 11
615.70803257213606
 21
210.0892295442965
  0
LINE
  8
_2-9_
  6
CONTINUOUS
 62
    4
 10
534.72902537213588
 20
210.0892295442965
 11
505.05348857213585
 21
210.0892295442965
  0
LINE
  8
_2-9_
  6
CONTINUOUS
 62
    4
 10
544.92939885581779
 20
220.1487335442965
 11
544.92939885581768
 21
232.22013834429654
  0
LINE
  8
_2-9_
  6
CONTINUOUS
 62
    4
 10
426.58935737213574
 20
220.14873354429648
 11
618.72588377213617
 21
220.14873354429645
  0
LINE
  8
_2-9_
  6
CONTINUOUS
 62
    4
 10
595.58902457213583
 20
232.22013834429654
 11
595.58902457213583
 21
220.14873354429656
  0
LINE
  8
_2-9_
  6
CONTINUOUS
 62
    4
 10
572.45216537213616
 20
220.1487335442965
 11
572.45216537213616
 21
232.22013834429654
  0
LINE
  8
_2-9_
  6
CONTINUOUS
 62
    4
 10
426.58935737213574
 20
232.22013834429652
 11
618.72588377213594
 21
232.22013834429652
  0
LINE
  8
_2-9_
  6
CONTINUOUS
 62
    4
 10
503.04158777213593
 20
232.22013834429646
 11
503.04158777213593
 21
188.9642711442963
  0
TEXT
  8
_2-9_
 62
    7
 10
472.63631823494501
 20
228.37916199427971
 40
3.0952320461225611
 41
1.0422794146408436
 50
0
  1
Material
  0
TEXT
  8
_2-9_
 62
    7
 10
427.67061981298355
 20
228.37916199427971
 40
3.0952320461225611
 41
1.0422794146408467
 50
0
  1
Model
  0
LINE
  8
_2-9_
  6
CONTINUOUS
 62
    4
 10
503.04158777213593
 20
202.54460154429648
 11
484.43150537213603
 21
202.54460154429648
  0
LINE
  8
_2-9_
  6
CONTINUOUS
 62
    3
 10
618.72588377213606
 20
466.60658154429666
 11
216.34572377213561
 21
466.60658154429666
  0
LINE
  8
_2-9_
  6
CONTINUOUS
 62
    3
 10
216.34572377213561
 20
466.60658154429666
 11
216.34572377213561
 21
188.96427114429653
  0
LINE
  8
_2-9_
  6
CONTINUOUS
 62
    3
 10
618.72588377213594
 20
188.96427114429642
 11
618.72588377213606
 21
466.60658154429666
  0
LINE
  8
_2-9_
  6
CONTINUOUS
 62
    4
 10
484.43150537213603
 20
208.5803039442965
 11
426.58935737213574
 21
208.5803039442965
  0
LINE
  8
_2-9_
  6
CONTINUOUS
 62
    4
 10
618.72588377213594
 20
200.02972554429644
 11
503.04158777213593
 21
200.02972554429644
  0
LINE
  8
_2-9_
  6
CONTINUOUS
 62
    4
 10
539.75877737213591
 20
210.08922954429647
 11
615.70803257213606
 21
210.08922954429647
  0
LINE
  8
_2-9_
  6
CONTINUOUS
 62
    4
 10
536.74092617213591
 20
188.96427114429642
 11
536.74092617213603
 21
220.14873354429648
  0
LINE
  8
_2-9_
  6
CONTINUOUS
 62
    4
 10
469.84522457213586
 20
232.22013834429652
 11
469.84522457213586
 21
220.14873354429653
  0
LINE
  8
_2-9_
  6
CONTINUOUS
 62
    4
 10
595.58902457213583
 20
232.22013834429652
 11
595.58902457213583
 21
220.14873354429653
  0
LINE
  8
_2-9_
  6
CONTINUOUS
 62
    4
 10
572.45216537213616
 20
220.14873354429648
 11
572.45216537213616
 21
232.22013834429652
  0
LINE
  8
_2-9_
  6
CONTINUOUS
 62
    4
 10
534.72902537213588
 20
210.08922954429647
 11
505.05348857213585
 21
210.08922954429647
  0
LINE
  8
_2-9_
  6
CONTINUOUS
 62
    4
 10
484.4315053721358
 20
188.96427114429642
 11
484.43150537213614
 21
220.14873354429648
  0
LINE
  8
_2-9_
  6
CONTINUOUS
 62
    4
 10
503.04158777213593
 20
202.54460154429646
 11
484.43150537213603
 21
202.54460154429646
  0
LINE
  8
_2-9_
  6
CONTINUOUS
 62
    4
 10
484.43150537213603
 20
202.54460154429646
 11
426.58935737213574
 21
202.54460154429651
  0
LINE
  8
_2-9_
  6
CONTINUOUS
 62
    4
 10
426.58935737213574
 20
232.22013834429652
 11
426.58935737213574
 21
188.96427114429642
  0
LINE
  8
_2-9_
  6
CONTINUOUS
 62
    4
 10
455.51043137213583
 20
220.14873354429648
 11
455.51043137213583
 21
208.5803039442965
  0
TEXT
  8
_2-9_
 62
    7
 10
575.57254735123161
 20
228.7231635057932
 40
3.0952320461225895
 41
1.0422794146408345
 50
0
  1
Quantity
  0
TEXT
  8
_2-9_
 62
    7
 10
588.70935556756012
 20
222.55399058937988
 40
3.6755879538774252
 41
1.1789474007825669
 50
0
  1
1
  0
TEXT
  8
_2-9_
 62
    7
 10
485.82400218521587
 20
216.65023609188833
 40
3.0952320461225327
 41
1.0738636393269401
 50
0
  1
Scale
  0
TEXT
  8
_2-9_
 62
    7
 10
503.92916930939151
 20
216.52696796609987
 40
3.0952320461225327
 41
1.0029481159751623
 50
0
  1
Machining tolerance
  0
TEXT
  8
_2-9_
 62
    7
 10
540.66378822855677
 20
215.97248315222564
 40
3.4821359077549232
 41
1.0144927804980592
 50
0
  1
Equipment
  0
TEXT
  8
_2-9_
 62
    7
 10
512.04432488750376
 20
212.15034137540971
 40
3.0952320461225895
 41
1.0010593247962836
 50
0
  1
JIS B 0405
  0
TEXT
  8
_2-9_
 62
    7
 10
503.90622294237738
 20
206.45367001382132
 40
3.0952320461225327
 41
1.0738636393269385
 50
0
  1
Grade
  0
TEXT
  8
_2-9_
 62
    7
 10
450.97586958440587
 20
203.91243845046193
 40
2.9017799999999738
 41
1.1030302625714057
 50
0
  1
Author
  0
TEXT
  8
_2-9_
 62
    7
 10
572.37853956904178
 20
202.81120813414893
 40
3.6755879538774252
 41
1.1789474007825875
 50
0
  1
Main
  0
TEXT
  8
_2-9_
 62
    7
 10
486.46289767235436
 20
198.64483271865709
 40
3.0952320461225327
 41
1.0738636393269418
 50
0
  1
Unit
  0
TEXT
  8
_2-9_
 62
    7
 10
438.14315042838223
 20
196.19509345470507
 40
2.9017800000000022
 41
1.1030302625713915
 50
0
  1
Hirotaka Shiojima
  0
TEXT
  8
_2-9_
 62
    7
 10
504.34503291979712
 20
196.14965105622318
 40
3.0952320461225611
 41
1.0422794146408458
 50
0
  1
Projection method
  0
TEXT
  8
_2-9_
 62
    7
 10
492.02361704486322
 20
192.90672409195835
 40
3.4821359077548948
 41
1.0606060887025235
 50
0
  1
mm
  0
TEXT
  8
_2-9_
 62
    7
 10
525.96994066089087
 20
190.74342412094987
 40
3.4821359077548664
 41
1.0606060887025317
 50
0
  1
Ａ３
  0
TEXT
  8
_2-9_
 62
    7
 10
451.58577596296448
 20
191.72200215811338
 40
2.9017800000000307
 41
1.1030302625713815
 50
0
  1
SmartDIYs Co.,Ltd
  0
TEXT
  8
_2-9_
 62
    7
 10
504.41319891105269
 20
228.37916199427971
 40
3.0952320461225611
 41
1.0422794146408438
 50
0
  1
Treatment
  0
LINE
  8
_2-9_
  6
CONTINUOUS
 62
    4
 10
544.92939885581779
 20
220.14873354429648
 11
544.92939885581768
 21
232.22013834429652
  0
TEXT
  8
_2-9_
 62
    7
 10
547.78179486225213
 20
228.31793147271247
 40
3.0952320461225895
 41
1.0271739158779218
 50
0
  1
Color
  0
TEXT
  8
_2-9_
 62
    7
 10
558.67974500783771
 20
222.40906847817516
 40
3.6755879538774252
 41
1.1789474007825813
 50
0
  1
---
  0
TEXT
  8
_2-9_
 62
    7
 10
467.61063469810404
 20
210.69265197574038
 40
2.4499999999999886
 41
0.9999999999999992
 50
0
  1
---
  0
TEXT
  8
_2-9_
 62
    7
 10
457.85879743617829
 20
215.91194515817952
 40
3.0952320461225327
 41
1.0422794146408545
 50
0
  1
Surface
  0
TEXT
  8
_2-9_
 62
    7
 10
427.77918672685803
 20
216.04929497876998
 40
3.0952320461225895
 41
1.018318968327256
 50
0
  1
Date
  0
TEXT
  8
_2-9_
 62
    7
 10
510.60492068590958
 20
202.00463968737219
 40
3.0952320461225327
 41
1.0183189683272709
 50
0
  1
ｍ（midium）
  0
TEXT
  8
_2-9_
 62
    7
 10
538.72309137999741
 20
195.87240864928611
 40
3.4821359077549232
 41
1.0294117919759751
 50
0
  1
Drawing number
  0
TEXT
  8
_2-9_
 62
    7
 10
562.45088561455339
 20
212.0034803142307
 40
3.869039999999984
 41
1.0069231051665133
 50
0
  1
FABOOL Laser Mini
  0
TEXT
  8
_2-9_
 62
    7
 10
509.31335819499515
 20
222.43311378555893
 40
3.6755879538774821
 41
1.1789474007825671
 50
0
  1
Black anodized
  0
LINE
  8
_2-9_
  6
CONTINUOUS
 62
    3
 10
618.72588377213606
 20
466.60658154429666
 11
216.34572377213561
 21
466.60658154429666
  0
LINE
  8
_2-9_
  6
CONTINUOUS
 62
    3
 10
216.34572377213561
 20
466.60658154429666
 11
216.34572377213561
 21
188.9642711442965
  0
LINE
  8
_2-9_
  6
CONTINUOUS
 62
    3
 10
216.34572377213561
 20
188.9642711442965
 11
618.72588377213594
 21
188.96427114429639
  0
LINE
  8
_2-9_
  6
CONTINUOUS
 62
    3
 10
618.72588377213594
 20
188.96427114429639
 11
618.72588377213606
 21
466.60658154429666
  0
POINT
  8
_2-8_
 62
    4
 10
329.52267067592288
 20
274.69141577155852
  0
LINE
  8
_2-8_
  6
CONTINUOUS
 62
    4
 10
329.52267067592288
 20
274.69141577155852
 11
348.81301214122846
 21
274.69141577155852
  0
TEXT
  8
_2-8_
 62
    7
 10
328.52267067592288
 20
316.19141577155852
 40
5
 41
1
 50
90
  1
88
  0
LINE
  8
_2-8_
  6
CONTINUOUS
 62
    4
 10
329.52267067592288
 20
362.69141577155852
 11
329.52267067592288
 21
274.69141577155852
  0
POINT
  8
_2-8_
 62
    4
 10
329.52267067592288
 20
362.69141577155852
  0
LINE
  8
_2-8_
  6
CONTINUOUS
 62
    4
 10
329.52267067592288
 20
362.69141577155852
 11
348.81301214122846
 21
362.69141577155852
  0
LINE
  8
_2-8_
  6
CONTINUOUS
 62
    4
 10
364.58906707210895
 20
370.61579402946279
 11
380.58906707210895
 21
370.61579402946279
  0
POINT
  8
_2-8_
 62
    4
 10
364.58906707210895
 20
370.61579402946279
  0
POINT
  8
_2-8_
 62
    4
 10
380.58906707210895
 20
370.61579402946279
  0
LINE
  8
_2-8_
  6
CONTINUOUS
 62
    4
 10
364.58906707210895
 20
370.61579402946279
 11
364.58906707210895
 21
358.22379344712573
  0
LINE
  8
_2-8_
  6
CONTINUOUS
 62
    4
 10
380.58906707210895
 20
370.61579402946279
 11
380.58906707210895
 21
358.22379344712573
  0
TEXT
  8
_2-8_
 62
    7
 10
370.08906707210895
 20
371.61579402946279
 40
5
 41
1
 50
0
  1
16
  0
LINE
  8
_2-8_
  6
CONTINUOUS
 62
    4
 10
259.91960284540011
 20
359.02720969158679
 11
262.91960284540011
 21
364.22336211429342
  0
LINE
  8
_2-8_
  6
CONTINUOUS
 62
    4
 10
259.91960284540011
 20
359.02720969158679
 11
265.11575526810674
 21
362.02720969158679
  0
LINE
  8
_2-8_
  6
CONTINUOUS
 62
    4
 10
259.91960284540011
 20
359.02720969158679
 11
280.22651204731494
 21
379.33411889350162
  0
LINE
  8
_2-8_
  6
CONTINUOUS
 62
    4
 10
280.22651204731494
 20
379.33411889350162
 11
300.46694140033276
 21
379.33411889350162
  0
LINE
  8
_2-8_
  6
CONTINUOUS
 62
    4
 10
352.58906707210895
 20
419.4096883653433
 11
354.58906707210895
 21
419.4096883653433
  0
POINT
  8
_2-8_
 62
    4
 10
352.58906707210895
 20
419.4096883653433
  0
POINT
  8
_2-8_
 62
    4
 10
354.58906707210895
 20
419.4096883653433
  0
LINE
  8
_2-8_
  6
CONTINUOUS
 62
    4
 10
352.58906707210895
 20
419.4096883653433
 11
352.58906707210895
 21
428.73717625287918
  0
LINE
  8
_2-8_
  6
CONTINUOUS
 62
    4
 10
354.58906707210895
 20
419.4096883653433
 11
354.58906707210895
 21
428.73717625287918
  0
TEXT
  8
_2-8_
 62
    7
 10
352.33906707210895
 20
413.10733168457585
 40
5
 41
1
 50
0
  1
2
  0
TEXT
  8
_2-8_
 62
    7
 10
283.51231153597132
 20
380.13598714473437
 40
5.8799999999999955
 41
1.0000000000000011
 50
0
  1
6×M3
  0
LINE
  8
_2-8_
  6
CONTINUOUS
 62
    4
 10
252.58906707210895
 20
393.63063583469579
 11
262.58906707210895
 21
393.63063583469579
  0
POINT
  8
_2-8_
 62
    4
 10
252.58906707210895
 20
393.63063583469579
  0
POINT
  8
_2-8_
 62
    4
 10
262.58906707210895
 20
393.63063583469579
  0
LINE
  8
_2-8_
  6
CONTINUOUS
 62
    4
 10
252.58906707210895
 20
393.63063583469579
 11
252.58906707210895
 21
368.15125414042967
  0
LINE
  8
_2-8_
  6
CONTINUOUS
 62
    4
 10
262.58906707210895
 20
393.63063583469579
 11
262.58906707210895
 21
368.15125414042967
  0
TEXT
  8
_2-8_
 62
    7
 10
255.08906707210895
 20
394.63063583469579
 40
5
 41
1
 50
0
  1
10
  0
LINE
  8
_2-8_
  6
CONTINUOUS
 62
    4
 10
352.58906707210895
 20
381.6070377001468
 11
392.58906707210895
 21
381.6070377001468
  0
POINT
  8
_2-8_
 62
    4
 10
352.58906707210895
 20
381.6070377001468
  0
POINT
  8
_2-8_
 62
    4
 10
392.58906707210895
 20
381.6070377001468
  0
LINE
  8
_2-8_
  6
CONTINUOUS
 62
    4
 10
352.58906707210895
 20
381.6070377001468
 11
352.58906707210895
 21
364.75943918174136
  0
LINE
  8
_2-8_
  6
CONTINUOUS
 62
    4
 10
392.58906707210895
 20
381.6070377001468
 11
392.58906707210895
 21
364.75943918174136
  0
TEXT
  8
_2-8_
 62
    7
 10
370.08906707210895
 20
382.6070377001468
 40
5
 41
1
 50
0
  1
40
  0
LINE
  8
_2-8_
  6
CONTINUOUS
 62
    4
 10
239.86873034534113
 20
274.69141577155852
 11
239.86873034534113
 21
281.69141577155847
  0
POINT
  8
_2-8_
 62
    4
 10
239.86873034534113
 20
274.69141577155852
  0
POINT
  8
_2-8_
 62
    4
 10
239.86873034534113
 20
281.69141577155847
  0
LINE
  8
_2-8_
  6
CONTINUOUS
 62
    4
 10
239.86873034534113
 20
274.69141577155852
 11
248.65688461093484
 21
274.69141577155852
  0
LINE
  8
_2-8_
  6
CONTINUOUS
 62
    4
 10
239.86873034534113
 20
281.69141577155847
 11
248.65688461093484
 21
281.69141577155847
  0
TEXT
  8
_2-8_
 62
    7
 10
238.86873034534113
 20
276.94141577155847
 40
5
 41
1
 50
90
  1
7
  0
LINE
  8
_2-8_
  6
CONTINUOUS
 62
    4
 10
239.86873034534113
 20
281.69141577155847
 11
239.86873034534113
 21
318.69141577155852
  0
POINT
  8
_2-8_
 62
    4
 10
239.86873034534113
 20
318.69141577155852
  0
LINE
  8
_2-8_
  6
CONTINUOUS
 62
    4
 10
239.86873034534113
 20
318.69141577155852
 11
248.65688461093484
 21
318.69141577155852
  0
TEXT
  8
_2-8_
 62
    7
 10
238.86873034534113
 20
297.69141577155847
 40
5
 41
1
 50
90
  1
37
  0
LINE
  8
_2-8_
  6
CONTINUOUS
 62
    4
 10
239.86873034534113
 20
318.69141577155852
 11
239.86873034534113
 21
355.69141577155847
  0
POINT
  8
_2-8_
 62
    4
 10
239.86873034534113
 20
355.69141577155847
  0
LINE
  8
_2-8_
  6
CONTINUOUS
 62
    4
 10
239.86873034534113
 20
355.69141577155847
 11
248.65688461093484
 21
355.69141577155847
  0
TEXT
  8
_2-8_
 62
    7
 10
238.86873034534113
 20
334.69141577155847
 40
5
 41
1
 50
90
  1
37
  0
LINE
  8
_2-8_
  6
CONTINUOUS
 62
    4
 10
343.67561429713203
 20
443.69141577155847
 11
343.67561429713203
 21
433.69141577155847
  0
POINT
  8
_2-8_
 62
    4
 10
343.67561429713203
 20
443.69141577155847
  0
POINT
  8
_2-8_
 62
    4
 10
343.67561429713203
 20
433.69141577155847
  0
LINE
  8
_2-8_
  6
CONTINUOUS
 62
    4
 10
343.67561429713203
 20
443.69141577155847
 11
351.22330669659209
 21
443.69141577155847
  0
LINE
  8
_2-8_
  6
CONTINUOUS
 62
    4
 10
343.67561429713203
 20
433.69141577155847
 11
351.22330669659209
 21
433.69141577155847
  0
TEXT
  8
_2-8_
 62
    7
 10
342.67561429713203
 20
436.19141577155847
 40
5
 41
1
 50
90
  1
10
  0
LINE
  8
_2-8_
  6
CONTINUOUS
 62
    4
 10
258.58906707210895
 20
295.50143967284077
 11
262.58906707210895
 21
295.50143967284077
  0
POINT
  8
_2-8_
 62
    4
 10
258.58906707210895
 20
295.50143967284077
  0
POINT
  8
_2-8_
 62
    4
 10
262.58906707210895
 20
295.50143967284077
  0
LINE
  8
_2-8_
  6
CONTINUOUS
 62
    4
 10
258.58906707210895
 20
295.50143967284077
 11
258.58906707210895
 21
285.46548506332056
  0
LINE
  8
_2-8_
  6
CONTINUOUS
 62
    4
 10
262.58906707210895
 20
295.50143967284077
 11
262.58906707210895
 21
285.46548506332056
  0
TEXT
  8
_2-8_
 62
    7
 10
259.33906707210895
 20
296.50143967284077
 40
5
 41
1
 50
0
  1
4
  0
TEXT
  8
_2-8_
 62
    7
 10
248.55945954556378
 20
226.83448873144505
 40
8
 41
1
 50
0
  1
No indication: ≦R2
  0
TEXT
  8
_2-8_
 62
    7
 10
249.03375216494356
 20
236.81366238365189
 40
8
 41
1
 50
0
  1
Remarks
  0
LINE
  8
_2-8_
  6
CONTINUOUS
 62
    4
 10
383.50022295799477
 20
356.78885989609495
 11
386.50022295799477
 21
361.98501231880158
  0
LINE
  8
_2-8_
  6
CONTINUOUS
 62
    4
 10
383.50022295799477
 20
356.78885989609495
 11
388.6963753807014
 21
359.78885989609495
  0
LINE
  8
_2-8_
  6
CONTINUOUS
 62
    4
 10
383.50022295799477
 20
356.78885989609495
 11
403.8071321599096
 21
377.09576909800978
  0
LINE
  8
_2-8_
  6
CONTINUOUS
 62
    4
 10
403.8071321599096
 20
377.09576909800978
 11
465.15316120420545
 21
377.09576909800978
  0
TEXT
  8
_2-8_
 62
    7
 10
404.64407635695159
 20
377.93271329505183
 40
5.8799999999999955
 41
1.0000000000000011
 50
0
  1
6×M3 Countersinking
  0
LINE
  8
_2-8_
  6
CONTINUOUS
 62
    4
 10
343.31445626942548
 20
274.69141577155852
 11
343.31445626942548
 21
314.19141577155852
  0
POINT
  8
_2-8_
 62
    4
 10
343.31445626942548
 20
274.69141577155852
  0
POINT
  8
_2-8_
 62
    4
 10
343.31445626942548
 20
314.19141577155852
  0
LINE
  8
_2-8_
  6
CONTINUOUS
 62
    4
 10
343.31445626942548
 20
274.69141577155852
 11
348.81301214122846
 21
274.69141577155852
  0
LINE
  8
_2-8_
  6
CONTINUOUS
 62
    4
 10
343.31445626942548
 20
314.19141577155852
 11
348.81301214122846
 21
314.19141577155852
  0
TEXT
  8
_2-8_
 62
    7
 10
342.31445626942548
 20
289.44141577155852
 40
5
 41
1
 50
90
  1
39.5
  0
LINE
  8
_2-8_
  6
CONTINUOUS
 62
    4
 10
337.03074244275808
 20
274.69141577155852
 11
337.03074244275808
 21
332.94141577155852
  0
POINT
  8
_2-8_
 62
    4
 10
337.03074244275808
 20
274.69141577155852
  0
POINT
  8
_2-8_
 62
    4
 10
337.03074244275808
 20
332.94141577155852
  0
LINE
  8
_2-8_
  6
CONTINUOUS
 62
    4
 10
337.03074244275808
 20
274.69141577155852
 11
348.81301214122846
 21
274.69141577155852
  0
LINE
  8
_2-8_
  6
CONTINUOUS
 62
    4
 10
337.03074244275808
 20
332.94141577155852
 11
348.81301214122846
 21
332.94141577155852
  0
TEXT
  8
_2-8_
 62
    7
 10
336.03074244275808
 20
297.56641577155852
 40
5
 41
1
 50
90
  1
58.25
  0
LINE
  8
_2-8_
  6
CONTINUOUS
 62
    4
 10
403.8617315275618
 20
314.19141577155852
 11
403.8617315275618
 21
354.19141577155852
  0
POINT
  8
_2-8_
 62
    4
 10
403.8617315275618
 20
314.19141577155852
  0
POINT
  8
_2-8_
 62
    4
 10
403.8617315275618
 20
354.19141577155852
  0
LINE
  8
_2-8_
  6
CONTINUOUS
 62
    4
 10
403.8617315275618
 20
314.19141577155852
 11
394.0362299177371
 21
314.19141577155852
  0
LINE
  8
_2-8_
  6
CONTINUOUS
 62
    4
 10
403.8617315275618
 20
354.19141577155852
 11
394.0362299177371
 21
354.19141577155852
  0
TEXT
  8
_2-8_
 62
    7
 10
402.8617315275618
 20
331.69141577155852
 40
5
 41
1
 50
90
  1
40
  0
LINE
  8
_2-8_
  6
CONTINUOUS
 62
    4
 10
352.58906707210895
 20
343.01894621390824
 11
372.58906707210895
 21
343.01894621390824
  0
POINT
  8
_2-8_
 62
    4
 10
352.58906707210895
 20
343.01894621390824
  0
POINT
  8
_2-8_
 62
    4
 10
372.58906707210895
 20
343.01894621390824
  0
LINE
  8
_2-8_
  6
CONTINUOUS
 62
    4
 10
352.58906707210895
 20
343.01894621390824
 11
352.58906707210895
 21
337.7032425652618
  0
LINE
  8
_2-8_
  6
CONTINUOUS
 62
    4
 10
372.58906707210895
 20
343.01894621390824
 11
372.58906707210895
 21
337.7032425652618
  0
TEXT
  8
_2-8_
 62
    7
 10
360.08906707210895
 20
344.01894621390824
 40
5
 41
1
 50
0
  1
20
  0
LINE
  8
_2-1_
  6
DASHED1
 62
    4
 10
486.58906707210895
 20
320.75638571522427
 11
486.58906707210895
 21
314.88823430130935
  0
LINE
  8
_2-1_
  6
DASHED1
 62
    4
 10
484.17813531006516
 20
318.69141577155852
 11
488.82482121890757
 21
318.69141577155852
  0
LINE
  8
_2-1_
  6
DASHED1
 62
    4
 10
350.58906707210895
 20
318.69141577155852
 11
356.85351690990217
 21
318.69141577155852
  0
LINE
  8
_2-1_
  6
DASHED1
 62
    4
 10
387.78794921832059
 20
318.69141577155852
 11
394.28181859604206
 21
318.69141577155852
  0
LINE
  8
_2-1_
  6
CENTER1
 62
    4
 10
368.30581941706339
 20
318.69141577155852
 11
377.51913819799404
 21
318.69141577155852
  0
LINE
  8
_2-1_
  6
CENTER1
 62
    4
 10
372.58906707210895
 20
322.75182331913112
 11
372.58906707210895
 21
315.9966405062288
  0
LINE
  8
_2-1_
  6
DASHED1
 62
    4
 10
258.58906707210895
 20
316.62644582789278
 11
258.58906707210895
 21
322.4945972418077
  0
LINE
  8
_2-1_
  6
DASHED1
 62
    4
 10
260.99999883415273
 20
318.69141577155852
 11
256.35331292531032
 21
318.69141577155852
  0
LINE
  8
_2-1_
  6
DASHED1
 62
    4
 10
350.93321436720169
 20
437.69141577155847
 11
355.39470158089449
 21
437.69141577155847
  0
LINE
  8
_2-1_
  6
DASHED1
 62
    4
 10
389.61308057765768
 20
437.69141577155847
 11
393.37873951031582
 21
437.69141577155847
  0
LINE
  8
_2-1_
  6
DASHED1
 62
    4
 10
546.58906707210895
 20
318.69141577155852
 11
552.85351690990217
 21
318.69141577155852
  0
LINE
  8
_2-1_
  6
DASHED1
 62
    4
 10
583.78794921832059
 20
318.69141577155852
 11
590.28181859604206
 21
318.69141577155852
  0
LINE
  8
_2-1_
  6
CENTER1
 62
    4
 10
564.3058194170635
 20
318.69141577155852
 11
573.51913819799404
 21
318.69141577155852
  0
LINE
  8
_2-1_
  6
CENTER1
 62
    4
 10
568.58906707210895
 20
322.75182331913112
 11
568.58906707210895
 21
315.9966405062288
  0
LINE
  8
_2-1_
  6
DASHED1
 62
    4
 10
258.58906707210895
 20
353.81666344852079
 11
258.58906707210895
 21
357.59456570368627
  0
LINE
  8
_2-1_
  6
DASHED1
 62
    4
 10
261.05715747393316
 20
355.69141577155847
 11
255.70367339067337
 21
355.69141577155847
  0
LINE
  8
_2-1_
  6
DASHED1
 62
    4
 10
350.3596475321807
 20
355.69141577155847
 11
356.85351690990217
 21
355.69141577155847
  0
LINE
  8
_2-1_
  6
DASHED1
 62
    4
 10
387.78794921832059
 20
355.69141577155847
 11
394.28181859604206
 21
355.69141577155847
  0
LINE
  8
_2-1_
  6
DASHED1
 62
    4
 10
484.12097667028468
 20
355.69141577155852
 11
489.47446075354446
 21
355.69141577155852
  0
LINE
  8
_2-1_
  6
DASHED1
 62
    4
 10
486.58906707210895
 20
357.85779212218154
 11
486.58906707210895
 21
353.54990518374234
  0
LINE
  8
_2-1_
  6
DASHED1
 62
    4
 10
546.3596475321807
 20
355.69141577155847
 11
552.85351690990217
 21
355.69141577155847
  0
LINE
  8
_2-1_
  6
DASHED1
 62
    4
 10
583.78794921832059
 20
355.69141577155847
 11
590.28181859604206
 21
355.69141577155847
  0
LINE
  8
_2-1_
  6
DASHED1
 62
    4
 10
261.0571574739331
 20
281.69141577155847
 11
255.70367339067337
 21
281.69141577155847
  0
LINE
  8
_2-1_
  6
DASHED1
 62
    4
 10
258.58906707210895
 20
279.52503942093551
 11
258.58906707210895
 21
283.83292635937471
  0
LINE
  8
_2-1_
  6
DASHED1
 62
    4
 10
350.3596475321807
 20
281.69141577155852
 11
356.85351690990217
 21
281.69141577155852
  0
LINE
  8
_2-1_
  6
DASHED1
 62
    4
 10
387.78794921832059
 20
281.69141577155852
 11
394.28181859604206
 21
281.69141577155852
  0
LINE
  8
_2-1_
  6
DASHED1
 62
    4
 10
486.58906707210895
 20
283.56616809459626
 11
486.58906707210895
 21
279.78826583943078
  0
LINE
  8
_2-1_
  6
DASHED1
 62
    4
 10
484.12097667028468
 20
281.69141577155852
 11
489.47446075354446
 21
281.69141577155852
  0
LINE
  8
_2-1_
  6
DASHED1
 62
    4
 10
546.3596475321807
 20
281.69141577155852
 11
552.85351690990217
 21
281.69141577155852
  0
LINE
  8
_2-1_
  6
DASHED1
 62
    4
 10
583.78794921832059
 20
281.69141577155852
 11
590.28181859604206
 21
281.69141577155852
  0
LINE
  8
_2-1_
  6
DASHED1
 62
    4
 10
394.24491977701626
 20
221.83214767465296
 11
389.7834325633234
 21
221.83214767465296
  0
LINE
  8
_2-1_
  6
DASHED1
 62
    4
 10
355.56505356656021
 20
221.83214767465296
 11
351.79939463390207
 21
221.83214767465296
  0
LINE
  8
_2-1_
  6
DASHED1
 62
    4
 10
364.58906707210895
 20
315.14002616223172
 11
364.58906707210895
 21
313.3148083068412
  0
LINE
  8
_2-1_
  6
DASHED1
 62
    4
 10
380.58906707210895
 20
315.14002616223172
 11
380.58906707210895
 21
313.3148083068412
  0
LINE
  8
_2-1_
  6
DASHED1
 62
    4
 10
364.58906707210895
 20
355.03511500280035
 11
364.58906707210895
 21
351.88217419084259
  0
LINE
  8
_2-1_
  6
DASHED1
 62
    4
 10
380.58906707210895
 20
355.03511500280035
 11
380.58906707210895
 21
351.88217419084259
  0
LINE
  8
_2-1_
  6
DASHED1
 62
    4
 10
372.58906707210895
 20
329.12765333467024
 11
372.58906707210895
 21
336.91055553740102
  0
LINE
  8
_2-1_
  6
DASHED1
 62
    4
 10
487.6835389512911
 20
354.19141577155852
 11
494.71808365577112
 21
354.19141577155852
  0
LINE
  8
_2-1_
  6
DASHED1
 62
    4
 10
487.6835389512911
 20
314.19141577155852
 11
494.71808365577112
 21
314.19141577155852
  0
LINE
  8
_2-1_
  6
DASHED1
 62
    4
 10
560.58906707210895
 20
355.27686428260591
 11
560.58906707210895
 21
353.38217419084259
  0
LINE
  8
_2-1_
  6
DASHED1
 62
    4
 10
576.58906707210895
 20
355.27686428260591
 11
576.58906707210895
 21
353.38217419084259
  0
LINE
  8
_2-1_
  6
DASHED1
 62
    4
 10
560.58906707210895
 20
315.27686428260591
 11
560.58906707210895
 21
313.38217419084265
  0
LINE
  8
_2-1_
  6
DASHED1
 62
    4
 10
576.58906707210895
 20
315.27686428260591
 11
576.58906707210895
 21
313.38217419084265
  0
LINE
  8
_2-1_
  6
DASHED1
 62
    4
 10
568.58906707210895
 20
329.39141577155851
 11
568.58906707210895
 21
336.74797681047306
  0
LINE
  8
_2-1_
  6
DASHED1
 62
    4
 10
247.93630925306505
 20
354.19141577155852
 11
259.81352830318673
 21
354.19141577155852
  0
LINE
  8
_2-1_
  6
DASHED1
 62
    4
 10
247.93630925306505
 20
314.19141577155852
 11
259.81352830318673
 21
314.19141577155852
  0
LINE
  8
_2-1_
  6
DASHED1
 62
    4
 10
364.58906707210895
 20
448.11699161754711
 11
364.58906707210895
 21
437.33867104882927
  0
LINE
  8
_2-1_
  6
DASHED1
 62
    4
 10
380.58906707210895
 20
448.11699161754711
 11
380.58906707210895
 21
437.33867104882927
  0
LINE
  8
_2-1_
  6
DASHED1
 62
    4
 10
364.58906707210895
 20
222.54213971509378
 11
364.58906707210895
 21
211.9837848722681
  0
LINE
  8
_2-1_
  6
DASHED1
 62
    4
 10
380.58906707210895
 20
222.54213971509378
 11
380.58906707210895
 21
211.9837848722681
  0
LINE
  8
_2-1_
  6
DASHED1
 62
    4
 10
372.58906707210895
 20
222.54213971509378
 11
372.58906707210895
 21
211.9837848722681
  0
LINE
  8
_2-1_
  6
DASHED1
 62
    4
 10
372.58906707210895
 20
448.11699161754711
 11
372.58906707210895
 21
437.33867104882927
  0
LINE
  8
_2-1_
  6
DASHED1
 62
    4
 10
360.1808384513227
 20
354.19141577155852
 11
384.31971838104693
 21
354.19141577155852
  0
LINE
  8
_2-1_
  6
DASHED1
 62
    4
 10
360.1808384513227
 20
314.19141577155852
 11
384.31971838104698
 21
314.19141577155852
  0
LINE
  8
_2-1_
  6
DASHED1
 62
    4
 10
564.8819562340841
 20
332.94141577155852
 11
572.62381563870224
 21
332.94141577155852
  0
LINE
  8
_2-1_
  6
DASHED1
 62
    4
 10
250.68655163985457
 20
332.94141577155852
 11
255.99698950195398
 21
332.94141577155852
  0
LINE
  8
_2-1_
  6
DASHED1
 62
    4
 10
368.85143839953435
 20
332.94141577155852
 11
376.27811999894016
 21
332.94141577155852
  0
LINE
  8
_2-0_
  6
CONTINUOUS
 62
    7
 10
392.58906707210895
 20
274.69141577155858
 11
352.58906707210895
 21
274.69141577155858
  0
LINE
  8
_2-0_
  6
CONTINUOUS
 62
    7
 10
354.58906707210895
 20
362.69141577155858
 11
354.58906707210895
 21
274.69141577155858
  0
LINE
  8
_2-0_
  6
CONTINUOUS
 62
    7
 10
390.58906707210895
 20
362.69141577155858
 11
390.58906707210895
 21
274.69141577155858
  0
CIRCLE
  8
_2-0_
  6
CONTINUOUS
 62
    7
 10
486.58906707210895
 20
318.69141577155858
 40
1
  0
CIRCLE
  8
_2-0_
  6
CONTINUOUS
 62
    4
 10
486.58906707210895
 20
318.69141577155858
 40
1.5
  0
LINE
  8
_2-0_
  6
DASHED1
 62
    7
 10
352.58906707210895
 20
317.69141577155858
 11
354.58906707210895
 21
317.69141577155858
  0
LINE
  8
_2-0_
  6
DASHED1
 62
    7
 10
352.58906707210895
 20
319.69141577155858
 11
354.58906707210895
 21
319.69141577155858
  0
LINE
  8
_2-0_
  6
DASHED1
 62
    4
 10
352.58906707210895
 20
317.19141577155858
 11
354.58906707210895
 21
317.19141577155858
  0
LINE
  8
_2-0_
  6
DASHED1
 62
    4
 10
352.58906707210895
 20
320.19141577155858
 11
354.58906707210895
 21
320.19141577155858
  0
LINE
  8
_2-0_
  6
DASHED1
 62
    7
 10
390.58906707210895
 20
317.69141577155858
 11
392.58906707210895
 21
317.69141577155858
  0
LINE
  8
_2-0_
  6
DASHED1
 62
    7
 10
390.58906707210895
 20
319.69141577155858
 11
392.58906707210895
 21
319.69141577155858
  0
LINE
  8
_2-0_
  6
DASHED1
 62
    4
 10
390.58906707210895
 20
317.19141577155858
 11
392.58906707210895
 21
317.19141577155858
  0
LINE
  8
_2-0_
  6
DASHED1
 62
    4
 10
390.58906707210895
 20
320.19141577155858
 11
392.58906707210895
 21
320.19141577155858
  0
CIRCLE
  8
_2-0_
  6
CONTINUOUS
 62
    7
 10
258.58906707210895
 20
318.69141577155858
 40
1
  0
CIRCLE
  8
_2-0_
  6
CONTINUOUS
 62
    4
 10
258.58906707210895
 20
318.69141577155858
 40
1.5
  0
LINE
  8
_2-0_
  6
CONTINUOUS
 62
    7
 10
352.58906707210895
 20
443.69141577155852
 11
392.58906707210895
 21
443.69141577155852
  0
LINE
  8
_2-0_
  6
CONTINUOUS
 62
    7
 10
352.58906707210895
 20
443.69141577155852
 11
352.58906707210895
 21
433.69141577155852
  0
LINE
  8
_2-0_
  6
CONTINUOUS
 62
    7
 10
392.58906707210895
 20
443.69141577155852
 11
392.58906707210895
 21
433.69141577155852
  0
LINE
  8
_2-0_
  6
CONTINUOUS
 62
    7
 10
352.58906707210895
 20
433.69141577155852
 11
354.58906707210895
 21
433.69141577155852
  0
LINE
  8
_2-0_
  6
CONTINUOUS
 62
    7
 10
390.58906707210895
 20
433.69141577155852
 11
392.58906707210895
 21
433.69141577155852
  0
LINE
  8
_2-0_
  6
CONTINUOUS
 62
    7
 10
354.58906707210895
 20
441.69141577155852
 11
390.58906707210895
 21
441.69141577155852
  0
LINE
  8
_2-0_
  6
CONTINUOUS
 62
    7
 10
354.58906707210895
 20
441.69141577155852
 11
354.58906707210895
 21
433.69141577155852
  0
LINE
  8
_2-0_
  6
CONTINUOUS
 62
    7
 10
390.58906707210895
 20
441.69141577155852
 11
390.58906707210895
 21
433.69141577155852
  0
LINE
  8
_2-0_
  6
DASHED1
 62
    7
 10
352.58906707210895
 20
436.69141577155858
 11
354.58906707210895
 21
436.69141577155858
  0
LINE
  8
_2-0_
  6
DASHED1
 62
    7
 10
352.58906707210895
 20
438.69141577155847
 11
354.58906707210895
 21
438.69141577155847
  0
LINE
  8
_2-0_
  6
DASHED1
 62
    4
 10
352.58906707210895
 20
436.19141577155852
 11
354.58906707210895
 21
436.19141577155852
  0
LINE
  8
_2-0_
  6
DASHED1
 62
    4
 10
352.58906707210895
 20
439.19141577155852
 11
354.58906707210895
 21
439.19141577155852
  0
LINE
  8
_2-0_
  6
DASHED1
 62
    7
 10
390.58906707210895
 20
436.69141577155858
 11
392.58906707210895
 21
436.69141577155858
  0
LINE
  8
_2-0_
  6
DASHED1
 62
    7
 10
390.58906707210895
 20
438.69141577155847
 11
392.58906707210895
 21
438.69141577155847
  0
LINE
  8
_2-0_
  6
DASHED1
 62
    4
 10
390.58906707210895
 20
436.19141577155852
 11
392.58906707210895
 21
436.19141577155852
  0
LINE
  8
_2-0_
  6
DASHED1
 62
    4
 10
390.58906707210895
 20
439.19141577155852
 11
392.58906707210895
 21
439.19141577155852
  0
LINE
  8
_2-0_
  6
CONTINUOUS
 62
    7
 10
588.58906707210895
 20
362.69141577155858
 11
588.58906707210895
 21
274.69141577155858
  0
LINE
  8
_2-0_
  6
CONTINUOUS
 62
    7
 10
588.58906707210895
 20
274.69141577155858
 11
548.58906707210895
 21
274.69141577155858
  0
LINE
  8
_2-0_
  6
CONTINUOUS
 62
    7
 10
548.58906707210895
 20
274.69141577155858
 11
548.58906707210895
 21
362.69141577155858
  0
LINE
  8
_2-0_
  6
DASHED1
 62
    7
 10
548.58906707210895
 20
317.69141577155858
 11
550.58906707210895
 21
317.69141577155858
  0
LINE
  8
_2-0_
  6
DASHED1
 62
    7
 10
548.58906707210895
 20
319.69141577155858
 11
550.58906707210895
 21
319.69141577155858
  0
LINE
  8
_2-0_
  6
DASHED1
 62
    4
 10
548.58906707210895
 20
317.19141577155858
 11
550.58906707210895
 21
317.19141577155858
  0
LINE
  8
_2-0_
  6
DASHED1
 62
    4
 10
548.58906707210895
 20
320.19141577155858
 11
550.58906707210895
 21
320.19141577155858
  0
LINE
  8
_2-0_
  6
DASHED1
 62
    7
 10
586.58906707210895
 20
317.69141577155858
 11
588.58906707210895
 21
317.69141577155858
  0
LINE
  8
_2-0_
  6
DASHED1
 62
    7
 10
586.58906707210895
 20
319.69141577155858
 11
588.58906707210895
 21
319.69141577155858
  0
LINE
  8
_2-0_
  6
DASHED1
 62
    4
 10
586.58906707210895
 20
317.19141577155858
 11
588.58906707210895
 21
317.19141577155858
  0
LINE
  8
_2-0_
  6
DASHED1
 62
    4
 10
586.58906707210895
 20
320.19141577155858
 11
588.58906707210895
 21
320.19141577155858
  0
LINE
  8
_2-0_
  6
DASHED1
 62
    7
 10
550.58906707210895
 20
362.69141577155858
 11
550.58906707210895
 21
274.69141577155858
  0
LINE
  8
_2-0_
  6
DASHED1
 62
    7
 10
586.58906707210895
 20
362.69141577155858
 11
586.58906707210895
 21
274.69141577155858
  0
LINE
  8
_2-0_
  6
CONTINUOUS
 62
    7
 10
352.58906707210895
 20
360.69141577155858
 11
354.58906707210895
 21
360.69141577155858
  0
LINE
  8
_2-0_
  6
CONTINUOUS
 62
    7
 10
390.58906707210895
 20
360.69141577155858
 11
392.58906707210895
 21
360.69141577155858
  0
LINE
  8
_2-0_
  6
CONTINUOUS
 62
    7
 10
352.58906707210895
 20
274.69141577155858
 11
352.58906707210895
 21
360.69141577155858
  0
LINE
  8
_2-0_
  6
CONTINUOUS
 62
    7
 10
392.58906707210895
 20
360.69141577155858
 11
392.58906707210895
 21
274.69141577155858
  0
LINE
  8
_2-0_
  6
CONTINUOUS
 62
    7
 10
490.58906707210895
 20
362.69141577155858
 11
492.58906707210895
 21
362.69141577155858
  0
LINE
  8
_2-0_
  6
DASHED1
 62
    7
 10
490.58906707210895
 20
360.69141577155858
 11
490.58906707210895
 21
274.69141577155858
  0
LINE
  8
_2-0_
  6
CONTINUOUS
 62
    7
 10
490.58906707210895
 20
362.69141577155858
 11
490.58906707210895
 21
360.69141577155858
  0
LINE
  8
_2-0_
  6
DASHED1
 62
    7
 10
254.58906707210895
 20
274.69141577155858
 11
254.58906707210895
 21
360.69141577155858
  0
LINE
  8
_2-0_
  6
CONTINUOUS
 62
    7
 10
254.58906707210895
 20
362.69141577155858
 11
252.58906707210895
 21
362.69141577155858
  0
LINE
  8
_2-0_
  6
CONTINUOUS
 62
    7
 10
254.58906707210895
 20
362.69141577155858
 11
254.58906707210895
 21
360.69141577155858
  0
CIRCLE
  8
_2-0_
  6
CONTINUOUS
 62
    7
 10
258.58906707210895
 20
355.69141577155852
 40
1
  0
CIRCLE
  8
_2-0_
  6
CONTINUOUS
 62
    4
 10
258.58906707210895
 20
355.69141577155852
 40
1.5
  0
LINE
  8
_2-0_
  6
DASHED1
 62
    4
 10
352.58906707210895
 20
357.19141577155852
 11
354.58906707210895
 21
357.19141577155852
  0
LINE
  8
_2-0_
  6
DASHED1
 62
    7
 10
352.58906707210895
 20
356.69141577155858
 11
354.58906707210895
 21
356.69141577155858
  0
LINE
  8
_2-0_
  6
DASHED1
 62
    7
 10
352.58906707210895
 20
354.69141577155858
 11
354.58906707210895
 21
354.69141577155858
  0
LINE
  8
_2-0_
  6
DASHED1
 62
    4
 10
352.58906707210895
 20
354.19141577155852
 11
354.58906707210895
 21
354.19141577155852
  0
LINE
  8
_2-0_
  6
DASHED1
 62
    4
 10
390.58906707210895
 20
357.19141577155852
 11
392.58906707210895
 21
357.19141577155852
  0
LINE
  8
_2-0_
  6
DASHED1
 62
    7
 10
390.58906707210895
 20
356.69141577155858
 11
392.58906707210895
 21
356.69141577155858
  0
LINE
  8
_2-0_
  6
DASHED1
 62
    7
 10
390.58906707210895
 20
354.69141577155858
 11
392.58906707210895
 21
354.69141577155858
  0
LINE
  8
_2-0_
  6
DASHED1
 62
    4
 10
390.58906707210895
 20
354.19141577155852
 11
392.58906707210895
 21
354.19141577155852
  0
CIRCLE
  8
_2-0_
  6
CONTINUOUS
 62
    4
 10
486.58906707210895
 20
355.69141577155858
 40
1.5
  0
CIRCLE
  8
_2-0_
  6
CONTINUOUS
 62
    7
 10
486.58906707210895
 20
355.69141577155858
 40
1
  0
LINE
  8
_2-0_
  6
DASHED1
 62
    4
 10
548.58906707210895
 20
357.19141577155852
 11
550.58906707210895
 21
357.19141577155852
  0
LINE
  8
_2-0_
  6
DASHED1
 62
    7
 10
548.58906707210895
 20
356.69141577155858
 11
550.58906707210895
 21
356.69141577155858
  0
LINE
  8
_2-0_
  6
DASHED1
 62
    7
 10
548.58906707210895
 20
354.69141577155858
 11
550.58906707210895
 21
354.69141577155858
  0
LINE
  8
_2-0_
  6
DASHED1
 62
    4
 10
548.58906707210895
 20
354.19141577155852
 11
550.58906707210895
 21
354.19141577155852
  0
LINE
  8
_2-0_
  6
DASHED1
 62
    4
 10
586.58906707210895
 20
357.19141577155852
 11
588.58906707210895
 21
357.19141577155852
  0
LINE
  8
_2-0_
  6
DASHED1
 62
    7
 10
586.58906707210895
 20
356.69141577155858
 11
588.58906707210895
 21
356.69141577155858
  0
LINE
  8
_2-0_
  6
DASHED1
 62
    7
 10
586.58906707210895
 20
354.69141577155858
 11
588.58906707210895
 21
354.69141577155858
  0
LINE
  8
_2-0_
  6
DASHED1
 62
    4
 10
586.58906707210895
 20
354.19141577155852
 11
588.58906707210895
 21
354.19141577155852
  0
CIRCLE
  8
_2-0_
  6
CONTINUOUS
 62
    7
 10
258.58906707210895
 20
281.69141577155852
 40
1
  0
CIRCLE
  8
_2-0_
  6
CONTINUOUS
 62
    4
 10
258.58906707210895
 20
281.69141577155852
 40
1.5
  0
LINE
  8
_2-0_
  6
DASHED1
 62
    7
 10
352.58906707210895
 20
282.69141577155858
 11
354.58906707210895
 21
282.69141577155858
  0
LINE
  8
_2-0_
  6
DASHED1
 62
    4
 10
352.58906707210895
 20
283.19141577155858
 11
354.58906707210895
 21
283.19141577155858
  0
LINE
  8
_2-0_
  6
DASHED1
 62
    7
 10
352.58906707210895
 20
280.69141577155858
 11
354.58906707210895
 21
280.69141577155858
  0
LINE
  8
_2-0_
  6
DASHED1
 62
    4
 10
352.58906707210895
 20
280.19141577155858
 11
354.58906707210895
 21
280.19141577155858
  0
LINE
  8
_2-0_
  6
DASHED1
 62
    4
 10
390.58906707210895
 20
283.19141577155858
 11
392.58906707210895
 21
283.19141577155858
  0
LINE
  8
_2-0_
  6
DASHED1
 62
    7
 10
390.58906707210895
 20
282.69141577155858
 11
392.58906707210895
 21
282.69141577155858
  0
LINE
  8
_2-0_
  6
DASHED1
 62
    7
 10
390.58906707210895
 20
280.69141577155858
 11
392.58906707210895
 21
280.69141577155858
  0
LINE
  8
_2-0_
  6
DASHED1
 62
    4
 10
390.58906707210895
 20
280.19141577155858
 11
392.58906707210895
 21
280.19141577155858
  0
CIRCLE
  8
_2-0_
  6
CONTINUOUS
 62
    7
 10
486.58906707210895
 20
281.69141577155858
 40
1
  0
CIRCLE
  8
_2-0_
  6
CONTINUOUS
 62
    4
 10
486.58906707210895
 20
281.69141577155858
 40
1.5
  0
LINE
  8
_2-0_
  6
DASHED1
 62
    4
 10
548.58906707210895
 20
283.19141577155858
 11
550.58906707210895
 21
283.19141577155858
  0
LINE
  8
_2-0_
  6
DASHED1
 62
    7
 10
548.58906707210895
 20
282.69141577155858
 11
550.58906707210895
 21
282.69141577155858
  0
LINE
  8
_2-0_
  6
DASHED1
 62
    7
 10
548.58906707210895
 20
280.69141577155858
 11
550.58906707210895
 21
280.69141577155858
  0
LINE
  8
_2-0_
  6
DASHED1
 62
    4
 10
548.58906707210895
 20
280.19141577155858
 11
550.58906707210895
 21
280.19141577155858
  0
LINE
  8
_2-0_
  6
DASHED1
 62
    4
 10
586.58906707210895
 20
283.19141577155858
 11
588.58906707210895
 21
283.19141577155858
  0
LINE
  8
_2-0_
  6
DASHED1
 62
    7
 10
586.58906707210895
 20
282.69141577155858
 11
588.58906707210895
 21
282.69141577155858
  0
LINE
  8
_2-0_
  6
DASHED1
 62
    4
 10
586.58906707210895
 20
280.19141577155858
 11
588.58906707210895
 21
280.19141577155858
  0
LINE
  8
_2-0_
  6
DASHED1
 62
    7
 10
586.58906707210895
 20
280.69141577155858
 11
588.58906707210895
 21
280.69141577155858
  0
LINE
  8
_2-0_
  6
CONTINUOUS
 62
    7
 10
392.58906707210895
 20
215.83214767465302
 11
352.58906707210895
 21
215.83214767465302
  0
LINE
  8
_2-0_
  6
CONTINUOUS
 62
    7
 10
392.58906707210895
 20
215.83214767465302
 11
392.58906707210895
 21
225.83214767465304
  0
LINE
  8
_2-0_
  6
CONTINUOUS
 62
    7
 10
352.58906707210895
 20
215.83214767465302
 11
352.58906707210895
 21
225.83214767465304
  0
LINE
  8
_2-0_
  6
CONTINUOUS
 62
    7
 10
392.58906707210895
 20
225.83214767465304
 11
390.58906707210895
 21
225.83214767465304
  0
LINE
  8
_2-0_
  6
CONTINUOUS
 62
    7
 10
354.58906707210895
 20
225.83214767465304
 11
352.58906707210895
 21
225.83214767465304
  0
LINE
  8
_2-0_
  6
CONTINUOUS
 62
    7
 10
390.58906707210895
 20
217.83214767465299
 11
354.58906707210895
 21
217.83214767465299
  0
LINE
  8
_2-0_
  6
CONTINUOUS
 62
    7
 10
390.58906707210895
 20
217.83214767465299
 11
390.58906707210895
 21
225.83214767465304
  0
LINE
  8
_2-0_
  6
CONTINUOUS
 62
    7
 10
354.58906707210895
 20
217.83214767465299
 11
354.58906707210895
 21
225.83214767465304
  0
LINE
  8
_2-0_
  6
DASHED1
 62
    7
 10
392.58906707210895
 20
222.83214767465302
 11
390.58906707210895
 21
222.83214767465302
  0
LINE
  8
_2-0_
  6
DASHED1
 62
    7
 10
392.58906707210895
 20
220.83214767465302
 11
390.58906707210895
 21
220.83214767465302
  0
LINE
  8
_2-0_
  6
DASHED1
 62
    4
 10
392.58906707210895
 20
223.33214767465302
 11
390.58906707210895
 21
223.33214767465302
  0
LINE
  8
_2-0_
  6
DASHED1
 62
    4
 10
392.58906707210895
 20
220.33214767465302
 11
390.58906707210895
 21
220.33214767465302
  0
LINE
  8
_2-0_
  6
DASHED1
 62
    7
 10
354.58906707210895
 20
222.83214767465302
 11
352.58906707210895
 21
222.83214767465302
  0
LINE
  8
_2-0_
  6
DASHED1
 62
    7
 10
354.58906707210895
 20
220.83214767465302
 11
352.58906707210895
 21
220.83214767465302
  0
LINE
  8
_2-0_
  6
DASHED1
 62
    4
 10
354.58906707210895
 20
223.33214767465302
 11
352.58906707210895
 21
223.33214767465302
  0
LINE
  8
_2-0_
  6
DASHED1
 62
    4
 10
354.58906707210895
 20
220.33214767465302
 11
352.58906707210895
 21
220.33214767465302
  0
CIRCLE
  8
_2-0_
  6
DASHED1
 62
    7
 10
364.58906707210895
 20
314.19141577155858
 40
3.1499999999999999
  0
CIRCLE
  8
_2-0_
  6
DASHED1
 62
    7
 10
380.58906707210895
 20
314.19141577155858
 40
3.1499999999999999
  0
CIRCLE
  8
_2-0_
  6
DASHED1
 62
    7
 10
364.58906707210895
 20
354.19141577155858
 40
3.1499999999999999
  0
CIRCLE
  8
_2-0_
  6
DASHED1
 62
    7
 10
380.58906707210895
 20
354.19141577155858
 40
3.1499999999999999
  0
LINE
  8
_2-0_
  6
DASHED1
 62
    7
 10
490.58906707210895
 20
355.94141577155858
 11
491.18906707210897
 21
355.94141577155858
  0
LINE
  8
_2-0_
  6
DASHED1
 62
    7
 10
492.58906707210895
 20
351.0414157715586
 11
491.18906707210897
 21
352.44141577155858
  0
LINE
  8
_2-0_
  6
DASHED1
 62
    7
 10
490.58906707210895
 20
352.44141577155858
 11
491.18906707210897
 21
352.44141577155858
  0
LINE
  8
_2-0_
  6
DASHED1
 62
    7
 10
492.58906707210895
 20
357.34141577155856
 11
491.18906707210897
 21
355.94141577155858
  0
LINE
  8
_2-0_
  6
DASHED1
 62
    7
 10
492.58906707210895
 20
317.34141577155856
 11
491.18906707210897
 21
315.94141577155858
  0
LINE
  8
_2-0_
  6
DASHED1
 62
    7
 10
490.58906707210895
 20
315.94141577155858
 11
491.18906707210897
 21
315.94141577155858
  0
LINE
  8
_2-0_
  6
DASHED1
 62
    7
 10
492.58906707210895
 20
311.0414157715586
 11
491.18906707210897
 21
312.44141577155858
  0
LINE
  8
_2-0_
  6
DASHED1
 62
    7
 10
490.58906707210895
 20
312.44141577155858
 11
491.18906707210897
 21
312.44141577155858
  0
CIRCLE
  8
_2-0_
  6
CONTINUOUS
 62
    7
 10
364.58906707210895
 20
354.19141577155858
 40
1.7500000000000002
  0
CIRCLE
  8
_2-0_
  6
CONTINUOUS
 62
    7
 10
380.58906707210895
 20
354.19141577155858
 40
1.7500000000000002
  0
CIRCLE
  8
_2-0_
  6
CONTINUOUS
 62
    7
 10
380.58906707210895
 20
314.19141577155858
 40
1.7500000000000002
  0
CIRCLE
  8
_2-0_
  6
CONTINUOUS
 62
    7
 10
364.58906707210895
 20
314.19141577155858
 40
1.7500000000000002
  0
CIRCLE
  8
_2-0_
  6
CONTINUOUS
 62
    7
 10
560.58906707210895
 20
354.19141577155858
 40
1.7500000000000002
  0
CIRCLE
  8
_2-0_
  6
CONTINUOUS
 62
    7
 10
560.58906707210895
 20
354.19141577155858
 40
3.1499999999999999
  0
CIRCLE
  8
_2-0_
  6
CONTINUOUS
 62
    7
 10
576.58906707210895
 20
354.19141577155858
 40
1.7500000000000002
  0
CIRCLE
  8
_2-0_
  6
CONTINUOUS
 62
    7
 10
576.58906707210895
 20
354.19141577155858
 40
3.1499999999999999
  0
CIRCLE
  8
_2-0_
  6
CONTINUOUS
 62
    7
 10
576.58906707210895
 20
314.19141577155858
 40
1.7500000000000002
  0
CIRCLE
  8
_2-0_
  6
CONTINUOUS
 62
    7
 10
576.58906707210895
 20
314.19141577155858
 40
3.1499999999999999
  0
CIRCLE
  8
_2-0_
  6
CONTINUOUS
 62
    7
 10
560.58906707210895
 20
314.19141577155858
 40
1.7500000000000002
  0
CIRCLE
  8
_2-0_
  6
CONTINUOUS
 62
    7
 10
560.58906707210895
 20
314.19141577155858
 40
3.1499999999999999
  0
CIRCLE
  8
_2-0_
  6
CONTINUOUS
 62
    7
 10
568.58906707210895
 20
332.94141577155858
 40
3.0499999999999998
  0
LINE
  8
_2-0_
  6
DASHED1
 62
    7
 10
252.58906707210895
 20
351.0414157715586
 11
253.98906707210895
 21
352.44141577155858
  0
LINE
  8
_2-0_
  6
DASHED1
 62
    7
 10
254.58906707210895
 20
352.44141577155858
 11
253.98906707210895
 21
352.44141577155858
  0
LINE
  8
_2-0_
  6
DASHED1
 62
    7
 10
254.58906707210895
 20
355.94141577155858
 11
253.98906707210895
 21
355.94141577155858
  0
LINE
  8
_2-0_
  6
DASHED1
 62
    7
 10
252.58906707210895
 20
357.34141577155856
 11
253.98906707210895
 21
355.94141577155858
  0
LINE
  8
_2-0_
  6
DASHED1
 62
    7
 10
252.58906707210895
 20
311.0414157715586
 11
253.98906707210895
 21
312.44141577155858
  0
LINE
  8
_2-0_
  6
DASHED1
 62
    7
 10
254.58906707210895
 20
312.44141577155858
 11
253.98906707210895
 21
312.44141577155858
  0
LINE
  8
_2-0_
  6
DASHED1
 62
    7
 10
252.58906707210895
 20
317.34141577155856
 11
253.98906707210895
 21
315.94141577155858
  0
LINE
  8
_2-0_
  6
DASHED1
 62
    7
 10
254.58906707210895
 20
315.94141577155858
 11
253.98906707210895
 21
315.94141577155858
  0
LINE
  8
_2-0_
  6
DASHED1
 62
    7
 10
254.58906707210895
 20
329.89141577155857
 11
252.58906707210895
 21
329.89141577155857
  0
LINE
  8
_2-0_
  6
DASHED1
 62
    7
 10
254.58906707210895
 20
335.99141577155859
 11
252.58906707210895
 21
335.99141577155859
  0
LINE
  8
_2-0_
  6
DASHED1
 62
    7
 10
490.58906707210895
 20
329.89141577155857
 11
492.58906707210895
 21
329.89141577155857
  0
LINE
  8
_2-0_
  6
DASHED1
 62
    7
 10
490.58906707210895
 20
335.99141577155859
 11
492.58906707210895
 21
335.99141577155859
  0
LINE
  8
_2-0_
  6
DASHED1
 62
    7
 10
378.83906707210895
 20
441.69141577155852
 11
378.83906707210895
 21
442.29141577155855
  0
LINE
  8
_2-0_
  6
DASHED1
 62
    7
 10
383.73906707210892
 20
443.69141577155852
 11
382.33906707210895
 21
442.29141577155855
  0
LINE
  8
_2-0_
  6
DASHED1
 62
    7
 10
382.33906707210895
 20
441.69141577155852
 11
382.33906707210895
 21
442.29141577155855
  0
LINE
  8
_2-0_
  6
DASHED1
 62
    7
 10
377.43906707210897
 20
443.69141577155852
 11
378.83906707210895
 21
442.29141577155855
  0
LINE
  8
_2-0_
  6
DASHED1
 62
    7
 10
362.83906707210895
 20
441.69141577155852
 11
362.83906707210895
 21
442.29141577155855
  0
LINE
  8
_2-0_
  6
DASHED1
 62
    7
 10
367.73906707210892
 20
443.69141577155852
 11
366.33906707210895
 21
442.29141577155855
  0
LINE
  8
_2-0_
  6
DASHED1
 62
    7
 10
366.33906707210895
 20
441.69141577155852
 11
366.33906707210895
 21
442.29141577155855
  0
LINE
  8
_2-0_
  6
DASHED1
 62
    7
 10
361.43906707210897
 20
443.69141577155852
 11
362.83906707210895
 21
442.29141577155855
  0
LINE
  8
_2-0_
  6
DASHED1
 62
    7
 10
366.33906707210895
 20
217.83214767465299
 11
366.33906707210895
 21
217.23214767465296
  0
LINE
  8
_2-0_
  6
DASHED1
 62
    7
 10
361.43906707210897
 20
215.83214767465299
 11
362.83906707210895
 21
217.23214767465296
  0
LINE
  8
_2-0_
  6
DASHED1
 62
    7
 10
362.83906707210895
 20
217.83214767465299
 11
362.83906707210895
 21
217.23214767465296
  0
LINE
  8
_2-0_
  6
DASHED1
 62
    7
 10
367.73906707210892
 20
215.83214767465299
 11
366.33906707210895
 21
217.23214767465296
  0
LINE
  8
_2-0_
  6
DASHED1
 62
    7
 10
382.33906707210895
 20
217.83214767465299
 11
382.33906707210895
 21
217.23214767465296
  0
LINE
  8
_2-0_
  6
DASHED1
 62
    7
 10
377.43906707210897
 20
215.83214767465299
 11
378.83906707210895
 21
217.23214767465296
  0
LINE
  8
_2-0_
  6
DASHED1
 62
    7
 10
378.83906707210895
 20
217.83214767465299
 11
378.83906707210895
 21
217.23214767465296
  0
LINE
  8
_2-0_
  6
DASHED1
 62
    7
 10
383.73906707210892
 20
215.83214767465299
 11
382.33906707210895
 21
217.23214767465296
  0
LINE
  8
_2-0_
  6
DASHED1
 62
    7
 10
369.53906707210894
 20
443.69141577155852
 11
369.53906707210894
 21
441.69141577155852
  0
LINE
  8
_2-0_
  6
DASHED1
 62
    7
 10
375.63906707210896
 20
443.69141577155852
 11
375.63906707210896
 21
441.69141577155852
  0
LINE
  8
_2-0_
  6
DASHED1
 62
    7
 10
369.53906707210894
 20
217.83214767465299
 11
369.53906707210894
 21
215.83214767465302
  0
LINE
  8
_2-0_
  6
DASHED1
 62
    7
 10
375.63906707210896
 20
217.83214767465299
 11
375.63906707210896
 21
215.83214767465302
  0
LINE
  8
_2-a_
  6
DASHED1
 62
    4
 10
577.58906707210895
 20
283.85003098412369
 11
577.58906707210895
 21
279.55521318733321
  0
LINE
  8
_2-a_
  6
DASHED1
 62
    4
 10
574.9542964616943
 20
281.69141577155858
 11
580.50409778262019
 21
281.69141577155858
  0
LINE
  8
_2-a_
  6
CONTINUOUS
 62
    4
 10
588.58906707210895
 20
266.52315211729757
 11
577.58906707210895
 21
266.52315211729757
  0
POINT
  8
_2-a_
 62
    4
 10
588.58906707210895
 20
266.52315211729757
  0
POINT
  8
_2-a_
 62
    4
 10
577.58906707210895
 20
266.52315211729757
  0
LINE
  8
_2-a_
  6
CONTINUOUS
 62
    4
 10
588.58906707210895
 20
266.52315211729757
 11
588.58906707210895
 21
273.8394802415595
  0
LINE
  8
_2-a_
  6
CONTINUOUS
 62
    4
 10
577.58906707210895
 20
266.52315211729757
 11
577.58906707210895
 21
273.8394802415595
  0
TEXT
  8
_2-a_
 62
    7
 10
580.58906707210895
 20
267.52315211729757
 40
5
 41
1
 50
0
  1
11
  0
LINE
  8
_2-a_
  6
CONTINUOUS
 62
    4
 10
568.71924199575346
 20
283.19141577155858
 11
568.71924199575346
 21
280.19141577155858
  0
POINT
  8
_2-a_
 62
    4
 10
568.71924199575346
 20
283.19141577155858
  0
POINT
  8
_2-a_
 62
    4
 10
568.71924199575346
 20
280.19141577155858
  0
LINE
  8
_2-a_
  6
CONTINUOUS
 62
    4
 10
568.71924199575346
 20
283.19141577155858
 11
571.94953334685306
 21
283.19141577155858
  0
LINE
  8
_2-a_
  6
CONTINUOUS
 62
    4
 10
568.71924199575346
 20
280.19141577155858
 11
571.94953334685306
 21
280.19141577155858
  0
TEXT
  8
_2-a_
 62
    7
 10
567.71924199575346
 20
280.44141577155858
 40
5
 41
1
 50
90
  1
3
  0
LINE
  8
_2-a_
  6
CONTINUOUS
 62
    4
 10
599.72884556544057
 20
274.69141577155858
 11
599.72884556544057
 21
281.69141577155858
  0
POINT
  8
_2-a_
 62
    4
 10
599.72884556544057
 20
274.69141577155858
  0
POINT
  8
_2-a_
 62
    4
 10
599.72884556544057
 20
281.69141577155858
  0
LINE
  8
_2-a_
  6
CONTINUOUS
 62
    4
 10
599.72884556544057
 20
274.69141577155858
 11
589.88328839955909
 21
274.69141577155858
  0
LINE
  8
_2-a_
  6
CONTINUOUS
 62
    4
 10
599.72884556544057
 20
281.69141577155858
 11
589.88328839955909
 21
281.69141577155858
  0
TEXT
  8
_2-a_
 62
    7
 10
598.72884556544057
 20
276.94141577155858
 40
5
 41
1
 50
90
  1
7
  0
LINE
  8
_2-a_
  6
CONTINUOUS
 62
    4
 10
575.58906707210895
 20
280.19141577155858
 11
554.30868203642308
 21
258.91103073587271
  0
LINE
  8
_2-a_
  6
CONTINUOUS
 62
    4
 10
575.58906707210895
 20
280.19141577155858
 11
572.58906707210895
 21
274.99526334885195
  0
LINE
  8
_2-a_
  6
CONTINUOUS
 62
    4
 10
575.58906707210895
 20
280.19141577155858
 11
570.39291464940231
 21
277.19141577155858
  0
LINE
  8
_2-a_
  6
CONTINUOUS
 62
    4
 10
554.30868203642308
 20
258.91103073587271
 11
523.39827586555839
 21
258.91103073587271
  0
LINE
  8
_2-0_
  6
CONTINUOUS
 62
    7
 10
370.58906707210895
 20
359.69141577155858
 11
370.58906707210895
 21
362.69141577155858
  0
ARC
  8
_2-0_
  6
CONTINUOUS
 62
    7
 10
371.58906707210895
 20
359.69141577155858
 40
1
 50
180
 51
270
  0
LINE
  8
_2-0_
  6
CONTINUOUS
 62
    7
 10
373.58906707210895
 20
358.69141577155858
 11
371.58906707210895
 21
358.69141577155858
  0
LINE
  8
_2-0_
  6
CONTINUOUS
 62
    7
 10
374.58906707210895
 20
359.69141577155858
 11
374.58906707210895
 21
362.69141577155852
  0
ARC
  8
_2-0_
  6
CONTINUOUS
 62
    7
 10
373.58906707210895
 20
359.69141577155858
 40
1
 50
270
 51
0
  0
LINE
  8
_2-0_
  6
CONTINUOUS
 62
    7
 10
354.58906707210895
 20
362.69141577155858
 11
370.58906707210895
 21
362.69141577155858
  0
LINE
  8
_2-0_
  6
CONTINUOUS
 62
    7
 10
374.58906707210895
 20
362.69141577155858
 11
390.58906707210895
 21
362.69141577155858
  0
LINE
  8
_2-8_
  6
CONTINUOUS
 62
    4
 10
370.58906707210895
 20
364.20519038412544
 11
374.58906707210895
 21
364.20519038412544
  0
POINT
  8
_2-8_
 62
    4
 10
370.58906707210895
 20
364.20519038412544
  0
POINT
  8
_2-8_
 62
    4
 10
374.58906707210895
 20
364.20519038412544
  0
LINE
  8
_2-8_
  6
CONTINUOUS
 62
    4
 10
370.58906707210895
 20
364.20519038412544
 11
370.58906707210895
 21
363.69084558958446
  0
LINE
  8
_2-8_
  6
CONTINUOUS
 62
    4
 10
374.58906707210895
 20
364.20519038412544
 11
374.58906707210895
 21
363.69084558958446
  0
TEXT
  8
_2-8_
 62
    7
 10
371.33906707210895
 20
365.20519038412544
 40
5
 41
1
 50
0
  1
4
  0
LINE
  8
_2-8_
  6
CONTINUOUS
 62
    4
 10
368.66602997716927
 20
362.69141577155858
 11
368.66602997716927
 21
358.69141577155858
  0
POINT
  8
_2-8_
 62
    4
 10
368.66602997716927
 20
362.69141577155858
  0
POINT
  8
_2-8_
 62
    4
 10
368.66602997716927
 20
358.69141577155858
  0
LINE
  8
_2-8_
  6
CONTINUOUS
 62
    4
 10
368.66602997716927
 20
362.69141577155858
 11
369.68083958961648
 21
362.69141577155858
  0
LINE
  8
_2-8_
  6
CONTINUOUS
 62
    4
 10
368.66602997716927
 20
358.69141577155858
 11
369.68083958961648
 21
358.69141577155858
  0
TEXT
  8
_2-8_
 62
    7
 10
367.66602997716927
 20
359.44141577155858
 40
5
 41
1
 50
90
  1
4
  0
LINE
  8
_2-0_
  6
CONTINUOUS
 62
    7
 10
252.58906707210895
 20
275.69141577155858
 11
252.58906707210895
 21
362.69141577155858
  0
ARC
  8
_2-0_
  6
CONTINUOUS
 62
    7
 10
253.58906707210895
 20
275.69141577155858
 40
1
 50
180
 51
270
  0
LINE
  8
_2-0_
  6
CONTINUOUS
 62
    7
 10
261.58906707210895
 20
274.69141577155858
 11
253.58906707210895
 21
274.69141577155858
  0
ARC
  8
_2-0_
  6
CONTINUOUS
 62
    7
 10
261.58906707210895
 20
275.69141577155858
 40
1
 50
270
 51
0
  0
LINE
  8
_2-0_
  6
CONTINUOUS
 62
    7
 10
261.58906707210895
 20
360.69141577155858
 11
254.58906707210895
 21
360.69141577155858
  0
LINE
  8
_2-0_
  6
CONTINUOUS
 62
    7
 10
262.58906707210895
 20
359.69141577155858
 11
262.58906707210895
 21
275.69141577155858
  0
ARC
  8
_2-0_
  6
CONTINUOUS
 62
    7
 10
261.58906707210895
 20
359.69141577155858
 40
1
 50
0
 51
90
  0
LINE
  8
_2-0_
  6
CONTINUOUS
 62
    7
 10
483.58906707210895
 20
360.69141577155858
 11
490.58906707210895
 21
360.69141577155858
  0
ARC
  8
_2-0_
  6
CONTINUOUS
 62
    7
 10
483.58906707210895
 20
359.69141577155858
 40
1
 50
90
 51
180
  0
LINE
  8
_2-0_
  6
CONTINUOUS
 62
    7
 10
482.58906707210895
 20
275.69141577155858
 11
482.58906707210895
 21
359.69141577155858
  0
ARC
  8
_2-0_
  6
CONTINUOUS
 62
    7
 10
483.58906707210895
 20
275.69141577155858
 40
1
 50
180
 51
270
  0
LINE
  8
_2-0_
  6
CONTINUOUS
 62
    7
 10
491.58906707210895
 20
274.69141577155858
 11
483.58906707210895
 21
274.69141577155858
  0
LINE
  8
_2-0_
  6
CONTINUOUS
 62
    7
 10
492.58906707210895
 20
275.69141577155858
 11
492.58906707210895
 21
362.69141577155858
  0
ARC
  8
_2-0_
  6
CONTINUOUS
 62
    7
 10
491.58906707210895
 20
275.69141577155858
 40
1
 50
270
 51
0
  0
LINE
  8
_2-8_
  6
CONTINUOUS
 62
    4
 10
263.32679859385462
 20
273.20501512580262
 11
278.64904332261949
 21
261.47386245969972
  0
LINE
  8
_2-8_
  6
CONTINUOUS
 62
    4
 10
263.32679859385462
 20
273.20501512580262
 11
268.87252875314721
 21
270.91484548136305
  0
LINE
  8
_2-8_
  6
CONTINUOUS
 62
    4
 10
263.32679859385462
 20
273.20501512580262
 11
266.98445697211571
 21
268.44880495509568
  0
TEXT
  8
_2-8_
 62
    7
 10
281.93484281127587
 20
262.27573071093241
 40
5.8799999999999955
 41
1.0000000000000011
 50
0
  1
R1
  0
LINE
  8
_2-8_
  6
CONTINUOUS
 62
    4
 10
278.64904332261949
 20
261.47386245969972
 11
288.73378442008254
 21
261.47386245969972
  0
LINE
  8
_2-0_
  6
CONTINUOUS
 62
    7
 10
570.58906707210895
 20
362.69141577155858
 11
588.58906707210895
 21
362.69141577155858
  0
LINE
  8
_2-0_
  6
CONTINUOUS
 62
    7
 10
548.58906707210895
 20
362.69141577155858
 11
566.58906707210895
 21
362.69141577155858
  0
LINE
  8
_2-0_
  6
CONTINUOUS
 62
    7
 10
566.58906707210895
 20
359.69141577155858
 11
566.58906707210895
 21
362.69141577155858
  0
ARC
  8
_2-0_
  6
CONTINUOUS
 62
    7
 10
567.58906707210895
 20
359.69141577155858
 40
1
 50
180
 51
270
  0
LINE
  8
_2-0_
  6
CONTINUOUS
 62
    7
 10
569.58906707210895
 20
358.69141577155858
 11
567.58906707210895
 21
358.69141577155858
  0
LINE
  8
_2-0_
  6
CONTINUOUS
 62
    7
 10
570.58906707210895
 20
359.69141577155858
 11
570.58906707210895
 21
362.69141577155858
  0
ARC
  8
_2-0_
  6
CONTINUOUS
 62
    7
 10
569.58906707210895
 20
359.69141577155858
 40
1
 50
270
 51
0
  0
CIRCLE
  8
_2-0_
  6
CONTINUOUS
 62
    7
 10
372.58906707210895
 20
332.94141577155852
 40
4
  0
TEXT
  8
_2-8_
 62
    7
 10
406.95818014800665
 20
303.47885835487489
 40
5.8799999999999955
 41
1.0000000000000011
 50
0
  1
Φ8
  0
LINE
  8
_2-8_
  6
CONTINUOUS
 62
    4
 10
406.12123595096466
 20
302.64191415783284
 11
417.21122298821638
 21
302.64191415783284
  0
LINE
  8
_2-8_
  6
CONTINUOUS
 62
    4
 10
377.147371395346
 20
330.48599204462357
 11
406.12123595096466
 21
302.64191415783284
  0
LINE
  8
_2-8_
  6
CONTINUOUS
 62
    4
 10
377.147371395346
 20
330.48599204462357
 11
382.40213807612759
 21
327.58988653367493
  0
LINE
  8
_2-8_
  6
CONTINUOUS
 62
    4
 10
377.147371395346
 20
330.48599204462357
 11
380.2500800763886
 21
325.35050775971109
  0
TEXT
  8
_2-9_
 62
    7
 10
435.08960777158683
 20
211.08227929921321
 40
3.0952320461225611
 41
0.9658018369754799
 50
0
  1
16/Jun/2016
  0
TEXT
  8
_2-9_
 62
    7
 10
544.96879828396584
 20
190.99127631808122
 40
2.9399999999999977
 41
1.0000000000000004
 50
0
  1
FLM_laser cover back_3.5W_2016.06.16
  0
TEXT
  8
_2-9_
 62
    7
 10
430.93431423096308
 20
222.31340604056044
 40
2.9399999999999977
 41
1.0000000000000007
 50
0
  1
laser cover back_3.5W
  0
TEXT
  8
_2-a_
 62
    7
 10
522.37269010499369
 20
259.95566020779603
 40
2.9399999999999977
 41
1.0000000000000004
 50
0
  1
Laser marking "3.5W"
  0
TEXT
  8
_2-a_
 62
    7
 10
574.33906707210895
 20
280.19141577155858
 40
3
 41
1
 50
0
  1
3.5W
  0
LINE
  8
_2-a_
  6
DASHED1
 62
    4
 10
574.08906707210895
 20
283.19141577155858
 11
574.08906707210895
 21
280.19141577155858
  0
LINE
  8
_2-a_
  6
DASHED1
 62
    4
 10
581.08906707210895
 20
283.19141577155858
 11
581.08906707210895
 21
280.19141577155858
  0
LINE
  8
_2-a_
  6
DASHED1
 62
    4
 10
574.08906707210895
 20
280.19141577155858
 11
581.08906707210895
 21
280.19141577155858
  0
LINE
  8
_2-a_
  6
DASHED1
 62
    4
 10
581.08906707210895
 20
283.19141577155858
 11
574.08906707210895
 21
283.19141577155858
  0
LINE
  8
_2-a_
  6
CONTINUOUS
 62
    4
 10
574.08906707210895
 20
287.31309485145141
 11
581.08906707210895
 21
287.31309485145141
  0
POINT
  8
_2-a_
 62
    4
 10
574.08906707210895
 20
287.31309485145141
  0
POINT
  8
_2-a_
 62
    4
 10
581.08906707210895
 20
287.31309485145141
  0
LINE
  8
_2-a_
  6
CONTINUOUS
 62
    4
 10
574.08906707210895
 20
287.31309485145141
 11
574.08906707210895
 21
284.08037998440625
  0
LINE
  8
_2-a_
  6
CONTINUOUS
 62
    4
 10
581.08906707210895
 20
287.31309485145141
 11
581.08906707210895
 21
284.08037998440625
  0
TEXT
  8
_2-a_
 62
    4
 10
576.33906707210895
 20
288.31309485145141
 40
5
 41
1
 50
0
  1
7
  0
ENDSEC
  0
EOF
